<?xml version="1.0" encoding="utf-8"?>
<!-- Generator: Adobe Illustrator 16.0.0, SVG Export Plug-In . SVG Version: 6.00 Build 0)  -->
<!DOCTYPE svg PUBLIC "-//W3C//DTD SVG 1.1//EN" "http://www.w3.org/Graphics/SVG/1.1/DTD/svg11.dtd">
<svg version="1.1" id="Layer_1" xmlns="http://www.w3.org/2000/svg" xmlns:xlink="http://www.w3.org/1999/xlink" x="0px" y="0px"
	 width="1623.59px" height="533.78px" viewBox="0 0 1623.59 533.78" enable-background="new 0 0 1623.59 533.78"
	 xml:space="preserve">
<path fill="#5CB7E7" stroke="#000000" stroke-miterlimit="10" d="M760.759,300.965"/>
<rect x="769.404" y="300.965" fill="#83C8DE" stroke="#000000" stroke-miterlimit="10" width="37.673" height="49.28"/>
<polyline fill="#83C8DE" stroke="#000000" stroke-miterlimit="10" points="807.077,300.965 845.274,300.965 845.274,350.246 
	807.077,350.246 "/>
<polyline fill="#83C8DE" stroke="#000000" stroke-miterlimit="10" points="845.274,300.965 881.899,300.965 881.899,350.246 
	845.274,350.246 "/>
<polyline fill="#83C8DE" stroke="#000000" stroke-miterlimit="10" points="881.899,300.965 919.827,300.965 919.827,350.246 
	881.899,350.246 "/>
<polyline fill="#83C8DE" stroke="#000000" stroke-miterlimit="10" points="919.827,300.965 957.249,300.965 957.249,350.246 
	919.827,350.246 "/>
<polyline fill="#83C8DE" stroke="#000000" stroke-miterlimit="10" points="957.249,300.965 993.874,300.965 993.874,350.246 
	957.249,350.246 "/>
<path fill="#5CB7E7" stroke="#000000" stroke-miterlimit="10" d="M914.917,300.965"/>
<rect x="1023.04" y="300.839" fill="#83C8DE" stroke="#000000" stroke-miterlimit="10" width="37.498" height="49.406"/>
<polyline fill="#83C8DE" stroke="#000000" stroke-miterlimit="10" points="1060.538,300.839 1099.108,300.839 1099.108,350.246 
	1060.538,350.246 "/>
<polyline fill="#83C8DE" stroke="#000000" stroke-miterlimit="10" points="1099.108,300.839 1161.782,300.839 1161.782,350.246 
	1099.108,350.246 "/>
<rect x="741.269" y="430.261" fill="#83C8DE" stroke="#000000" stroke-miterlimit="10" width="42.319" height="53.521"/>
<polyline fill="#83C8DE" stroke="#000000" stroke-miterlimit="10" points="783.588,430.261 818.944,430.261 818.944,483.782 
	783.588,483.782 "/>
<polyline fill="#83C8DE" stroke="#000000" stroke-miterlimit="10" points="818.944,430.261 853.762,430.261 853.762,483.782 
	818.944,483.782 "/>
<polyline fill="#83C8DE" stroke="#000000" stroke-miterlimit="10" points="853.762,430.261 888.583,430.261 888.583,483.782 
	853.762,483.782 "/>
<polyline fill="#83C8DE" stroke="#000000" stroke-miterlimit="10" points="888.583,430.261 924.733,430.261 924.733,483.782 
	888.583,483.782 "/>
<polyline fill="#83C8DE" stroke="#000000" stroke-miterlimit="10" points="924.733,430.261 958.758,430.261 958.758,483.782 
	924.733,483.782 "/>
<polyline fill="#83C8DE" stroke="#000000" stroke-miterlimit="10" points="958.758,430.261 993.577,430.261 993.577,483.782 
	958.758,483.782 "/>
<polyline fill="#83C8DE" stroke="#000000" stroke-miterlimit="10" points="993.577,430.261 1028.932,430.261 1028.932,483.782 
	993.577,483.782 "/>
<polyline fill="#83C8DE" stroke="#000000" stroke-miterlimit="10" points="1028.932,430.261 1064.288,430.261 1064.288,483.782 
	1028.932,483.782 "/>
<path fill="#5CB7E7" stroke="#000000" stroke-miterlimit="10" d="M1064.288,430.261"/>
<polyline fill="#83C8DE" stroke="#000000" stroke-miterlimit="10" points="1092.143,483.782 1161.782,483.782 1161.782,450.398 
	1092.143,450.398 "/>
<polyline fill="#83C8DE" stroke="#000000" stroke-miterlimit="10" points="1107.143,450.398 1107.143,416.484 1161.782,416.484 
	1161.782,450.398 "/>
<polyline fill="#83C8DE" stroke="#000000" stroke-miterlimit="10" points="1107.143,416.484 1107.143,382.041 1161.782,382.041 
	1161.782,416.484 "/>
<path fill="#5CB7E7" stroke="#000000" stroke-miterlimit="10" d="M1064.288,483.782"/>
<rect x="1064.288" y="430.526" fill="#C1DC9F" stroke="#000000" stroke-miterlimit="10" width="27.855" height="53.256"/>
<rect x="685.557" y="382.041" fill="#83C8DE" stroke="#000000" stroke-miterlimit="10" width="55.711" height="34.443"/>
<rect x="685.557" y="300.965" fill="#83C8DE" stroke="#000000" stroke-miterlimit="10" width="40.712" height="49.28"/>
<polygon fill="#FED497" stroke="#000000" stroke-miterlimit="10" points="758.411,364.023 790.016,364.023 790.016,382.041 
	758.411,386.165 "/>
<polygon fill="#FED497" stroke="#000000" stroke-miterlimit="10" points="790.016,364.023 818.944,364.023 818.944,386.165 
	790.016,382.041 "/>
<polygon fill="#FED497" stroke="#000000" stroke-miterlimit="10" points="862.333,364.023 893.403,364.023 893.403,382.041 
	862.333,386.165 "/>
<polygon fill="#FED497" stroke="#000000" stroke-miterlimit="10" points="893.403,364.023 924.733,364.023 924.733,386.165 
	893.403,382.041 "/>
<polygon fill="#FED497" stroke="#000000" stroke-miterlimit="10" points="924.733,364.023 955.543,364.023 955.543,382.041 
	924.733,386.165 "/>
<polygon fill="#FED497" stroke="#000000" stroke-miterlimit="10" points="955.543,364.023 986.075,364.023 986.075,386.165 
	955.543,382.041 "/>
<polygon fill="#FED497" stroke="#000000" stroke-miterlimit="10" points="997.864,364.023 1028.932,364.023 1028.932,386.165 
	997.864,382.041 "/>
<polygon fill="#FED497" stroke="#000000" stroke-miterlimit="10" points="1028.932,364.023 1060.538,364.023 1060.538,382.041 
	1028.932,386.165 "/>
<polygon fill="#FED497" stroke="#000000" stroke-miterlimit="10" points="1060.538,364.023 1092.143,364.023 1092.143,386.165 
	1060.538,382.041 "/>
<polygon fill="#FED497" stroke="#000000" stroke-miterlimit="10" points="758.411,416.484 790.016,416.484 790.016,393.167 
	758.411,399.262 "/>
<polygon fill="#FED497" stroke="#000000" stroke-miterlimit="10" points="790.016,393.167 818.944,402.176 818.944,416.484 
	790.016,416.484 "/>
<polygon fill="#FED497" stroke="#000000" stroke-miterlimit="10" points="818.944,402.176 850.549,393.167 850.549,416.484 
	818.944,416.484 "/>
<polygon fill="#FED497" stroke="#000000" stroke-miterlimit="10" points="862.333,401.644 893.403,393.167 893.403,416.484 
	862.333,416.484 "/>
<polygon fill="#FED497" stroke="#000000" stroke-miterlimit="10" points="893.403,393.167 924.733,402.176 924.733,416.484 
	893.403,416.484 "/>
<polygon fill="#FED497" stroke="#000000" stroke-miterlimit="10" points="924.733,402.176 955.543,396.877 955.543,416.484 
	924.733,416.484 "/>
<polygon fill="#FED497" stroke="#000000" stroke-miterlimit="10" points="955.543,396.877 986.075,401.117 986.075,416.484 
	955.543,416.484 "/>
<polygon fill="#FED497" stroke="#000000" stroke-miterlimit="10" points="997.864,396.877 1028.932,404.826 1028.932,416.484 
	997.864,416.484 "/>
<polygon fill="#FED497" stroke="#000000" stroke-miterlimit="10" points="1028.932,404.826 1060.538,393.167 1060.538,416.484 
	1028.932,416.484 "/>
<polygon fill="#FED497" stroke="#000000" stroke-miterlimit="10" points="1060.538,393.167 1092.143,401.644 1092.143,416.484 
	1060.538,416.484 "/>
<rect x="685.557" y="416.484" fill="#C1DC9F" stroke="#000000" stroke-miterlimit="10" width="55.711" height="67.298"/>
<path fill="#BCBEC0" stroke="#000000" stroke-miterlimit="10" d="M702.347,382.041c0-3.263-0.949-15.235-16.79-15.235v15.235l0,0
	H702.347z"/>
<path fill="#BCBEC0" stroke="#000000" stroke-miterlimit="10" d="M685.557,365.943c3.628,0,16.942-0.885,16.942-15.697h-16.942l0,0
	V365.943z"/>
<line fill="none" stroke="#000000" stroke-miterlimit="10" x1="730.933" y1="300.965" x2="707.954" y2="300.965"/>
<line fill="none" stroke="#000000" stroke-miterlimit="10" x1="730.933" y1="300.965" x2="760.759" y2="300.965"/>
<line fill="none" stroke="#000000" stroke-miterlimit="10" x1="760.759" y1="300.965" x2="930.008" y2="300.965"/>
<path fill="#BCBEC0" stroke="#000000" stroke-miterlimit="10" d="M1144.991,382.041c0-3.263,0.953-15.235,16.791-15.235v15.235l0,0
	H1144.991z"/>
<path fill="#BCBEC0" stroke="#000000" stroke-miterlimit="10" d="M1161.782,365.943c-3.629,0-16.941-0.885-16.941-15.697h16.941l0,0
	V365.943z"/>
<polygon fill="#FED497" stroke="#000000" stroke-miterlimit="10" points="818.944,364.023 850.549,364.023 850.549,375.093 
	818.944,386.165 "/>
<path fill="#A7A9AC" stroke="#000000" stroke-miterlimit="10" d="M1204.383,252.187c0,7.145-5.738,12.937-12.818,12.937
	c-7.076,0-12.818-5.792-12.818-12.937s5.742-12.936,12.818-12.936C1198.645,239.251,1204.383,245.042,1204.383,252.187z"/>
<rect x="1023.077" y="49.999" fill="#83C8DE" stroke="#000000" stroke-miterlimit="10" width="111.635" height="49.828"/>
<polyline fill="#83C8DE" stroke="#000000" stroke-miterlimit="10" points="1134.711,49.999 1188.854,49.999 1188.854,99.827 
	1134.711,99.827 "/>
<polyline fill="#83C8DE" stroke="#000000" stroke-miterlimit="10" points="1188.854,49.999 1243.473,49.999 1243.473,99.827 
	1188.854,99.827 "/>
<polyline fill="#83C8DE" stroke="#000000" stroke-miterlimit="10" points="1243.473,49.999 1280.366,49.999 1280.366,99.827 
	1243.473,99.827 "/>
<polyline fill="#83C8DE" stroke="#000000" stroke-miterlimit="10" points="1280.366,49.999 1316.299,49.999 1316.299,99.827 
	1280.366,99.827 "/>
<polyline fill="#83C8DE" stroke="#000000" stroke-miterlimit="10" points="1316.299,49.999 1353.19,49.999 1353.19,99.827 
	1316.299,99.827 "/>
<polyline fill="#83C8DE" stroke="#000000" stroke-miterlimit="10" points="1353.19,49.999 1389.125,49.999 1389.125,99.827 
	1353.19,99.827 "/>
<polyline fill="#83C8DE" stroke="#000000" stroke-miterlimit="10" points="1389.125,49.999 1426.02,49.999 1426.02,99.827 
	1389.125,99.827 "/>
<polyline fill="#83C8DE" stroke="#000000" stroke-miterlimit="10" points="1426.02,49.999 1461.473,49.999 1461.473,99.827 
	1426.02,99.827 "/>
<polyline fill="#83C8DE" stroke="#000000" stroke-miterlimit="10" points="1461.473,49.999 1498.366,49.999 1498.366,99.827 
	1461.473,99.827 "/>
<polyline fill="#83C8DE" stroke="#000000" stroke-miterlimit="10" points="1498.366,49.999 1535.737,49.999 1535.737,99.827 
	1498.366,99.827 "/>
<polyline fill="#83C8DE" stroke="#000000" stroke-miterlimit="10" points="1535.737,49.999 1573.588,49.999 1573.588,99.827 
	1535.737,99.827 "/>
<rect x="1428.415" y="169.092" fill="#83C8DE" stroke="#000000" stroke-miterlimit="10" width="33.059" height="46.495"/>
<polyline fill="#83C8DE" stroke="#000000" stroke-miterlimit="10" points="1428.415,169.092 1392.479,169.092 1392.479,215.587 
	1428.415,215.587 "/>
<polyline fill="#83C8DE" stroke="#000000" stroke-miterlimit="10" points="1392.479,169.092 1353.19,169.092 1353.19,215.587 
	1392.479,215.587 "/>
<polyline fill="#83C8DE" stroke="#000000" stroke-miterlimit="10" points="1353.19,169.092 1318.694,169.092 1318.694,215.587 
	1353.19,215.587 "/>
<polyline fill="#C1DC9F" stroke="#000000" stroke-miterlimit="10" points="1318.694,169.092 1241.077,169.092 1241.077,215.587 
	1318.694,215.587 "/>
<rect x="1023.077" y="215.651" fill="#83C8DE" stroke="#000000" stroke-miterlimit="10" width="57.494" height="85.28"/>
<polygon fill="#FED497" stroke="#000000" stroke-miterlimit="10" points="1023.077,113.243 1053.022,113.243 1053.022,126.658 
	1023.077,133.366 "/>
<polygon fill="#FED497" stroke="#000000" stroke-miterlimit="10" points="1053.022,113.243 1080.571,113.243 1080.571,133.366 
	1053.022,126.658 "/>
<polygon fill="#FED497" stroke="#000000" stroke-miterlimit="10" points="1080.571,113.243 1109.797,113.243 1109.797,125.699 
	1080.571,133.366 "/>
<polygon fill="#FED497" stroke="#000000" stroke-miterlimit="10" points="1023.077,143.536 1053.022,138.157 1053.022,156.364 
	1023.077,156.364 "/>
<polygon fill="#FED497" stroke="#000000" stroke-miterlimit="10" points="1053.022,138.157 1080.571,144.777 1080.571,156.364 
	1053.022,156.364 "/>
<polygon fill="#FED497" stroke="#000000" stroke-miterlimit="10" points="1080.571,144.777 1109.797,138.157 1109.797,156.364 
	1080.571,156.364 "/>
<polygon fill="#FED497" stroke="#000000" stroke-miterlimit="10" points="1153.397,113.243 1183.104,113.243 1183.104,133.366 
	1153.397,123.304 "/>
<polygon fill="#FED497" stroke="#000000" stroke-miterlimit="10" points="1153.397,135.76 1183.104,146.061 1183.104,156.364 
	1153.397,156.364 "/>
<polygon fill="#FED497" stroke="#000000" stroke-miterlimit="10" points="1197.477,113.243 1226.702,113.243 1226.702,133.366 
	1197.477,123.304 "/>
<polygon fill="#FED497" stroke="#000000" stroke-miterlimit="10" points="1197.477,136.719 1226.702,144.384 1226.702,156.364 
	1197.477,156.364 "/>
<polygon fill="#FED497" stroke="#000000" stroke-miterlimit="10" points="1226.702,133.366 1255.93,123.304 1255.93,113.243 
	1226.702,113.243 "/>
<polygon fill="#FED497" stroke="#000000" stroke-miterlimit="10" points="1226.702,144.384 1255.93,136.719 1255.93,156.364 
	1226.702,156.364 "/>
<polygon fill="#FED497" stroke="#000000" stroke-miterlimit="10" points="1255.93,113.243 1286.594,113.243 1286.594,133.366 
	1255.93,123.304 "/>
<polygon fill="#FED497" stroke="#000000" stroke-miterlimit="10" points="1255.93,136.719 1286.594,142.948 1286.594,156.364 
	1255.93,156.364 "/>
<path fill="#FED497" stroke="#000000" stroke-miterlimit="10" d="M1307.674,113.243"/>
<path fill="#FED497" stroke="#000000" stroke-miterlimit="10" d="M1307.674,113.243"/>
<polygon fill="#FED497" stroke="#000000" stroke-miterlimit="10" points="1358.94,113.243 1384.813,113.243 1384.813,147.259 
	1358.94,156.364 "/>
<polygon fill="#FED497" stroke="#000000" stroke-miterlimit="10" points="1307.674,113.242 1333.547,113.242 1333.547,147.258 
	1307.674,156.363 "/>
<polygon fill="#FED497" stroke="#000000" stroke-miterlimit="10" points="1410.446,113.24 1436.319,113.24 1436.319,147.256 
	1410.446,156.361 "/>
<rect x="1080.571" y="215.651" fill="#F284AF" stroke="#000000" stroke-miterlimit="10" width="81.211" height="85.28"/>
<rect x="1531.426" y="139.713" fill="#C1DC9F" stroke="#000000" stroke-miterlimit="10" width="42.162" height="29.468"/>
<rect x="1492.618" y="139.713" fill="#C1DC9F" stroke="#000000" stroke-miterlimit="10" width="38.809" height="29.468"/>
<path fill="#BCBEC0" stroke="#000000" stroke-miterlimit="10" d="M1176.844,201.327c3.459,0,16.15,0.807,16.15,14.261h-16.15l0,0
	V201.327z"/>
<path fill="#BCBEC0" stroke="#000000" stroke-miterlimit="10" d="M1193.909,215.651c0-3.081,0.941-14.388,16.646-14.388v14.388l0,0
	H1193.909z"/>
<line fill="none" stroke="#000000" stroke-miterlimit="10" x1="1241.077" y1="215.708" x2="1134.711" y2="215.708"/>
<polygon fill="#FED497" stroke="#000000" stroke-miterlimit="10" points="1057.573,184.455 1057.573,215.108 1080.571,215.196 
	1069.073,184.455 "/>
<polygon fill="#FED497" stroke="#000000" stroke-miterlimit="10" points="1023.077,215.196 1023.077,184.455 1035.653,184.455 
	1044.637,215.108 "/>
<line fill="none" stroke="#000000" stroke-miterlimit="10" x1="1023.077" y1="99.827" x2="1046.057" y2="99.827"/>
<line fill="none" stroke="#000000" stroke-miterlimit="10" x1="1134.711" y1="215.708" x2="1241.077" y2="215.708"/>
<line fill="none" stroke="#000000" stroke-miterlimit="10" x1="1573.588" y1="99.827" x2="1573.588" y2="146.062"/>
<line fill="none" stroke="#000000" stroke-miterlimit="10" x1="1492.618" y1="169.179" x2="1461.473" y2="169.179"/>
<rect x="1468.243" y="169.181" fill="#BCBEC0" stroke="#000000" stroke-miterlimit="10" width="17.607" height="38.809"/>
<polyline fill="#BCBEC0" stroke="#000000" stroke-miterlimit="10" points="1485.85,203.138 1468.243,203.138 1468.243,198.467 
	1485.85,198.467 1485.85,193.795 1468.243,193.795 1468.243,188.585 1485.85,188.585 1485.85,183.734 1468.243,183.734 
	1468.243,179.063 1485.85,179.063 1485.85,174.032 1468.243,174.032 "/>
<line fill="none" stroke="#000000" stroke-miterlimit="10" x1="1468.243" y1="174.032" x2="1468.243" y2="207.99"/>
<line fill="none" stroke="#000000" stroke-miterlimit="10" x1="1485.85" y1="173.371" x2="1485.85" y2="203.138"/>
<polyline fill="#FED497" stroke="#000000" stroke-miterlimit="10" points="1384.813,113.243 1410.446,113.24 1410.446,156.361 
	1384.813,147.259 "/>
<polyline fill="#FED497" stroke="#000000" stroke-miterlimit="10" points="1333.547,113.242 1358.94,113.243 1358.94,156.364 
	1333.547,147.258 "/>
<polyline fill="#FED497" stroke="#000000" stroke-miterlimit="10" points="1436.319,113.24 1462.44,113.24 1462.383,156.361 
	1436.319,147.256 "/>
<rect x="1219.282" y="244.522" fill="#BCBEC0" stroke="#000000" stroke-miterlimit="10" width="38.811" height="17.607"/>
<polyline fill="#BCBEC0" stroke="#000000" stroke-miterlimit="10" points="1224.133,262.129 1224.133,244.522 1228.805,244.522 
	1228.805,262.129 1233.477,262.129 1233.477,244.522 1238.686,244.522 1238.686,262.129 1243.538,262.129 1243.538,244.522 
	1248.209,244.522 1248.209,262.129 1253.241,262.129 1253.241,244.522 "/>
<line fill="none" stroke="#000000" stroke-miterlimit="10" x1="1224.133" y1="262.129" x2="1228.805" y2="262.129"/>
<line fill="none" stroke="#000000" stroke-miterlimit="10" x1="1253.241" y1="244.522" x2="1248.209" y2="244.522"/>
<line fill="none" stroke="#000000" stroke-miterlimit="10" x1="1219.282" y1="215.587" x2="1219.282" y2="298.955"/>
<text transform="matrix(1 0 0 1 1188.1343 257.937)" font-family="'CenturyGothic'" font-size="17.2484">L</text>
<rect x="163.074" y="49.999" fill="#83C8DE" stroke="#000000" stroke-miterlimit="10" width="36.893" height="49.273"/>
<polyline fill="#83C8DE" stroke="#000000" stroke-miterlimit="10" points="199.967,49.999 236.859,49.999 236.859,99.272 
	199.967,99.272 "/>
<polyline fill="#83C8DE" stroke="#000000" stroke-miterlimit="10" points="236.859,49.999 272.793,49.999 272.793,99.272 
	236.859,99.272 "/>
<polyline fill="#83C8DE" stroke="#000000" stroke-miterlimit="10" points="272.793,49.999 309.686,49.999 309.686,99.272 
	272.793,99.272 "/>
<polyline fill="#83C8DE" stroke="#000000" stroke-miterlimit="10" points="309.686,49.999 345.62,49.999 345.62,99.272 
	309.686,99.272 "/>
<polyline fill="#83C8DE" stroke="#000000" stroke-miterlimit="10" points="345.62,49.999 382.991,49.999 382.991,99.272 
	345.62,99.272 "/>
<polyline fill="#83C8DE" stroke="#000000" stroke-miterlimit="10" points="382.991,49.999 418.926,49.999 418.926,99.272 
	382.991,99.272 "/>
<polyline fill="#83C8DE" stroke="#000000" stroke-miterlimit="10" points="418.926,49.999 456.297,49.999 456.297,99.272 
	418.926,99.272 "/>
<polyline fill="#83C8DE" stroke="#000000" stroke-miterlimit="10" points="456.297,49.999 492.711,49.999 492.711,99.272 
	456.297,99.272 "/>
<polyline fill="#83C8DE" stroke="#000000" stroke-miterlimit="10" points="492.711,49.999 529.124,49.999 529.124,99.272 
	492.711,99.272 "/>
<polyline fill="#83C8DE" stroke="#000000" stroke-miterlimit="10" points="529.124,49.999 566.017,49.999 566.017,99.272 
	529.124,99.272 "/>
<polyline fill="#83C8DE" stroke="#000000" stroke-miterlimit="10" points="566.017,49.999 602.909,49.999 602.909,99.272 
	566.017,99.272 "/>
<polyline fill="#83C8DE" stroke="#000000" stroke-miterlimit="10" points="602.909,49.999 638.844,49.999 638.844,99.272 
	602.909,99.272 "/>
<polyline fill="#83C8DE" stroke="#000000" stroke-miterlimit="10" points="638.844,49.999 675.256,49.999 675.256,99.272 
	638.844,99.272 "/>
<polyline fill="#83C8DE" stroke="#000000" stroke-miterlimit="10" points="675.256,49.999 712.628,49.999 712.628,99.272 
	675.256,99.272 "/>
<polyline fill="#83C8DE" stroke="#000000" stroke-miterlimit="10" points="712.628,49.999 826.18,49.999 826.18,99.272 
	712.628,99.272 "/>
<polyline fill="#83C8DE" stroke="#000000" stroke-miterlimit="10" points="826.18,49.999 868.342,49.999 868.342,99.272 
	826.18,99.272 "/>
<rect x="986.182" y="49.999" fill="#83C8DE" stroke="#000000" stroke-miterlimit="10" width="36.895" height="49.828"/>
<rect x="769.404" y="166.846" fill="#83C8DE" stroke="#000000" stroke-miterlimit="10" width="37.132" height="48.805"/>
<polyline fill="#83C8DE" stroke="#000000" stroke-miterlimit="10" points="806.536,166.846 844.387,166.846 844.387,215.651 
	806.536,215.651 "/>
<polyline fill="#83C8DE" stroke="#000000" stroke-miterlimit="10" points="844.387,166.846 881.278,166.846 881.278,215.651 
	844.387,215.651 "/>
<polyline fill="#83C8DE" stroke="#000000" stroke-miterlimit="10" points="881.278,166.846 919.608,166.846 919.608,215.651 
	881.278,215.651 "/>
<polyline fill="#83C8DE" stroke="#000000" stroke-miterlimit="10" points="919.608,166.846 957.459,166.846 957.459,215.651 
	919.608,215.651 "/>
<polyline fill="#83C8DE" stroke="#000000" stroke-miterlimit="10" points="957.459,166.846 993.874,166.846 993.874,215.651 
	957.459,215.651 "/>
<rect x="199.967" y="167.315" fill="#83C8DE" stroke="#000000" stroke-miterlimit="10" width="36.892" height="48.336"/>
<polyline fill="#83C8DE" stroke="#000000" stroke-miterlimit="10" points="236.859,167.315 272.793,167.315 272.793,215.651 
	236.859,215.651 "/>
<polyline fill="#83C8DE" stroke="#000000" stroke-miterlimit="10" points="272.793,167.315 309.686,167.315 309.686,215.651 
	272.793,215.651 "/>
<polyline fill="#83C8DE" stroke="#000000" stroke-miterlimit="10" points="309.686,167.315 345.62,167.315 345.62,215.651 
	309.686,215.651 "/>
<polyline fill="#83C8DE" stroke="#000000" stroke-miterlimit="10" points="345.62,167.315 382.991,167.315 382.991,215.651 
	345.62,215.651 "/>
<polyline fill="#83C8DE" stroke="#000000" stroke-miterlimit="10" points="382.991,167.315 418.926,167.315 418.926,215.651 
	382.991,215.651 "/>
<polyline fill="#83C8DE" stroke="#000000" stroke-miterlimit="10" points="418.926,167.315 456.297,167.315 456.297,215.651 
	418.926,215.651 "/>
<polyline fill="#83C8DE" stroke="#000000" stroke-miterlimit="10" points="456.297,167.315 492.711,167.315 492.711,215.651 
	456.297,215.651 "/>
<polyline fill="#83C8DE" stroke="#000000" stroke-miterlimit="10" points="492.711,167.315 529.124,167.315 529.124,215.651 
	492.711,215.651 "/>
<rect x="529.124" y="167.315" fill="#C1DC9F" stroke="#000000" stroke-miterlimit="10" width="78.098" height="48.336"/>
<rect x="106.059" y="49.999" fill="#C1DC9F" stroke="#000000" stroke-miterlimit="10" width="57.016" height="83.53"/>
<rect x="50.959" y="49.999" fill="#C1DC9F" stroke="#000000" stroke-miterlimit="10" width="55.099" height="66.167"/>
<path fill="#F284AF" stroke="#000000" stroke-miterlimit="10" d="M106.059,133.529"/>
<polygon fill="#FED497" stroke="#000000" stroke-miterlimit="10" points="187.989,113.818 214.819,113.818 214.819,136.344 
	187.989,143.853 "/>
<polyline fill="#FED497" stroke="#000000" stroke-miterlimit="10" points="214.819,113.818 240.692,113.818 240.692,143.853 
	214.819,136.344 "/>
<polygon fill="#FED497" stroke="#000000" stroke-miterlimit="10" points="240.692,113.818 267.044,113.818 267.044,135.875 
	240.692,143.853 "/>
<polyline fill="#FED497" stroke="#000000" stroke-miterlimit="10" points="267.044,135.875 293.396,143.853 293.396,113.818 
	267.044,113.818 "/>
<polygon fill="#FED497" stroke="#000000" stroke-miterlimit="10" points="293.396,113.818 318.789,113.818 318.789,136.813 
	293.396,143.853 "/>
<polyline fill="#FED497" stroke="#000000" stroke-miterlimit="10" points="318.789,113.818 345.62,113.818 345.62,143.853 
	318.789,136.813 "/>
<polygon fill="#FED497" stroke="#000000" stroke-miterlimit="10" points="345.62,113.818 370.534,113.818 370.534,136.813 
	345.62,143.853 "/>
<polyline fill="#FED497" stroke="#000000" stroke-miterlimit="10" points="370.534,113.818 397.365,113.818 397.365,143.853 
	370.534,136.813 "/>
<polygon fill="#FED497" stroke="#000000" stroke-miterlimit="10" points="397.365,113.818 423.238,113.818 423.238,138.221 
	397.365,143.853 "/>
<polyline fill="#FED497" stroke="#000000" stroke-miterlimit="10" points="423.238,113.818 449.59,113.818 449.59,143.853 
	423.238,138.221 "/>
<polygon fill="#FED497" stroke="#000000" stroke-miterlimit="10" points="463.963,113.818 489.356,113.818 489.356,137.751 
	463.963,143.853 "/>
<polyline fill="#FED497" stroke="#000000" stroke-miterlimit="10" points="489.356,113.818 515.708,113.818 515.708,143.853 
	489.356,137.751 "/>
<polygon fill="#FED497" stroke="#000000" stroke-miterlimit="10" points="515.708,113.818 542.54,113.818 542.54,138.69 
	515.708,143.853 "/>
<polyline fill="#FED497" stroke="#000000" stroke-miterlimit="10" points="542.54,113.818 568.172,113.818 568.172,143.853 
	542.54,138.69 "/>
<polygon fill="#FED497" stroke="#000000" stroke-miterlimit="10" points="568.172,113.818 594.285,113.818 594.285,136.344 
	568.172,143.853 "/>
<polyline fill="#FED497" stroke="#000000" stroke-miterlimit="10" points="594.285,113.818 620.876,113.818 620.876,143.853 
	594.285,136.344 "/>
<polygon fill="#FED497" stroke="#000000" stroke-miterlimit="10" points="620.876,113.818 646.03,113.818 646.03,135.875 
	620.876,143.853 "/>
<polyline fill="#FED497" stroke="#000000" stroke-miterlimit="10" points="646.03,113.818 672.86,113.818 672.86,143.853 
	646.03,135.875 "/>
<polyline fill="#FED497" stroke="#000000" stroke-miterlimit="10" points="672.86,113.818 698.254,113.818 698.254,138.221 
	672.86,143.853 "/>
<polygon fill="#FED497" stroke="#000000" stroke-miterlimit="10" points="739.459,113.818 769.404,113.818 769.404,126.02 
	739.459,132.591 "/>
<polygon fill="#FED497" stroke="#000000" stroke-miterlimit="10" points="769.404,135.407 769.404,154.177 739.459,154.177 
	739.459,143.853 "/>
<polygon fill="#FED497" stroke="#000000" stroke-miterlimit="10" points="769.404,113.818 799.829,113.818 799.829,132.591 
	769.404,126.02 "/>
<polygon fill="#FED497" stroke="#000000" stroke-miterlimit="10" points="769.404,135.407 799.829,144.791 799.829,154.177 
	769.404,154.177 "/>
<polygon fill="#FED497" stroke="#000000" stroke-miterlimit="10" points="799.829,113.818 829.534,113.818 829.534,126.49 
	799.829,132.591 "/>
<polygon fill="#FED497" stroke="#000000" stroke-miterlimit="10" points="799.829,144.791 829.534,135.407 829.534,154.177 
	799.829,154.177 "/>
<polygon fill="#FED497" stroke="#000000" stroke-miterlimit="10" points="844.387,143.853 844.387,154.177 873.135,154.177 
	873.135,133.999 "/>
<polygon fill="#FED497" stroke="#000000" stroke-miterlimit="10" points="844.387,113.818 873.135,113.818 873.135,125.551 
	844.387,132.591 "/>
<polygon fill="#FED497" stroke="#000000" stroke-miterlimit="10" points="873.135,133.999 903.319,143.853 903.319,154.177 
	873.135,154.177 "/>
<polygon fill="#FED497" stroke="#000000" stroke-miterlimit="10" points="873.135,113.818 903.319,113.818 903.319,132.591 
	873.135,125.551 "/>
<polygon fill="#FED497" stroke="#000000" stroke-miterlimit="10" points="934.942,113.818 965.125,113.818 965.125,133.061 
	934.942,123.441 "/>
<polygon fill="#FED497" stroke="#000000" stroke-miterlimit="10" points="934.942,133.999 965.125,143.853 965.125,154.177 
	934.942,154.177 "/>
<polygon fill="#FED497" stroke="#000000" stroke-miterlimit="10" points="965.125,113.818 993.874,113.818 993.874,123.441 
	965.125,133.061 "/>
<polygon fill="#FED497" stroke="#000000" stroke-miterlimit="10" points="965.125,143.853 993.874,135.407 993.874,154.177 
	965.125,154.177 "/>
<rect x="106.059" y="133.529" fill="#F284AF" stroke="#000000" stroke-miterlimit="10" width="57.016" height="29.096"/>
<rect x="106.059" y="162.625" fill="#F284AF" stroke="#000000" stroke-miterlimit="10" width="57.016" height="28.859"/>
<line fill="none" stroke="#000000" stroke-miterlimit="10" x1="163.074" y1="191.484" x2="163.074" y2="215.651"/>
<line fill="none" stroke="#000000" stroke-miterlimit="10" x1="163.074" y1="215.651" x2="199.967" y2="215.651"/>
<path fill="#BCBEC0" stroke="#000000" stroke-miterlimit="10" d="M636.953,201.683c3.459,0,16.152,0.791,16.152,13.968h-16.152l0,0
	V201.683z"/>
<path fill="#BCBEC0" stroke="#000000" stroke-miterlimit="10" d="M654.019,215.651c0-3.02,0.94-14.092,16.645-14.092v14.092l0,0
	H654.019z"/>
<line fill="none" stroke="#000000" stroke-miterlimit="10" x1="88.811" y1="116.166" x2="88.811" y2="215.651"/>
<line fill="none" stroke="#000000" stroke-miterlimit="10" x1="199.249" y1="215.651" x2="88.092" y2="215.651"/>
<path fill="none" stroke="#000000" stroke-miterlimit="10" d="M85.456,210.49"/>
<path fill="none" stroke="#000000" stroke-miterlimit="10" d="M84.498,191.484"/>
<rect x="50.001" y="189.783" fill="#BCBEC0" stroke="#000000" stroke-miterlimit="10" width="38.809" height="17.245"/>
<polyline fill="#BCBEC0" stroke="#000000" stroke-miterlimit="10" points="54.852,207.028 54.852,189.783 59.523,189.783 
	59.523,207.028 64.195,207.028 64.195,189.783 69.406,189.783 69.406,207.028 74.256,207.028 74.256,189.783 78.928,189.783 
	78.928,207.028 83.958,207.028 83.958,189.783 "/>
<line fill="none" stroke="#000000" stroke-miterlimit="10" x1="83.958" y1="189.783" x2="54.852" y2="189.783"/>
<line fill="none" stroke="#000000" stroke-miterlimit="10" x1="83.958" y1="207.028" x2="54.852" y2="207.028"/>
<rect x="590.452" y="234.364" fill="#BCBEC0" stroke="#000000" stroke-miterlimit="10" width="38.809" height="17.245"/>
<polyline fill="#BCBEC0" stroke="#000000" stroke-miterlimit="10" points="595.303,251.609 595.303,234.364 599.974,234.364 
	599.974,251.609 604.646,251.609 604.646,234.364 609.856,234.364 609.856,251.609 614.707,251.609 614.707,234.364 
	619.379,234.364 619.379,251.609 624.41,251.609 624.41,234.364 "/>
<line fill="none" stroke="#000000" stroke-miterlimit="10" x1="595.303" y1="251.609" x2="599.974" y2="251.609"/>
<line fill="none" stroke="#000000" stroke-miterlimit="10" x1="624.41" y1="234.364" x2="619.379" y2="234.364"/>
<line fill="none" stroke="#000000" stroke-miterlimit="10" x1="629.261" y1="215.651" x2="629.261" y2="301.058"/>
<rect x="685.557" y="215.651" fill="#F284AF" stroke="#000000" stroke-miterlimit="10" width="83.847" height="85.407"/>
<line fill="none" stroke="#000000" stroke-miterlimit="10" x1="607.222" y1="215.651" x2="685.557" y2="215.651"/>
<rect x="580.73" y="256.416" fill="#A7A9AC" stroke="#000000" stroke-miterlimit="10" width="48.192" height="42.053"/>
<g>
	<path stroke="#000000" stroke-miterlimit="10" d="M598.82,260.4"/>
	<line stroke="#000000" stroke-miterlimit="10" x1="598.82" y1="260.4" x2="598.82" y2="271.896"/>
	<line stroke="#000000" stroke-miterlimit="10" x1="599.126" y1="259.989" x2="594.831" y2="265.765"/>
	<line stroke="#000000" stroke-miterlimit="10" x1="602.981" y1="265.765" x2="598.502" y2="259.989"/>
	<line stroke="#000000" stroke-miterlimit="10" x1="609.984" y1="271.689" x2="609.984" y2="260.193"/>
	<line stroke="#000000" stroke-miterlimit="10" x1="610.29" y1="272.1" x2="605.995" y2="266.324"/>
	<line stroke="#000000" stroke-miterlimit="10" x1="614.145" y1="266.324" x2="609.665" y2="272.1"/>
	<line stroke="#000000" stroke-miterlimit="10" x1="594.831" y1="275.418" x2="614.145" y2="275.418"/>
	<line stroke="#000000" stroke-miterlimit="10" x1="614.145" y1="274.715" x2="614.145" y2="294.893"/>
	<line stroke="#000000" stroke-miterlimit="10" x1="614.145" y1="294.19" x2="594.831" y2="294.19"/>
	<line stroke="#000000" stroke-miterlimit="10" x1="594.831" y1="294.893" x2="594.831" y2="274.715"/>
	<g>
		<ellipse stroke="#000000" stroke-miterlimit="10" cx="599.053" cy="279.228" rx="0.386" ry="0.379"/>
		<rect x="597.066" y="280.895" stroke="#000000" stroke-width="0.5" stroke-miterlimit="10" width="3.975" height="4.798"/>
		<rect x="597.639" y="285.693" width="1.029" height="6.149"/>
		<rect x="599.439" y="285.693" width="1.029" height="6.149"/>
	</g>
	<ellipse stroke="#000000" stroke-miterlimit="10" cx="604.444" cy="279.228" rx="0.386" ry="0.379"/>
	<rect x="602.456" y="280.895" stroke="#000000" stroke-width="0.5" stroke-miterlimit="10" width="3.975" height="4.798"/>
	<rect x="603.029" y="285.693" width="1.029" height="6.149"/>
	<rect x="604.83" y="285.693" width="1.029" height="6.149"/>
	<ellipse stroke="#000000" stroke-miterlimit="10" cx="609.924" cy="279.228" rx="0.386" ry="0.379"/>
	<rect x="607.936" y="280.895" stroke="#000000" stroke-width="0.5" stroke-miterlimit="10" width="3.975" height="4.798"/>
	<rect x="608.509" y="285.693" width="1.029" height="6.149"/>
	<rect x="610.31" y="285.693" width="1.029" height="6.149"/>
</g>
<line fill="none" stroke="#000000" stroke-miterlimit="10" x1="993.874" y1="216.058" x2="993.874" y2="301.058"/>
<rect x="955.065" y="251.367" fill="#BCBEC0" stroke="#000000" stroke-miterlimit="10" width="38.809" height="17.245"/>
<polyline fill="#BCBEC0" stroke="#000000" stroke-miterlimit="10" points="959.915,268.612 959.915,251.367 964.586,251.367 
	964.586,268.612 969.258,268.612 969.258,251.367 974.469,251.367 974.469,268.612 979.321,268.612 979.321,251.367 
	983.993,251.367 983.993,268.612 989.022,268.612 989.022,251.367 "/>
<line fill="none" stroke="#000000" stroke-miterlimit="10" x1="989.022" y1="251.367" x2="986.684" y2="251.367"/>
<line fill="none" stroke="#000000" stroke-miterlimit="10" x1="958.415" y1="268.612" x2="961.53" y2="268.612"/>
<line fill="none" stroke="#000000" stroke-miterlimit="10" x1="868.342" y1="49.999" x2="986.182" y2="49.999"/>
<path fill="#BCBEC0" stroke="#000000" stroke-miterlimit="10" d="M994.399,206.468c2.941,0,13.74,0.498,13.74,8.797h-13.74l0,0
	V206.468z"/>
<path fill="#BCBEC0" stroke="#000000" stroke-miterlimit="10" d="M1008.917,215.265c0-1.902,0.799-8.876,14.16-8.876v8.876l0,0
	H1008.917z"/>
<line fill="none" stroke="#000000" stroke-miterlimit="10" x1="993.874" y1="350.246" x2="1023.04" y2="350.246"/>
<path fill="#BCBEC0" stroke="#000000" stroke-miterlimit="10" d="M994.579,341.449c2.941,0,13.74,0.498,13.74,8.797h-13.74l0,0
	V341.449z"/>
<path fill="#BCBEC0" stroke="#000000" stroke-miterlimit="10" d="M1009.096,350.246c0-1.902,0.799-8.875,14.16-8.875v8.875l0,0
	H1009.096z"/>
<ellipse fill="#A7A9AC" stroke="#000000" stroke-miterlimit="10" cx="659.445" cy="253.326" rx="12.818" ry="12.937"/>
<text transform="matrix(1 0 0 1 656.0142 259.0747)" font-family="'CenturyGothic'" font-size="17.2484">L</text>
</svg>
