<?xml version="1.0" encoding="utf-8"?>
<!-- Generator: Adobe Illustrator 16.0.0, SVG Export Plug-In . SVG Version: 6.00 Build 0)  -->
<!DOCTYPE svg PUBLIC "-//W3C//DTD SVG 1.1//EN" "http://www.w3.org/Graphics/SVG/1.1/DTD/svg11.dtd">
<svg version="1.1" id="Layer_1" xmlns="http://www.w3.org/2000/svg" xmlns:xlink="http://www.w3.org/1999/xlink" x="0px" y="0px"
	 width="1623.439px" height="536.75px" viewBox="0 0 1623.439 536.75" enable-background="new 0 0 1623.439 536.75"
	 xml:space="preserve">
<rect x="106.285" y="64.377" fill="#C1DC9F" stroke="#000000" stroke-miterlimit="10" width="56.287" height="68.714"/>
<rect x="106.285" y="133.091" fill="#F284AF" stroke="#000000" stroke-miterlimit="10" width="56.287" height="30.702"/>
<rect x="106.285" y="163.793" fill="#F284AF" stroke="#000000" stroke-miterlimit="10" width="56.287" height="30.702"/>
<rect x="162.572" y="64.377" fill="#83C8DE" stroke="#000000" stroke-miterlimit="10" width="37.281" height="48.246"/>
<rect x="199.853" y="170.372" fill="#83C8DE" stroke="#000000" stroke-miterlimit="10" width="37.281" height="49.708"/>
<polyline fill="#83C8DE" stroke="#000000" stroke-miterlimit="10" points="199.853,64.377 237.134,64.377 237.134,112.623 
	199.853,112.623 "/>
<polyline fill="#83C8DE" stroke="#000000" stroke-miterlimit="10" points="237.134,170.372 272.953,170.372 272.953,220.08 
	237.134,220.08 "/>
<polyline fill="#83C8DE" stroke="#000000" stroke-miterlimit="10" points="237.134,112.623 272.953,112.623 272.953,64.377 
	237.134,64.377 "/>
<polyline fill="#83C8DE" stroke="#000000" stroke-miterlimit="10" points="272.953,64.377 309.503,64.377 309.503,112.623 
	272.953,112.623 "/>
<polyline fill="#83C8DE" stroke="#000000" stroke-miterlimit="10" points="309.503,64.377 348.246,64.377 348.246,112.623 
	309.503,112.623 "/>
<polyline fill="#83C8DE" stroke="#000000" stroke-miterlimit="10" points="348.246,64.377 384.796,64.377 384.796,112.623 
	348.246,112.623 "/>
<polyline fill="#83C8DE" stroke="#000000" stroke-miterlimit="10" points="384.796,64.377 420.615,64.377 420.615,112.623 
	384.796,112.623 "/>
<polyline fill="#83C8DE" stroke="#000000" stroke-miterlimit="10" points="420.615,64.377 457.896,64.377 457.896,112.623 
	420.615,112.623 "/>
<polyline fill="#83C8DE" stroke="#000000" stroke-miterlimit="10" points="457.896,64.377 494.446,64.377 494.446,112.623 
	457.896,112.623 "/>
<polyline fill="#83C8DE" stroke="#000000" stroke-miterlimit="10" points="494.446,64.377 530.996,64.377 530.996,112.623 
	494.446,112.623 "/>
<polyline fill="#83C8DE" stroke="#000000" stroke-miterlimit="10" points="530.996,64.377 568.276,64.377 568.276,112.623 
	530.996,112.623 "/>
<polyline fill="#83C8DE" stroke="#000000" stroke-miterlimit="10" points="568.276,64.377 605.558,64.377 605.558,112.623 
	568.276,112.623 "/>
<polyline fill="#83C8DE" stroke="#000000" stroke-miterlimit="10" points="605.558,64.377 641.376,64.377 641.376,112.623 
	605.558,112.623 "/>
<polyline fill="#83C8DE" stroke="#000000" stroke-miterlimit="10" points="641.376,64.377 678.657,64.377 678.657,112.623 
	641.376,112.623 "/>
<polyline fill="#83C8DE" stroke="#000000" stroke-miterlimit="10" points="678.657,64.377 715.208,64.377 715.208,112.623 
	678.657,112.623 "/>
<polyline fill="#83C8DE" stroke="#000000" stroke-miterlimit="10" points="272.953,170.372 309.503,170.372 309.503,220.08 
	272.953,220.08 "/>
<polyline fill="#83C8DE" stroke="#000000" stroke-miterlimit="10" points="309.503,170.372 348.246,170.372 348.246,220.08 
	309.503,220.08 "/>
<polyline fill="#83C8DE" stroke="#000000" stroke-miterlimit="10" points="348.246,170.372 384.796,170.372 384.796,220.08 
	348.246,220.08 "/>
<polyline fill="#83C8DE" stroke="#000000" stroke-miterlimit="10" points="384.796,170.372 420.615,170.372 420.615,220.08 
	384.796,220.08 "/>
<polyline fill="#83C8DE" stroke="#000000" stroke-miterlimit="10" points="420.615,170.372 457.896,170.372 457.896,220.08 
	420.615,220.08 "/>
<polyline fill="#83C8DE" stroke="#000000" stroke-miterlimit="10" points="457.896,170.372 494.446,170.372 494.446,220.08 
	457.896,220.08 "/>
<polyline fill="#83C8DE" stroke="#000000" stroke-miterlimit="10" points="494.446,170.372 530.996,170.372 530.996,220.08 
	494.446,220.08 "/>
<rect x="530.996" y="170.372" fill="#C1DC9F" stroke="#000000" stroke-miterlimit="10" width="77.974" height="49.708"/>
<rect x="715.208" y="50" fill="#83C8DE" stroke="#000000" stroke-miterlimit="10" width="113.549" height="62.623"/>
<rect x="828.757" y="50" fill="#83C8DE" stroke="#000000" stroke-miterlimit="10" width="42.398" height="62.623"/>
<rect x="974.956" y="50" fill="#83C8DE" stroke="#000000" stroke-miterlimit="10" width="41.949" height="62.623"/>
<rect x="771.982" y="170.372" fill="#83C8DE" stroke="#000000" stroke-miterlimit="10" width="33.87" height="49.708"/>
<polyline fill="#83C8DE" stroke="#000000" stroke-miterlimit="10" points="805.853,170.372 843.864,170.372 843.864,220.08 
	805.853,220.08 "/>
<polyline fill="#83C8DE" stroke="#000000" stroke-miterlimit="10" points="843.864,170.372 884.312,170.372 884.312,220.08 
	843.864,220.08 "/>
<polyline fill="#83C8DE" stroke="#000000" stroke-miterlimit="10" points="884.312,170.372 921.351,170.372 921.351,220.08 
	884.312,220.08 "/>
<polyline fill="#83C8DE" stroke="#000000" stroke-miterlimit="10" points="921.351,170.372 959.849,170.372 959.849,220.08 
	921.351,220.08 "/>
<polyline fill="#83C8DE" stroke="#000000" stroke-miterlimit="10" points="959.849,170.372 998.837,170.372 998.837,220.08 
	959.849,220.08 "/>
<polygon fill="#FED497" stroke="#000000" stroke-miterlimit="10" points="184.503,126.999 210.332,126.999 210.332,148.442 
	184.503,156.727 "/>
<polyline fill="#FED497" stroke="#000000" stroke-miterlimit="10" points="210.332,126.999 237.134,126.999 237.134,156.727 
	210.332,148.442 "/>
<polygon fill="#FED497" stroke="#000000" stroke-miterlimit="10" points="237.134,126.999 262.964,126.999 262.964,148.442 
	237.134,156.727 "/>
<polyline fill="#FED497" stroke="#000000" stroke-miterlimit="10" points="262.964,126.999 288.305,126.999 288.305,156.727 
	262.964,148.442 "/>
<polygon fill="#FED497" stroke="#000000" stroke-miterlimit="10" points="288.305,126.999 315.108,126.999 315.108,148.442 
	288.305,156.727 "/>
<polyline fill="#FED497" stroke="#000000" stroke-miterlimit="10" points="315.108,126.999 341.912,126.999 341.912,156.727 
	315.108,148.442 "/>
<polygon fill="#FED497" stroke="#000000" stroke-miterlimit="10" points="341.912,126.999 368.228,126.999 368.228,148.442 
	341.912,156.727 "/>
<polyline fill="#FED497" stroke="#000000" stroke-miterlimit="10" points="368.228,126.999 395.031,126.999 395.031,156.727 
	368.228,148.442 "/>
<path fill="#FED497" stroke="#000000" stroke-miterlimit="10" d="M415.499,126.999"/>
<polygon fill="#FED497" stroke="#000000" stroke-miterlimit="10" points="395.031,126.999 415.499,126.999 405.265,156.727 
	395.031,156.727 "/>
<polygon fill="#FED497" stroke="#000000" stroke-miterlimit="10" points="415.499,156.727 436.941,156.727 436.941,126.999 
	426.22,126.999 "/>
<polygon fill="#FED497" stroke="#000000" stroke-miterlimit="10" points="460.82,126.999 483.238,126.999 483.238,156.727 
	472.029,156.727 "/>
<polygon fill="#FED497" stroke="#000000" stroke-miterlimit="10" points="483.238,126.999 503.706,126.999 494.446,156.727 
	483.238,156.727 "/>
<polyline fill="#FED497" stroke="#000000" stroke-miterlimit="10" points="503.706,158.189 525.636,158.189 525.636,126.999 
	514.671,126.999 503.706,156.727 "/>
<polygon fill="#FED497" stroke="#000000" stroke-miterlimit="10" points="525.636,158.189 546.104,158.189 535.87,126.999 
	525.636,126.999 "/>
<polygon fill="#FED497" stroke="#000000" stroke-miterlimit="10" points="546.104,126.999 566.572,126.999 566.572,158.189 
	556.338,158.189 "/>
<polygon fill="#FED497" stroke="#000000" stroke-miterlimit="10" points="566.572,126.999 586.429,126.999 576.5,158.189 
	566.572,158.189 "/>
<polygon fill="#FED497" stroke="#000000" stroke-miterlimit="10" points="588.989,158.189 608.97,158.189 608.97,126.999 
	598.979,126.999 "/>
<polygon fill="#FED497" stroke="#000000" stroke-miterlimit="10" points="654.292,170.372 654.292,150.879 623.467,160.626 
	623.467,170.372 "/>
<polygon fill="#FED497" stroke="#000000" stroke-miterlimit="10" points="623.467,126.999 623.467,148.442 654.292,137.72 
	654.292,126.999 "/>
<polygon fill="#FED497" stroke="#000000" stroke-miterlimit="10" points="684.507,126.999 684.507,148.442 654.292,137.72 
	654.292,126.999 "/>
<polygon fill="#FED497" stroke="#000000" stroke-miterlimit="10" points="654.292,150.879 684.507,160.626 684.507,170.372 
	654.292,170.372 "/>
<polygon fill="#FED497" stroke="#000000" stroke-miterlimit="10" points="684.507,126.999 715.208,126.999 715.208,137.72 
	684.507,148.442 "/>
<polygon fill="#FED497" stroke="#000000" stroke-miterlimit="10" points="684.507,160.626 715.208,150.879 715.208,170.372 
	684.507,170.372 "/>
<polygon fill="#FED497" stroke="#000000" stroke-miterlimit="10" points="746.884,126.999 746.884,156.727 767.353,156.727 
	757.119,126.999 "/>
<polygon fill="#FED497" stroke="#000000" stroke-miterlimit="10" points="767.353,126.999 788.918,126.999 788.918,156.727 
	778.136,156.727 "/>
<polygon fill="#FED497" stroke="#000000" stroke-miterlimit="10" points="788.918,126.999 809.75,126.999 799.335,156.727 
	788.918,156.727 "/>
<polygon fill="#FED497" stroke="#000000" stroke-miterlimit="10" points="809.75,156.727 828.757,156.727 828.757,126.999 
	819.253,126.999 "/>
<polygon fill="#FED497" stroke="#000000" stroke-miterlimit="10" points="849.956,156.727 828.757,156.727 828.757,126.999 
	839.356,126.999 "/>
<polygon fill="#FED497" stroke="#000000" stroke-miterlimit="10" points="851.661,126.999 871.155,126.999 871.155,156.727 
	861.407,156.727 "/>
<polygon fill="#FED497" stroke="#000000" stroke-miterlimit="10" points="893.085,126.999 871.155,126.999 871.155,156.727 
	882.12,156.727 "/>
<polygon fill="#FED497" stroke="#000000" stroke-miterlimit="10" points="893.085,156.727 914.04,156.727 914.04,126.999 
	902.831,126.999 "/>
<polygon fill="#FED497" stroke="#000000" stroke-miterlimit="10" points="934.509,156.727 914.04,156.727 914.04,126.999 
	924.274,126.999 "/>
<polygon fill="#FED497" stroke="#000000" stroke-miterlimit="10" points="934.509,126.999 955.95,126.999 955.95,156.727 
	945.229,156.727 "/>
<polygon fill="#FED497" stroke="#000000" stroke-miterlimit="10" points="977.394,126.999 955.95,126.999 955.95,156.727 
	966.671,156.727 "/>
<polygon fill="#FED497" stroke="#000000" stroke-miterlimit="10" points="977.394,156.727 998.837,156.727 998.837,126.999 
	988.116,126.999 "/>
<line fill="none" stroke="#000000" stroke-miterlimit="10" x1="162.572" y1="194.495" x2="162.572" y2="220.08"/>
<line fill="none" stroke="#000000" stroke-miterlimit="10" x1="162.572" y1="220.08" x2="199.853" y2="220.08"/>
<line fill="none" stroke="#000000" stroke-miterlimit="10" x1="998.837" y1="220.08" x2="1020.522" y2="220.08"/>
<line fill="none" stroke="#000000" stroke-miterlimit="10" x1="871.155" y1="50" x2="974.956" y2="50"/>
<line fill="none" stroke="#000000" stroke-miterlimit="10" x1="871.155" y1="50" x2="974.956" y2="50"/>
<rect x="49.999" y="64.377" fill="#C1DC9F" stroke="#000000" stroke-miterlimit="10" width="56.286" height="53.851"/>
<line fill="none" stroke="#000000" stroke-miterlimit="10" x1="89.473" y1="220.08" x2="199.853" y2="220.08"/>
<line fill="none" stroke="#000000" stroke-miterlimit="10" x1="89.473" y1="118.228" x2="89.473" y2="220.08"/>
<rect x="49.999" y="194.495" fill="#F284AF" stroke="#000000" stroke-miterlimit="10" width="39.474" height="17.909"/>
<polyline fill="#F284AF" stroke="#000000" stroke-miterlimit="10" points="54.933,212.404 54.933,194.495 59.684,194.495 
	59.684,212.404 64.436,212.404 64.436,194.495 69.736,194.495 69.736,212.404 74.669,212.404 74.669,194.495 79.421,194.495 
	79.421,212.404 84.538,212.404 84.538,194.495 "/>
<line fill="#F284AF" stroke="#000000" stroke-miterlimit="10" x1="54.933" y1="212.404" x2="59.684" y2="212.404"/>
<line fill="#F284AF" stroke="#000000" stroke-miterlimit="10" x1="84.538" y1="194.495" x2="79.421" y2="194.495"/>
<path fill="#BCBEC0" stroke="#000000" stroke-miterlimit="10" d="M637.147,205.509c3.518,0,16.429,0.822,16.429,14.506h-16.429l0,0
	V205.509z"/>
<path fill="#BCBEC0" stroke="#000000" stroke-miterlimit="10" d="M654.506,220.08c0-3.136,0.957-14.635,16.93-14.635v14.635l0,0
	H654.506z"/>
<line fill="none" stroke="#000000" stroke-miterlimit="10" x1="89.473" y1="220.08" x2="88.741" y2="220.08"/>
<line fill="none" stroke="#000000" stroke-miterlimit="10" x1="1016.905" y1="220.08" x2="1017.659" y2="220.08"/>
<polygon fill="#F284AF" stroke="#000000" stroke-miterlimit="10" points="690.354,220.015 771.982,220.08 771.982,307.507 
	690.354,307.507 "/>
<line fill="none" stroke="#000000" stroke-miterlimit="10" x1="608.97" y1="220.08" x2="690.354" y2="220.015"/>
<line fill="none" stroke="#000000" stroke-miterlimit="10" x1="632.604" y1="220.08" x2="632.97" y2="298.566"/>
<rect x="593.502" y="239.999" fill="#BCBEC0" stroke="#000000" stroke-miterlimit="10" width="39.474" height="17.91"/>
<polyline fill="#BCBEC0" stroke="#000000" stroke-miterlimit="10" points="598.437,257.909 598.437,239.999 603.188,239.999 
	603.188,257.909 607.939,257.909 607.939,239.999 613.239,239.999 613.239,257.909 618.174,257.909 618.174,239.999 
	622.925,239.999 622.925,257.909 628.042,257.909 628.042,239.999 "/>
<line fill="none" stroke="#000000" stroke-miterlimit="10" x1="598.437" y1="257.909" x2="603.188" y2="257.909"/>
<line fill="none" stroke="#000000" stroke-miterlimit="10" x1="628.042" y1="239.999" x2="622.925" y2="239.999"/>
<rect x="584.073" y="261.195" fill="#A7A9AC" stroke="#000000" stroke-miterlimit="10" width="49.019" height="43.671"/>
<g>
	<path stroke="#000000" stroke-miterlimit="10" d="M602.862,263.479"/>
	<line stroke="#000000" stroke-miterlimit="10" x1="602.862" y1="263.479" x2="602.862" y2="275.417"/>
	<line stroke="#000000" stroke-miterlimit="10" x1="603.173" y1="263.052" x2="598.804" y2="269.05"/>
	<line stroke="#000000" stroke-miterlimit="10" x1="607.094" y1="269.05" x2="602.538" y2="263.052"/>
	<line stroke="#000000" stroke-miterlimit="10" x1="614.217" y1="275.202" x2="614.217" y2="263.263"/>
	<line stroke="#000000" stroke-miterlimit="10" x1="614.528" y1="275.629" x2="610.159" y2="269.631"/>
	<line stroke="#000000" stroke-miterlimit="10" x1="618.449" y1="269.631" x2="613.893" y2="275.629"/>
	<line stroke="#000000" stroke-miterlimit="10" x1="598.804" y1="279.075" x2="618.449" y2="279.075"/>
	<line stroke="#000000" stroke-miterlimit="10" x1="618.449" y1="278.344" x2="618.449" y2="299.298"/>
	<line stroke="#000000" stroke-miterlimit="10" x1="618.449" y1="298.566" x2="598.804" y2="298.566"/>
	<line stroke="#000000" stroke-miterlimit="10" x1="598.804" y1="299.298" x2="598.804" y2="278.344"/>
	<g>
		<circle stroke="#000000" stroke-miterlimit="10" cx="603.099" cy="283.03" r="0.393"/>
		<rect x="601.077" y="284.761" stroke="#000000" stroke-width="0.5" stroke-miterlimit="10" width="4.043" height="4.982"/>
		<rect x="601.66" y="289.743" width="1.047" height="6.388"/>
		<rect x="603.492" y="289.743" width="1.046" height="6.388"/>
	</g>
	<circle stroke="#000000" stroke-miterlimit="10" cx="608.582" cy="283.03" r="0.393"/>
	<rect x="606.56" y="284.761" stroke="#000000" stroke-width="0.5" stroke-miterlimit="10" width="4.043" height="4.982"/>
	<rect x="607.142" y="289.743" width="1.047" height="6.388"/>
	<rect x="608.974" y="289.743" width="1.046" height="6.388"/>
	<circle stroke="#000000" stroke-miterlimit="10" cx="614.155" cy="283.03" r="0.393"/>
	<rect x="612.134" y="284.761" stroke="#000000" stroke-width="0.5" stroke-miterlimit="10" width="4.043" height="4.982"/>
	<rect x="612.716" y="289.743" width="1.046" height="6.388"/>
	<rect x="614.548" y="289.743" width="1.046" height="6.388"/>
</g>
<line fill="none" stroke="#000000" stroke-miterlimit="10" x1="998.837" y1="220.08" x2="998.837" y2="307.305"/>
<rect x="959.362" y="257.544" fill="#BCBEC0" stroke="#000000" stroke-miterlimit="10" width="39.475" height="17.909"/>
<polyline fill="#BCBEC0" stroke="#000000" stroke-miterlimit="10" points="964.296,275.453 964.296,257.544 969.048,257.544 
	969.048,275.453 973.8,275.453 973.8,257.544 979.099,257.544 979.099,275.453 984.034,275.453 984.034,257.544 988.786,257.544 
	988.786,275.453 993.901,275.453 993.901,257.544 "/>
<line fill="none" stroke="#000000" stroke-miterlimit="10" x1="964.296" y1="275.453" x2="969.048" y2="275.453"/>
<line fill="none" stroke="#000000" stroke-miterlimit="10" x1="993.901" y1="257.544" x2="988.786" y2="257.544"/>
<rect x="1532.017" y="147.947" fill="#C1DC9F" stroke="#000000" stroke-miterlimit="10" width="41.424" height="27.778"/>
<rect x="1493.276" y="147.947" fill="#C1DC9F" stroke="#000000" stroke-miterlimit="10" width="38.984" height="27.778"/>
<rect x="1237.423" y="170.364" fill="#C1DC9F" stroke="#000000" stroke-miterlimit="10" width="78.951" height="49.708"/>
<rect x="1129.479" y="61.688" fill="#83C8DE" stroke="#000000" stroke-miterlimit="10" width="55.557" height="51.17"/>
<rect x="1016.905" y="50" fill="#83C8DE" stroke="#000000" stroke-miterlimit="10" width="112.574" height="62.858"/>
<rect x="1185.036" y="61.688" fill="#83C8DE" stroke="#000000" stroke-miterlimit="10" width="36.062" height="51.17"/>
<rect x="1221.099" y="61.688" fill="#83C8DE" stroke="#000000" stroke-miterlimit="10" width="55.557" height="51.17"/>
<polyline fill="#83C8DE" stroke="#000000" stroke-miterlimit="10" points="1276.655,61.688 1314.179,61.688 1314.179,112.858 
	1276.655,112.858 "/>
<polyline fill="#83C8DE" stroke="#000000" stroke-miterlimit="10" points="1314.179,61.688 1350.728,61.688 1350.728,112.858 
	1314.179,112.858 "/>
<polyline fill="#83C8DE" stroke="#000000" stroke-miterlimit="10" points="1350.728,61.688 1387.767,61.688 1387.767,112.858 
	1350.728,112.858 "/>
<polyline fill="#83C8DE" stroke="#000000" stroke-miterlimit="10" points="1387.767,61.688 1424.804,61.688 1424.804,112.858 
	1387.767,112.858 "/>
<polyline fill="#83C8DE" stroke="#000000" stroke-miterlimit="10" points="1424.804,61.688 1461.354,61.688 1461.354,112.858 
	1424.804,112.858 "/>
<polyline fill="#83C8DE" stroke="#000000" stroke-miterlimit="10" points="1461.354,61.688 1498.878,61.688 1498.878,112.858 
	1461.354,112.858 "/>
<polyline fill="#83C8DE" stroke="#000000" stroke-miterlimit="10" points="1498.878,61.688 1536.401,61.688 1536.401,112.858 
	1498.878,112.858 "/>
<polyline fill="#83C8DE" stroke="#000000" stroke-miterlimit="10" points="1536.401,61.688 1573.44,61.688 1573.44,112.858 
	1536.401,112.858 "/>
<rect x="1316.374" y="170.364" fill="#83C8DE" stroke="#000000" stroke-miterlimit="10" width="34.6" height="49.708"/>
<polyline fill="#83C8DE" stroke="#000000" stroke-miterlimit="10" points="1350.974,170.364 1388.013,170.364 1388.013,220.072 
	1350.974,220.072 "/>
<polyline fill="#83C8DE" stroke="#000000" stroke-miterlimit="10" points="1388.013,170.364 1425.048,170.364 1425.048,220.072 
	1388.013,220.072 "/>
<polyline fill="#83C8DE" stroke="#000000" stroke-miterlimit="10" points="1425.048,170.364 1461.597,170.364 1461.597,220.072 
	1425.048,220.072 "/>
<line fill="none" stroke="#000000" stroke-miterlimit="10" x1="1493.03" y1="175.726" x2="1461.354" y2="175.726"/>
<line fill="none" stroke="#000000" stroke-miterlimit="10" x1="1573.44" y1="112.858" x2="1573.44" y2="146.972"/>
<rect x="1020.522" y="220.08" fill="#83C8DE" stroke="#000000" stroke-miterlimit="10" width="56.287" height="86.587"/>
<rect x="1076.81" y="220.08" fill="#F284AF" stroke="#000000" stroke-miterlimit="10" width="79.436" height="86.587"/>
<line fill="none" stroke="#000000" stroke-miterlimit="10" x1="1155.55" y1="220.072" x2="1237.423" y2="220.072"/>
<path fill="#BCBEC0" stroke="#000000" stroke-miterlimit="10" d="M1173.497,205.501c3.518,0,16.428,0.822,16.428,14.506h-16.428l0,0
	V205.501z"/>
<path fill="#BCBEC0" stroke="#000000" stroke-miterlimit="10" d="M1190.856,220.072c0-3.136,0.955-14.635,16.93-14.635v14.635l0,0
	H1190.856z"/>
<polygon fill="#FED497" stroke="#000000" stroke-miterlimit="10" points="1042.733,126.992 1016.905,126.992 1016.905,147.947 
	1042.733,137.469 "/>
<polygon fill="#FED497" stroke="#000000" stroke-miterlimit="10" points="1042.733,150.871 1016.905,160.13 1016.905,169.389 
	1042.733,169.389 "/>
<polygon fill="#FED497" stroke="#000000" stroke-miterlimit="10" points="1042.733,126.992 1042.733,137.469 1073.192,147.947 
	1073.192,126.992 "/>
<polygon fill="#FED497" stroke="#000000" stroke-miterlimit="10" points="1102.677,126.992 1073.192,126.992 1073.192,147.947 
	1102.677,137.469 "/>
<polygon fill="#FED497" stroke="#000000" stroke-miterlimit="10" points="1042.733,150.871 1073.192,160.13 1073.192,169.389 
	1042.733,169.389 "/>
<polygon fill="#FED497" stroke="#000000" stroke-miterlimit="10" points="1102.677,150.871 1073.192,160.13 1073.192,169.389 
	1102.677,169.389 "/>
<polygon fill="#FED497" stroke="#000000" stroke-miterlimit="10" points="1131.917,126.992 1161.644,126.992 1161.644,147.947 
	1131.917,137.469 "/>
<polygon fill="#FED497" stroke="#000000" stroke-miterlimit="10" points="1131.917,150.871 1131.917,169.389 1161.644,169.389 
	1161.644,160.13 "/>
<polygon fill="#FED497" stroke="#000000" stroke-miterlimit="10" points="1161.644,126.992 1192.835,126.992 1192.835,137.469 
	1161.644,147.947 "/>
<polygon fill="#FED497" stroke="#000000" stroke-miterlimit="10" points="1161.644,160.13 1192.835,150.871 1192.835,169.389 
	1161.644,169.389 "/>
<polygon fill="#FED497" stroke="#000000" stroke-miterlimit="10" points="1192.835,126.992 1223.05,126.992 1223.05,147.947 
	1192.835,137.469 "/>
<polygon fill="#FED497" stroke="#000000" stroke-miterlimit="10" points="1192.835,169.389 1223.05,169.389 1223.05,160.13 
	1192.835,150.871 "/>
<rect x="1468.481" y="175.481" fill="#BCBEC0" stroke="#000000" stroke-miterlimit="10" width="17.91" height="39.474"/>
<polyline fill="#BCBEC0" stroke="#000000" stroke-miterlimit="10" points="1486.392,210.021 1468.481,210.021 1468.481,205.27 
	1486.392,205.27 1486.392,200.518 1468.481,200.518 1468.481,195.218 1486.392,195.218 1486.392,190.284 1468.481,190.284 
	1468.481,185.532 1486.392,185.532 1486.392,180.415 1468.481,180.415 "/>
<polygon fill="#FED497" stroke="#000000" stroke-miterlimit="10" points="1237.181,126.992 1262.888,126.992 1262.888,147.947 
	1237.181,158.18 "/>
<polyline fill="#FED497" stroke="#000000" stroke-miterlimit="10" points="1262.888,126.992 1289.327,126.992 1289.327,158.18 
	1262.888,147.947 "/>
<polygon fill="#FED497" stroke="#000000" stroke-miterlimit="10" points="1289.327,126.992 1315.155,126.992 1315.155,147.947 
	1289.327,158.18 "/>
<polyline fill="#FED497" stroke="#000000" stroke-miterlimit="10" points="1315.155,126.992 1341.96,126.992 1341.96,158.18 
	1315.155,147.947 "/>
<polygon fill="#FED497" stroke="#000000" stroke-miterlimit="10" points="1341.96,126.992 1368.274,126.992 1368.274,147.947 
	1341.96,158.18 "/>
<polyline fill="#FED497" stroke="#000000" stroke-miterlimit="10" points="1368.274,126.992 1394.345,126.992 1394.345,158.18 
	1368.274,147.947 "/>
<polygon fill="#FED497" stroke="#000000" stroke-miterlimit="10" points="1394.345,126.992 1420.661,126.992 1420.661,147.78 
	1394.345,158.427 "/>
<polyline fill="#FED497" stroke="#000000" stroke-miterlimit="10" points="1420.661,126.992 1447.224,126.992 1447.224,158.18 
	1420.661,147.78 "/>
<line fill="none" stroke="#000000" stroke-miterlimit="10" x1="1486.392" y1="210.021" x2="1486.392" y2="205.27"/>
<line fill="none" stroke="#000000" stroke-miterlimit="10" x1="1215.981" y1="220.007" x2="1215.981" y2="307.305"/>
<rect x="1215.981" y="247.788" fill="#BCBEC0" stroke="#000000" stroke-miterlimit="10" width="39.475" height="17.909"/>
<polyline fill="#BCBEC0" stroke="#000000" stroke-miterlimit="10" points="1220.915,265.697 1220.915,247.788 1225.667,247.788 
	1225.667,265.697 1230.419,265.697 1230.419,247.788 1235.718,247.788 1235.718,265.697 1240.653,265.697 1240.653,247.788 
	1245.405,247.788 1245.405,265.697 1250.521,265.697 1250.521,247.788 "/>
<line fill="none" stroke="#000000" stroke-miterlimit="10" x1="1220.915" y1="265.697" x2="1225.667" y2="265.697"/>
<line fill="none" stroke="#000000" stroke-miterlimit="10" x1="1250.521" y1="247.788" x2="1245.405" y2="247.788"/>
<polygon fill="#FED497" stroke="#000000" stroke-miterlimit="10" points="760.652,369.545 760.652,391.84 789.892,380.692 
	789.892,369.545 "/>
<polygon fill="#FED497" stroke="#000000" stroke-miterlimit="10" points="789.892,369.545 820.717,369.545 820.717,391.84 
	789.892,380.692 "/>
<polygon fill="#FED497" stroke="#000000" stroke-miterlimit="10" points="820.717,369.545 820.717,391.84 851.661,380.692 
	851.661,369.545 "/>
<polygon fill="#FED497" stroke="#000000" stroke-miterlimit="10" points="863.114,369.545 863.114,391.84 893.085,380.692 
	893.085,369.545 "/>
<polyline fill="#FED497" stroke="#000000" stroke-miterlimit="10" points="893.085,369.545 923.542,369.545 923.542,391.84 
	893.085,380.692 "/>
<polygon fill="#FED497" stroke="#000000" stroke-miterlimit="10" points="923.542,369.545 954.487,369.545 954.487,380.692 
	923.542,391.84 "/>
<polyline fill="#FED497" stroke="#000000" stroke-miterlimit="10" points="954.487,369.545 984.704,369.545 984.704,391.84 
	954.487,380.692 "/>
<polygon fill="#FED497" stroke="#000000" stroke-miterlimit="10" points="1026.856,393.873 1026.856,369.545 996.155,369.545 
	996.155,380.692 "/>
<polygon fill="#FED497" stroke="#000000" stroke-miterlimit="10" points="1056.827,369.545 1026.856,369.545 1026.856,393.873 
	1056.827,380.692 "/>
<polygon fill="#FED497" stroke="#000000" stroke-miterlimit="10" points="1087.288,369.545 1056.827,369.545 1056.827,380.692 
	1087.288,391.84 "/>
<polygon fill="#FED497" stroke="#000000" stroke-miterlimit="10" points="760.652,417.548 789.892,417.548 789.892,396.349 
	760.652,406.948 "/>
<polygon fill="#FED497" stroke="#000000" stroke-miterlimit="10" points="820.717,417.548 820.717,406.948 789.892,396.349 
	789.892,417.548 "/>
<polygon fill="#FED497" stroke="#000000" stroke-miterlimit="10" points="851.661,417.548 851.661,396.349 820.717,406.948 
	820.717,417.548 "/>
<polygon fill="#FED497" stroke="#000000" stroke-miterlimit="10" points="893.085,396.349 893.085,417.548 863.114,417.548 
	863.114,406.948 "/>
<polygon fill="#FED497" stroke="#000000" stroke-miterlimit="10" points="923.542,406.948 893.085,396.349 893.085,417.548 
	923.542,417.548 "/>
<polygon fill="#FED497" stroke="#000000" stroke-miterlimit="10" points="954.487,395.51 923.542,406.948 923.542,417.548 
	954.487,417.548 "/>
<polygon fill="#FED497" stroke="#000000" stroke-miterlimit="10" points="984.704,406.948 954.487,395.51 954.487,417.548 
	984.704,417.548 "/>
<polygon fill="#FED497" stroke="#000000" stroke-miterlimit="10" points="996.155,417.548 996.155,396.349 1026.856,406.948 
	1026.856,417.548 "/>
<polygon fill="#FED497" stroke="#000000" stroke-miterlimit="10" points="1056.827,396.349 1026.856,406.948 1026.856,417.548 
	1056.827,417.548 "/>
<polygon fill="#FED497" stroke="#000000" stroke-miterlimit="10" points="1087.288,417.548 1087.288,406.528 1056.827,396.349 
	1056.827,417.548 "/>
<rect x="771.982" y="306.679" fill="#83C8DE" stroke="#000000" stroke-miterlimit="10" width="39.474" height="48.246"/>
<polyline fill="#83C8DE" stroke="#000000" stroke-miterlimit="10" points="811.457,306.679 849.956,306.679 849.956,354.925 
	811.457,354.925 "/>
<polyline fill="#83C8DE" stroke="#000000" stroke-miterlimit="10" points="849.956,306.679 886.507,306.679 886.507,354.925 
	849.956,354.925 "/>
<polyline fill="#83C8DE" stroke="#000000" stroke-miterlimit="10" points="886.507,306.679 924.761,306.679 924.761,354.925 
	886.507,354.925 "/>
<polyline fill="#83C8DE" stroke="#000000" stroke-miterlimit="10" points="924.761,306.679 962.042,306.679 962.042,354.925 
	924.761,354.925 "/>
<polyline fill="#83C8DE" stroke="#000000" stroke-miterlimit="10" points="962.042,306.679 998.837,306.679 998.837,354.925 
	962.042,354.925 "/>
<rect x="1020.522" y="306.679" fill="#83C8DE" stroke="#000000" stroke-miterlimit="10" width="38.498" height="48.246"/>
<rect x="1096.546" y="306.679" fill="#83C8DE" stroke="#000000" stroke-miterlimit="10" width="59.699" height="48.246"/>
<rect x="1102.64" y="383.922" fill="#83C8DE" stroke="#000000" stroke-miterlimit="10" width="53.605" height="33.626"/>
<polyline fill="#83C8DE" stroke="#000000" stroke-miterlimit="10" points="1102.64,417.548 1102.64,452.147 1156.245,452.147 
	1156.245,417.548 "/>
<polyline fill="#83C8DE" stroke="#000000" stroke-miterlimit="10" points="1059.021,306.679 1096.546,306.679 1096.546,354.925 
	1059.021,354.925 "/>
<rect x="1087.288" y="452.147" fill="#83C8DE" stroke="#000000" stroke-miterlimit="10" width="68.957" height="34.603"/>
<rect x="1061.944" y="432.899" fill="#C1DC9F" stroke="#000000" stroke-miterlimit="10" width="25.344" height="53.851"/>
<rect x="1027.833" y="432.899" fill="#83C8DE" stroke="#000000" stroke-miterlimit="10" width="34.111" height="53.851"/>
<polyline fill="#83C8DE" stroke="#000000" stroke-miterlimit="10" points="1027.833,432.899 992.989,432.899 992.989,486.75 
	1027.833,486.75 "/>
<polyline fill="#83C8DE" stroke="#000000" stroke-miterlimit="10" points="992.989,432.899 958.144,432.899 958.144,486.75 
	992.989,486.75 "/>
<polyline fill="#83C8DE" stroke="#000000" stroke-miterlimit="10" points="958.144,432.899 923.542,432.899 923.542,486.75 
	958.144,486.75 "/>
<polyline fill="#83C8DE" stroke="#000000" stroke-miterlimit="10" points="923.542,432.899 889.185,432.899 889.185,486.75 
	923.542,486.75 "/>
<polyline fill="#83C8DE" stroke="#000000" stroke-miterlimit="10" points="889.185,432.899 854.829,432.899 854.829,486.75 
	889.185,486.75 "/>
<polyline fill="#83C8DE" stroke="#000000" stroke-miterlimit="10" points="854.829,432.899 820.717,432.899 820.717,486.75 
	854.829,486.75 "/>
<polyline fill="#83C8DE" stroke="#000000" stroke-miterlimit="10" points="820.717,432.899 786.845,432.899 786.845,486.75 
	820.717,486.75 "/>
<polyline fill="#83C8DE" stroke="#000000" stroke-miterlimit="10" points="786.845,432.899 744.448,432.899 744.448,486.75 
	786.845,486.75 "/>
<rect x="690.354" y="417.548" fill="#C1DC9F" stroke="#000000" stroke-miterlimit="10" width="54.094" height="69.202"/>
<rect x="690.354" y="384.41" fill="#83C8DE" stroke="#000000" stroke-miterlimit="10" width="54.094" height="33.138"/>
<rect x="731.29" y="306.679" fill="#C1DC9F" stroke="#000000" stroke-miterlimit="10" width="40.692" height="15.84"/>
<rect x="690.354" y="306.679" fill="#83C8DE" stroke="#000000" stroke-miterlimit="10" width="40.936" height="48.246"/>
<line fill="none" stroke="#000000" stroke-miterlimit="10" x1="690.354" y1="384.41" x2="690.354" y2="354.925"/>
<line fill="none" stroke="#000000" stroke-miterlimit="10" x1="998.593" y1="306.679" x2="1020.522" y2="306.679"/>
<line fill="none" stroke="#000000" stroke-miterlimit="10" x1="1156.245" y1="354.925" x2="1156.245" y2="383.922"/>
<path fill="#BCBEC0" stroke="#000000" stroke-miterlimit="10" d="M705.396,384.41c0-3.023-0.849-14.126-14.975-14.126v14.126l0,0
	H705.396z"/>
<path fill="#BCBEC0" stroke="#000000" stroke-miterlimit="10" d="M690.354,369.485c3.236,0,15.107-0.826,15.107-14.561h-15.107l0,0
	V369.485z"/>
<path fill="#BCBEC0" stroke="#000000" stroke-miterlimit="10" d="M1141.202,383.919c0-2.946,0.848-13.76,14.975-13.76v13.76l0,0
	H1141.202z"/>
<path fill="#BCBEC0" stroke="#000000" stroke-miterlimit="10" d="M1156.245,369.359c-3.238,0-15.109-0.816-15.109-14.435h15.109l0,0
	V369.359z"/>
<path fill="#BCBEC0" stroke="#000000" stroke-miterlimit="10" d="M999.044,211.272c2.203,0,10.293,0.497,10.293,8.769h-10.293l0,0
	V211.272z"/>
<path fill="#BCBEC0" stroke="#000000" stroke-miterlimit="10" d="M1009.917,220.08c0-1.895,0.602-8.846,10.605-8.846v8.846l0,0
	H1009.917z"/>
<path fill="#BCBEC0" stroke="#000000" stroke-miterlimit="10" d="M998.94,297.861c2.203,0,10.291,0.497,10.291,8.769H998.94l0,0
	V297.861z"/>
<path fill="#BCBEC0" stroke="#000000" stroke-miterlimit="10" d="M1009.813,306.667c0-1.893,0.6-8.843,10.605-8.843v8.843l0,0
	H1009.813z"/>
<path fill="#A7A9AC" stroke="#000000" stroke-miterlimit="10" d="M1201.501,256.742c0,7.268-5.836,13.158-13.039,13.158
	c-7.197,0-13.037-5.891-13.037-13.158c0-7.267,5.84-13.157,13.037-13.157C1195.665,243.585,1201.501,249.476,1201.501,256.742z"/>
<text transform="matrix(1 0 0 1 1184.9727 262.5918)" font-family="'CenturyGothic'" font-size="17.544">L</text>
<ellipse fill="#A7A9AC" stroke="#000000" stroke-miterlimit="10" cx="662.971" cy="256.742" rx="13.037" ry="13.158"/>
<text transform="matrix(1 0 0 1 659.481 262.5918)" font-family="'CenturyGothic'" font-size="17.544">L</text>
</svg>
