<?xml version="1.0" encoding="utf-8"?>
<!-- Generator: Adobe Illustrator 16.0.0, SVG Export Plug-In . SVG Version: 6.00 Build 0)  -->
<!DOCTYPE svg PUBLIC "-//W3C//DTD SVG 1.1//EN" "http://www.w3.org/Graphics/SVG/1.1/DTD/svg11.dtd">
<svg version="1.1" id="Layer_1" xmlns="http://www.w3.org/2000/svg" xmlns:xlink="http://www.w3.org/1999/xlink" x="0px" y="0px"
	 width="1523.587px" height="433.783px" viewBox="0 0 1523.587 433.783" enable-background="new 0 0 1523.587 433.783"
	 xml:space="preserve">
<path fill="#5CB7E7" stroke="#000000" stroke-miterlimit="10" d="M710.757,250.967"/>
<rect x="719.402" y="250.967" fill="#83C8DE" stroke="#000000" stroke-miterlimit="10" width="37.673" height="49.28"/>
<polyline fill="#83C8DE" stroke="#000000" stroke-miterlimit="10" points="757.076,250.967 795.272,250.967 795.272,300.247 
	757.076,300.247 "/>
<polyline fill="#83C8DE" stroke="#000000" stroke-miterlimit="10" points="795.272,250.967 831.897,250.967 831.897,300.247 
	795.272,300.247 "/>
<polyline fill="#83C8DE" stroke="#000000" stroke-miterlimit="10" points="831.897,250.967 869.825,250.967 869.825,300.247 
	831.897,300.247 "/>
<polyline fill="#83C8DE" stroke="#000000" stroke-miterlimit="10" points="869.825,250.967 907.247,250.967 907.247,300.247 
	869.825,300.247 "/>
<polyline fill="#83C8DE" stroke="#000000" stroke-miterlimit="10" points="907.247,250.967 943.872,250.967 943.872,300.247 
	907.247,300.247 "/>
<path fill="#5CB7E7" stroke="#000000" stroke-miterlimit="10" d="M864.915,250.967"/>
<rect x="973.038" y="250.841" fill="#83C8DE" stroke="#000000" stroke-miterlimit="10" width="37.498" height="49.406"/>
<polyline fill="#83C8DE" stroke="#000000" stroke-miterlimit="10" points="1010.536,250.841 1049.106,250.841 1049.106,300.247 
	1010.536,300.247 "/>
<polyline fill="#83C8DE" stroke="#000000" stroke-miterlimit="10" points="1049.106,250.841 1111.78,250.841 1111.78,300.247 
	1049.106,300.247 "/>
<rect x="691.267" y="380.263" fill="#83C8DE" stroke="#000000" stroke-miterlimit="10" width="42.319" height="53.521"/>
<polyline fill="#83C8DE" stroke="#000000" stroke-miterlimit="10" points="733.586,380.263 768.942,380.263 768.942,433.783 
	733.586,433.783 "/>
<polyline fill="#83C8DE" stroke="#000000" stroke-miterlimit="10" points="768.942,380.263 803.761,380.263 803.761,433.783 
	768.942,433.783 "/>
<polyline fill="#83C8DE" stroke="#000000" stroke-miterlimit="10" points="803.761,380.263 838.581,380.263 838.581,433.783 
	803.761,433.783 "/>
<polyline fill="#83C8DE" stroke="#000000" stroke-miterlimit="10" points="838.581,380.263 874.731,380.263 874.731,433.783 
	838.581,433.783 "/>
<polyline fill="#83C8DE" stroke="#000000" stroke-miterlimit="10" points="874.731,380.263 908.757,380.263 908.757,433.783 
	874.731,433.783 "/>
<polyline fill="#83C8DE" stroke="#000000" stroke-miterlimit="10" points="908.757,380.263 943.575,380.263 943.575,433.783 
	908.757,433.783 "/>
<polyline fill="#83C8DE" stroke="#000000" stroke-miterlimit="10" points="943.575,380.263 978.931,380.263 978.931,433.783 
	943.575,433.783 "/>
<polyline fill="#83C8DE" stroke="#000000" stroke-miterlimit="10" points="978.931,380.263 1014.286,380.263 1014.286,433.783 
	978.931,433.783 "/>
<path fill="#5CB7E7" stroke="#000000" stroke-miterlimit="10" d="M1014.286,380.263"/>
<polyline fill="#83C8DE" stroke="#000000" stroke-miterlimit="10" points="1042.142,433.783 1111.78,433.783 1111.78,400.399 
	1042.142,400.399 "/>
<polyline fill="#83C8DE" stroke="#000000" stroke-miterlimit="10" points="1057.142,400.399 1057.142,366.485 1111.78,366.485 
	1111.78,400.399 "/>
<polyline fill="#83C8DE" stroke="#000000" stroke-miterlimit="10" points="1057.142,366.485 1057.142,332.042 1111.78,332.042 
	1111.78,366.485 "/>
<path fill="#5CB7E7" stroke="#000000" stroke-miterlimit="10" d="M1014.286,433.783"/>
<rect x="1014.286" y="380.527" fill="#C1DC9F" stroke="#000000" stroke-miterlimit="10" width="27.855" height="53.256"/>
<rect x="635.556" y="332.042" fill="#83C8DE" stroke="#000000" stroke-miterlimit="10" width="55.711" height="34.443"/>
<rect x="635.556" y="250.967" fill="#83C8DE" stroke="#000000" stroke-miterlimit="10" width="40.712" height="49.28"/>
<polygon fill="#FED497" stroke="#000000" stroke-miterlimit="10" points="708.41,314.024 740.015,314.024 740.015,332.042 
	708.41,336.166 "/>
<polygon fill="#FED497" stroke="#000000" stroke-miterlimit="10" points="740.015,314.024 768.942,314.024 768.942,336.166 
	740.015,332.042 "/>
<polygon fill="#FED497" stroke="#000000" stroke-miterlimit="10" points="812.331,314.024 843.401,314.024 843.401,332.042 
	812.331,336.166 "/>
<polygon fill="#FED497" stroke="#000000" stroke-miterlimit="10" points="843.401,314.024 874.731,314.024 874.731,336.166 
	843.401,332.042 "/>
<polygon fill="#FED497" stroke="#000000" stroke-miterlimit="10" points="874.731,314.024 905.542,314.024 905.542,332.042 
	874.731,336.166 "/>
<polygon fill="#FED497" stroke="#000000" stroke-miterlimit="10" points="905.542,314.024 936.073,314.024 936.073,336.166 
	905.542,332.042 "/>
<polygon fill="#FED497" stroke="#000000" stroke-miterlimit="10" points="947.862,314.024 978.931,314.024 978.931,336.166 
	947.862,332.042 "/>
<polygon fill="#FED497" stroke="#000000" stroke-miterlimit="10" points="978.931,314.024 1010.536,314.024 1010.536,332.042 
	978.931,336.166 "/>
<polygon fill="#FED497" stroke="#000000" stroke-miterlimit="10" points="1010.536,314.024 1042.142,314.024 1042.142,336.166 
	1010.536,332.042 "/>
<polygon fill="#FED497" stroke="#000000" stroke-miterlimit="10" points="708.41,366.485 740.015,366.485 740.015,343.169 
	708.41,349.264 "/>
<polygon fill="#FED497" stroke="#000000" stroke-miterlimit="10" points="740.015,343.169 768.942,352.178 768.942,366.485 
	740.015,366.485 "/>
<polygon fill="#FED497" stroke="#000000" stroke-miterlimit="10" points="768.942,352.178 800.548,343.169 800.548,366.485 
	768.942,366.485 "/>
<polygon fill="#FED497" stroke="#000000" stroke-miterlimit="10" points="812.331,351.646 843.401,343.169 843.401,366.485 
	812.331,366.485 "/>
<polygon fill="#FED497" stroke="#000000" stroke-miterlimit="10" points="843.401,343.169 874.731,352.178 874.731,366.485 
	843.401,366.485 "/>
<polygon fill="#FED497" stroke="#000000" stroke-miterlimit="10" points="874.731,352.178 905.542,346.879 905.542,366.485 
	874.731,366.485 "/>
<polygon fill="#FED497" stroke="#000000" stroke-miterlimit="10" points="905.542,346.879 936.073,351.118 936.073,366.485 
	905.542,366.485 "/>
<polygon fill="#FED497" stroke="#000000" stroke-miterlimit="10" points="947.862,346.879 978.931,354.827 978.931,366.485 
	947.862,366.485 "/>
<polygon fill="#FED497" stroke="#000000" stroke-miterlimit="10" points="978.931,354.827 1010.536,343.169 1010.536,366.485 
	978.931,366.485 "/>
<polygon fill="#FED497" stroke="#000000" stroke-miterlimit="10" points="1010.536,343.169 1042.142,351.646 1042.142,366.485 
	1010.536,366.485 "/>
<rect x="635.556" y="366.485" fill="#C1DC9F" stroke="#000000" stroke-miterlimit="10" width="55.711" height="67.298"/>
<path fill="#BCBEC0" stroke="#000000" stroke-miterlimit="10" d="M652.345,332.042c0-3.263-0.949-15.235-16.79-15.235v15.235l0,0
	H652.345z"/>
<path fill="#BCBEC0" stroke="#000000" stroke-miterlimit="10" d="M635.556,315.944c3.628,0,16.942-0.885,16.942-15.697h-16.942l0,0
	V315.944z"/>
<line fill="none" stroke="#000000" stroke-miterlimit="10" x1="680.932" y1="250.967" x2="657.952" y2="250.967"/>
<line fill="none" stroke="#000000" stroke-miterlimit="10" x1="680.932" y1="250.967" x2="710.757" y2="250.967"/>
<line fill="none" stroke="#000000" stroke-miterlimit="10" x1="710.757" y1="250.967" x2="880.007" y2="250.967"/>
<path fill="#BCBEC0" stroke="#000000" stroke-miterlimit="10" d="M1094.989,332.042c0-3.263,0.953-15.235,16.791-15.235v15.235l0,0
	H1094.989z"/>
<path fill="#BCBEC0" stroke="#000000" stroke-miterlimit="10" d="M1111.78,315.944c-3.629,0-16.941-0.885-16.941-15.697h16.941l0,0
	V315.944z"/>
<polygon fill="#FED497" stroke="#000000" stroke-miterlimit="10" points="768.942,314.024 800.548,314.024 800.548,325.095 
	768.942,336.166 "/>
<path fill="#A7A9AC" stroke="#000000" stroke-miterlimit="10" d="M1154.382,202.188c0,7.145-5.738,12.937-12.818,12.937
	c-7.076,0-12.818-5.792-12.818-12.937s5.742-12.936,12.818-12.936C1148.644,189.253,1154.382,195.044,1154.382,202.188z"/>
<rect x="973.075" fill="#83C8DE" stroke="#000000" stroke-miterlimit="10" width="111.635" height="49.828"/>
<polyline fill="#83C8DE" stroke="#000000" stroke-miterlimit="10" points="1084.71,0 1138.853,0 1138.853,49.828 1084.71,49.828 "/>
<polyline fill="#83C8DE" stroke="#000000" stroke-miterlimit="10" points="1138.853,0 1193.472,0 1193.472,49.828 1138.853,49.828 
	"/>
<polyline fill="#83C8DE" stroke="#000000" stroke-miterlimit="10" points="1193.472,0 1230.364,0 1230.364,49.828 1193.472,49.828 
	"/>
<polyline fill="#83C8DE" stroke="#000000" stroke-miterlimit="10" points="1230.364,0 1266.298,0 1266.298,49.828 1230.364,49.828 
	"/>
<polyline fill="#83C8DE" stroke="#000000" stroke-miterlimit="10" points="1266.298,0 1303.188,0 1303.188,49.828 1266.298,49.828 
	"/>
<polyline fill="#83C8DE" stroke="#000000" stroke-miterlimit="10" points="1303.188,0 1339.124,0 1339.124,49.828 1303.188,49.828 
	"/>
<polyline fill="#83C8DE" stroke="#000000" stroke-miterlimit="10" points="1339.124,0 1376.019,0 1376.019,49.828 1339.124,49.828 
	"/>
<polyline fill="#83C8DE" stroke="#000000" stroke-miterlimit="10" points="1376.019,0 1411.472,0 1411.472,49.828 1376.019,49.828 
	"/>
<polyline fill="#83C8DE" stroke="#000000" stroke-miterlimit="10" points="1411.472,0 1448.364,0 1448.364,49.828 1411.472,49.828 
	"/>
<polyline fill="#83C8DE" stroke="#000000" stroke-miterlimit="10" points="1448.364,0 1485.735,0 1485.735,49.828 1448.364,49.828 
	"/>
<polyline fill="#83C8DE" stroke="#000000" stroke-miterlimit="10" points="1485.735,0 1523.587,0 1523.587,49.828 1485.735,49.828 
	"/>
<rect x="1378.413" y="119.094" fill="#83C8DE" stroke="#000000" stroke-miterlimit="10" width="33.059" height="46.495"/>
<polyline fill="#83C8DE" stroke="#000000" stroke-miterlimit="10" points="1378.413,119.094 1342.478,119.094 1342.478,165.589 
	1378.413,165.589 "/>
<polyline fill="#83C8DE" stroke="#000000" stroke-miterlimit="10" points="1342.478,119.094 1303.188,119.094 1303.188,165.589 
	1342.478,165.589 "/>
<polyline fill="#83C8DE" stroke="#000000" stroke-miterlimit="10" points="1303.188,119.094 1268.692,119.094 1268.692,165.589 
	1303.188,165.589 "/>
<polyline fill="#C1DC9F" stroke="#000000" stroke-miterlimit="10" points="1268.692,119.094 1191.075,119.094 1191.075,165.589 
	1268.692,165.589 "/>
<rect x="973.075" y="165.652" fill="#83C8DE" stroke="#000000" stroke-miterlimit="10" width="57.494" height="85.28"/>
<polygon fill="#FED497" stroke="#000000" stroke-miterlimit="10" points="973.075,63.244 1003.021,63.244 1003.021,76.659 
	973.075,83.367 "/>
<polygon fill="#FED497" stroke="#000000" stroke-miterlimit="10" points="1003.021,63.244 1030.569,63.244 1030.569,83.367 
	1003.021,76.659 "/>
<polygon fill="#FED497" stroke="#000000" stroke-miterlimit="10" points="1030.569,63.244 1059.796,63.244 1059.796,75.7 
	1030.569,83.367 "/>
<polygon fill="#FED497" stroke="#000000" stroke-miterlimit="10" points="973.075,93.537 1003.021,88.158 1003.021,106.365 
	973.075,106.365 "/>
<polygon fill="#FED497" stroke="#000000" stroke-miterlimit="10" points="1003.021,88.158 1030.569,94.778 1030.569,106.365 
	1003.021,106.365 "/>
<polygon fill="#FED497" stroke="#000000" stroke-miterlimit="10" points="1030.569,94.778 1059.796,88.158 1059.796,106.365 
	1030.569,106.365 "/>
<polygon fill="#FED497" stroke="#000000" stroke-miterlimit="10" points="1103.396,63.244 1133.103,63.244 1133.103,83.367 
	1103.396,73.306 "/>
<polygon fill="#FED497" stroke="#000000" stroke-miterlimit="10" points="1103.396,85.762 1133.103,96.062 1133.103,106.365 
	1103.396,106.365 "/>
<polygon fill="#FED497" stroke="#000000" stroke-miterlimit="10" points="1147.476,63.244 1176.7,63.244 1176.7,83.367 
	1147.476,73.306 "/>
<polygon fill="#FED497" stroke="#000000" stroke-miterlimit="10" points="1147.476,86.721 1176.7,94.386 1176.7,106.365 
	1147.476,106.365 "/>
<polygon fill="#FED497" stroke="#000000" stroke-miterlimit="10" points="1176.7,83.367 1205.929,73.306 1205.929,63.244 
	1176.7,63.244 "/>
<polygon fill="#FED497" stroke="#000000" stroke-miterlimit="10" points="1176.7,94.386 1205.929,86.721 1205.929,106.365 
	1176.7,106.365 "/>
<polygon fill="#FED497" stroke="#000000" stroke-miterlimit="10" points="1205.929,63.244 1236.593,63.244 1236.593,83.367 
	1205.929,73.306 "/>
<polygon fill="#FED497" stroke="#000000" stroke-miterlimit="10" points="1205.929,86.721 1236.593,92.949 1236.593,106.365 
	1205.929,106.365 "/>
<path fill="#FED497" stroke="#000000" stroke-miterlimit="10" d="M1257.673,63.244"/>
<path fill="#FED497" stroke="#000000" stroke-miterlimit="10" d="M1257.673,63.244"/>
<polygon fill="#FED497" stroke="#000000" stroke-miterlimit="10" points="1308.938,63.244 1334.812,63.244 1334.812,97.261 
	1308.938,106.365 "/>
<polygon fill="#FED497" stroke="#000000" stroke-miterlimit="10" points="1257.673,63.243 1283.546,63.243 1283.546,97.26 
	1257.673,106.364 "/>
<polygon fill="#FED497" stroke="#000000" stroke-miterlimit="10" points="1360.444,63.241 1386.317,63.241 1386.317,97.258 
	1360.444,106.362 "/>
<rect x="1030.569" y="165.652" fill="#F284AF" stroke="#000000" stroke-miterlimit="10" width="81.211" height="85.28"/>
<rect x="1481.425" y="89.715" fill="#C1DC9F" stroke="#000000" stroke-miterlimit="10" width="42.162" height="29.468"/>
<rect x="1442.616" y="89.715" fill="#C1DC9F" stroke="#000000" stroke-miterlimit="10" width="38.809" height="29.468"/>
<path fill="#BCBEC0" stroke="#000000" stroke-miterlimit="10" d="M1126.843,151.328c3.459,0,16.15,0.807,16.15,14.261h-16.15l0,0
	V151.328z"/>
<path fill="#BCBEC0" stroke="#000000" stroke-miterlimit="10" d="M1143.907,165.652c0-3.081,0.941-14.388,16.646-14.388v14.388l0,0
	H1143.907z"/>
<line fill="none" stroke="#000000" stroke-miterlimit="10" x1="1191.075" y1="165.709" x2="1084.71" y2="165.709"/>
<polygon fill="#FED497" stroke="#000000" stroke-miterlimit="10" points="1007.571,134.456 1007.571,165.109 1030.569,165.197 
	1019.071,134.456 "/>
<polygon fill="#FED497" stroke="#000000" stroke-miterlimit="10" points="973.075,165.197 973.075,134.456 985.651,134.456 
	994.636,165.109 "/>
<line fill="none" stroke="#000000" stroke-miterlimit="10" x1="973.075" y1="49.828" x2="996.056" y2="49.828"/>
<line fill="none" stroke="#000000" stroke-miterlimit="10" x1="1084.71" y1="165.709" x2="1191.075" y2="165.709"/>
<line fill="none" stroke="#000000" stroke-miterlimit="10" x1="1523.587" y1="49.828" x2="1523.587" y2="96.063"/>
<line fill="none" stroke="#000000" stroke-miterlimit="10" x1="1442.616" y1="119.181" x2="1411.472" y2="119.181"/>
<rect x="1418.241" y="119.183" fill="#BCBEC0" stroke="#000000" stroke-miterlimit="10" width="17.607" height="38.809"/>
<polyline fill="#BCBEC0" stroke="#000000" stroke-miterlimit="10" points="1435.849,153.14 1418.241,153.14 1418.241,148.469 
	1435.849,148.469 1435.849,143.797 1418.241,143.797 1418.241,138.587 1435.849,138.587 1435.849,133.735 1418.241,133.735 
	1418.241,129.064 1435.849,129.064 1435.849,124.033 1418.241,124.033 "/>
<line fill="none" stroke="#000000" stroke-miterlimit="10" x1="1418.241" y1="124.033" x2="1418.241" y2="157.991"/>
<line fill="none" stroke="#000000" stroke-miterlimit="10" x1="1435.849" y1="123.372" x2="1435.849" y2="153.14"/>
<polyline fill="#FED497" stroke="#000000" stroke-miterlimit="10" points="1334.812,63.244 1360.444,63.241 1360.444,106.362 
	1334.812,97.261 "/>
<polyline fill="#FED497" stroke="#000000" stroke-miterlimit="10" points="1283.546,63.243 1308.938,63.244 1308.938,106.365 
	1283.546,97.26 "/>
<polyline fill="#FED497" stroke="#000000" stroke-miterlimit="10" points="1386.317,63.241 1412.438,63.241 1412.382,106.362 
	1386.317,97.258 "/>
<rect x="1169.28" y="194.523" fill="#BCBEC0" stroke="#000000" stroke-miterlimit="10" width="38.811" height="17.607"/>
<polyline fill="#BCBEC0" stroke="#000000" stroke-miterlimit="10" points="1174.132,212.131 1174.132,194.523 1178.804,194.523 
	1178.804,212.131 1183.476,212.131 1183.476,194.523 1188.685,194.523 1188.685,212.131 1193.536,212.131 1193.536,194.523 
	1198.208,194.523 1198.208,212.131 1203.239,212.131 1203.239,194.523 "/>
<line fill="none" stroke="#000000" stroke-miterlimit="10" x1="1174.132" y1="212.131" x2="1178.804" y2="212.131"/>
<line fill="none" stroke="#000000" stroke-miterlimit="10" x1="1203.239" y1="194.523" x2="1198.208" y2="194.523"/>
<line fill="none" stroke="#000000" stroke-miterlimit="10" x1="1169.28" y1="165.589" x2="1169.28" y2="248.956"/>
<text transform="matrix(1 0 0 1 1138.1328 207.9385)" font-family="'CenturyGothic'" font-size="17.2484">L</text>
<rect x="113.073" fill="#83C8DE" stroke="#000000" stroke-miterlimit="10" width="36.893" height="49.273"/>
<polyline fill="#83C8DE" stroke="#000000" stroke-miterlimit="10" points="149.966,0 186.858,0 186.858,49.273 149.966,49.273 "/>
<polyline fill="#83C8DE" stroke="#000000" stroke-miterlimit="10" points="186.858,0 222.792,0 222.792,49.273 186.858,49.273 "/>
<polyline fill="#83C8DE" stroke="#000000" stroke-miterlimit="10" points="222.792,0 259.684,0 259.684,49.273 222.792,49.273 "/>
<polyline fill="#83C8DE" stroke="#000000" stroke-miterlimit="10" points="259.684,0 295.618,0 295.618,49.273 259.684,49.273 "/>
<polyline fill="#83C8DE" stroke="#000000" stroke-miterlimit="10" points="295.618,0 332.99,0 332.99,49.273 295.618,49.273 "/>
<polyline fill="#83C8DE" stroke="#000000" stroke-miterlimit="10" points="332.99,0 368.924,0 368.924,49.273 332.99,49.273 "/>
<polyline fill="#83C8DE" stroke="#000000" stroke-miterlimit="10" points="368.924,0 406.295,0 406.295,49.273 368.924,49.273 "/>
<polyline fill="#83C8DE" stroke="#000000" stroke-miterlimit="10" points="406.295,0 442.709,0 442.709,49.273 406.295,49.273 "/>
<polyline fill="#83C8DE" stroke="#000000" stroke-miterlimit="10" points="442.709,0 479.122,0 479.122,49.273 442.709,49.273 "/>
<polyline fill="#83C8DE" stroke="#000000" stroke-miterlimit="10" points="479.122,0 516.015,0 516.015,49.273 479.122,49.273 "/>
<polyline fill="#83C8DE" stroke="#000000" stroke-miterlimit="10" points="516.015,0 552.908,0 552.908,49.273 516.015,49.273 "/>
<polyline fill="#83C8DE" stroke="#000000" stroke-miterlimit="10" points="552.908,0 588.842,0 588.842,49.273 552.908,49.273 "/>
<polyline fill="#83C8DE" stroke="#000000" stroke-miterlimit="10" points="588.842,0 625.255,0 625.255,49.273 588.842,49.273 "/>
<polyline fill="#83C8DE" stroke="#000000" stroke-miterlimit="10" points="625.255,0 662.626,0 662.626,49.273 625.255,49.273 "/>
<polyline fill="#83C8DE" stroke="#000000" stroke-miterlimit="10" points="662.626,0 776.179,0 776.179,49.273 662.626,49.273 "/>
<polyline fill="#83C8DE" stroke="#000000" stroke-miterlimit="10" points="776.179,0 818.341,0 818.341,49.273 776.179,49.273 "/>
<rect x="936.181" fill="#83C8DE" stroke="#000000" stroke-miterlimit="10" width="36.895" height="49.828"/>
<rect x="719.402" y="116.848" fill="#83C8DE" stroke="#000000" stroke-miterlimit="10" width="37.132" height="48.805"/>
<polyline fill="#83C8DE" stroke="#000000" stroke-miterlimit="10" points="756.534,116.848 794.386,116.848 794.386,165.652 
	756.534,165.652 "/>
<polyline fill="#83C8DE" stroke="#000000" stroke-miterlimit="10" points="794.386,116.848 831.276,116.848 831.276,165.652 
	794.386,165.652 "/>
<polyline fill="#83C8DE" stroke="#000000" stroke-miterlimit="10" points="831.276,116.848 869.606,116.848 869.606,165.652 
	831.276,165.652 "/>
<polyline fill="#83C8DE" stroke="#000000" stroke-miterlimit="10" points="869.606,116.848 907.458,116.848 907.458,165.652 
	869.606,165.652 "/>
<polyline fill="#83C8DE" stroke="#000000" stroke-miterlimit="10" points="907.458,116.848 943.872,116.848 943.872,165.652 
	907.458,165.652 "/>
<rect x="149.966" y="117.316" fill="#83C8DE" stroke="#000000" stroke-miterlimit="10" width="36.892" height="48.336"/>
<polyline fill="#83C8DE" stroke="#000000" stroke-miterlimit="10" points="186.858,117.316 222.792,117.316 222.792,165.652 
	186.858,165.652 "/>
<polyline fill="#83C8DE" stroke="#000000" stroke-miterlimit="10" points="222.792,117.316 259.684,117.316 259.684,165.652 
	222.792,165.652 "/>
<polyline fill="#83C8DE" stroke="#000000" stroke-miterlimit="10" points="259.684,117.316 295.618,117.316 295.618,165.652 
	259.684,165.652 "/>
<polyline fill="#83C8DE" stroke="#000000" stroke-miterlimit="10" points="295.618,117.316 332.99,117.316 332.99,165.652 
	295.618,165.652 "/>
<polyline fill="#83C8DE" stroke="#000000" stroke-miterlimit="10" points="332.99,117.316 368.924,117.316 368.924,165.652 
	332.99,165.652 "/>
<polyline fill="#83C8DE" stroke="#000000" stroke-miterlimit="10" points="368.924,117.316 406.295,117.316 406.295,165.652 
	368.924,165.652 "/>
<polyline fill="#83C8DE" stroke="#000000" stroke-miterlimit="10" points="406.295,117.316 442.709,117.316 442.709,165.652 
	406.295,165.652 "/>
<polyline fill="#83C8DE" stroke="#000000" stroke-miterlimit="10" points="442.709,117.316 479.122,117.316 479.122,165.652 
	442.709,165.652 "/>
<rect x="479.122" y="117.316" fill="#C1DC9F" stroke="#000000" stroke-miterlimit="10" width="78.098" height="48.336"/>
<rect x="56.057" fill="#C1DC9F" stroke="#000000" stroke-miterlimit="10" width="57.016" height="83.53"/>
<rect x="0.958" fill="#C1DC9F" stroke="#000000" stroke-miterlimit="10" width="55.099" height="66.167"/>
<path fill="#F284AF" stroke="#000000" stroke-miterlimit="10" d="M56.057,83.53"/>
<polygon fill="#FED497" stroke="#000000" stroke-miterlimit="10" points="137.987,63.819 164.818,63.819 164.818,86.346 
	137.987,93.854 "/>
<polyline fill="#FED497" stroke="#000000" stroke-miterlimit="10" points="164.818,63.819 190.69,63.819 190.69,93.854 
	164.818,86.346 "/>
<polygon fill="#FED497" stroke="#000000" stroke-miterlimit="10" points="190.69,63.819 217.042,63.819 217.042,85.877 
	190.69,93.854 "/>
<polyline fill="#FED497" stroke="#000000" stroke-miterlimit="10" points="217.042,85.877 243.395,93.854 243.395,63.819 
	217.042,63.819 "/>
<polygon fill="#FED497" stroke="#000000" stroke-miterlimit="10" points="243.395,63.819 268.788,63.819 268.788,86.814 
	243.395,93.854 "/>
<polyline fill="#FED497" stroke="#000000" stroke-miterlimit="10" points="268.788,63.819 295.618,63.819 295.618,93.854 
	268.788,86.814 "/>
<polygon fill="#FED497" stroke="#000000" stroke-miterlimit="10" points="295.618,63.819 320.533,63.819 320.533,86.814 
	295.618,93.854 "/>
<polyline fill="#FED497" stroke="#000000" stroke-miterlimit="10" points="320.533,63.819 347.364,63.819 347.364,93.854 
	320.533,86.814 "/>
<polygon fill="#FED497" stroke="#000000" stroke-miterlimit="10" points="347.364,63.819 373.236,63.819 373.236,88.223 
	347.364,93.854 "/>
<polyline fill="#FED497" stroke="#000000" stroke-miterlimit="10" points="373.236,63.819 399.588,63.819 399.588,93.854 
	373.236,88.223 "/>
<polygon fill="#FED497" stroke="#000000" stroke-miterlimit="10" points="413.962,63.819 439.355,63.819 439.355,87.753 
	413.962,93.854 "/>
<polyline fill="#FED497" stroke="#000000" stroke-miterlimit="10" points="439.355,63.819 465.707,63.819 465.707,93.854 
	439.355,87.753 "/>
<polygon fill="#FED497" stroke="#000000" stroke-miterlimit="10" points="465.707,63.819 492.539,63.819 492.539,88.691 
	465.707,93.854 "/>
<polyline fill="#FED497" stroke="#000000" stroke-miterlimit="10" points="492.539,63.819 518.171,63.819 518.171,93.854 
	492.539,88.691 "/>
<polygon fill="#FED497" stroke="#000000" stroke-miterlimit="10" points="518.171,63.819 544.284,63.819 544.284,86.346 
	518.171,93.854 "/>
<polyline fill="#FED497" stroke="#000000" stroke-miterlimit="10" points="544.284,63.819 570.875,63.819 570.875,93.854 
	544.284,86.346 "/>
<polygon fill="#FED497" stroke="#000000" stroke-miterlimit="10" points="570.875,63.819 596.029,63.819 596.029,85.877 
	570.875,93.854 "/>
<polyline fill="#FED497" stroke="#000000" stroke-miterlimit="10" points="596.029,63.819 622.859,63.819 622.859,93.854 
	596.029,85.877 "/>
<polyline fill="#FED497" stroke="#000000" stroke-miterlimit="10" points="622.859,63.819 648.253,63.819 648.253,88.223 
	622.859,93.854 "/>
<polygon fill="#FED497" stroke="#000000" stroke-miterlimit="10" points="689.458,63.819 719.402,63.819 719.402,76.021 
	689.458,82.593 "/>
<polygon fill="#FED497" stroke="#000000" stroke-miterlimit="10" points="719.402,85.408 719.402,104.179 689.458,104.179 
	689.458,93.854 "/>
<polygon fill="#FED497" stroke="#000000" stroke-miterlimit="10" points="719.402,63.819 749.827,63.819 749.827,82.593 
	719.402,76.021 "/>
<polygon fill="#FED497" stroke="#000000" stroke-miterlimit="10" points="719.402,85.408 749.827,94.792 749.827,104.179 
	719.402,104.179 "/>
<polygon fill="#FED497" stroke="#000000" stroke-miterlimit="10" points="749.827,63.819 779.532,63.819 779.532,76.491 
	749.827,82.593 "/>
<polygon fill="#FED497" stroke="#000000" stroke-miterlimit="10" points="749.827,94.792 779.532,85.408 779.532,104.179 
	749.827,104.179 "/>
<polygon fill="#FED497" stroke="#000000" stroke-miterlimit="10" points="794.386,93.854 794.386,104.179 823.134,104.179 
	823.134,84 "/>
<polygon fill="#FED497" stroke="#000000" stroke-miterlimit="10" points="794.386,63.819 823.134,63.819 823.134,75.553 
	794.386,82.593 "/>
<polygon fill="#FED497" stroke="#000000" stroke-miterlimit="10" points="823.134,84 853.317,93.854 853.317,104.179 
	823.134,104.179 "/>
<polygon fill="#FED497" stroke="#000000" stroke-miterlimit="10" points="823.134,63.819 853.317,63.819 853.317,82.593 
	823.134,75.553 "/>
<polygon fill="#FED497" stroke="#000000" stroke-miterlimit="10" points="884.94,63.819 915.124,63.819 915.124,83.062 
	884.94,73.442 "/>
<polygon fill="#FED497" stroke="#000000" stroke-miterlimit="10" points="884.94,84 915.124,93.854 915.124,104.179 884.94,104.179 
	"/>
<polygon fill="#FED497" stroke="#000000" stroke-miterlimit="10" points="915.124,63.819 943.872,63.819 943.872,73.442 
	915.124,83.062 "/>
<polygon fill="#FED497" stroke="#000000" stroke-miterlimit="10" points="915.124,93.854 943.872,85.408 943.872,104.179 
	915.124,104.179 "/>
<rect x="56.057" y="83.53" fill="#F284AF" stroke="#000000" stroke-miterlimit="10" width="57.016" height="29.096"/>
<rect x="56.057" y="112.626" fill="#F284AF" stroke="#000000" stroke-miterlimit="10" width="57.016" height="28.859"/>
<line fill="none" stroke="#000000" stroke-miterlimit="10" x1="113.073" y1="141.485" x2="113.073" y2="165.652"/>
<line fill="none" stroke="#000000" stroke-miterlimit="10" x1="113.073" y1="165.652" x2="149.966" y2="165.652"/>
<path fill="#BCBEC0" stroke="#000000" stroke-miterlimit="10" d="M586.951,151.685c3.459,0,16.152,0.791,16.152,13.968h-16.152l0,0
	V151.685z"/>
<path fill="#BCBEC0" stroke="#000000" stroke-miterlimit="10" d="M604.017,165.652c0-3.02,0.94-14.092,16.645-14.092v14.092l0,0
	H604.017z"/>
<line fill="none" stroke="#000000" stroke-miterlimit="10" x1="38.809" y1="66.167" x2="38.809" y2="165.652"/>
<line fill="none" stroke="#000000" stroke-miterlimit="10" x1="149.248" y1="165.652" x2="38.091" y2="165.652"/>
<path fill="none" stroke="#000000" stroke-miterlimit="10" d="M35.455,160.491"/>
<path fill="none" stroke="#000000" stroke-miterlimit="10" d="M34.497,141.485"/>
<rect y="139.784" fill="#BCBEC0" stroke="#000000" stroke-miterlimit="10" width="38.809" height="17.245"/>
<polyline fill="#BCBEC0" stroke="#000000" stroke-miterlimit="10" points="4.851,157.029 4.851,139.784 9.522,139.784 
	9.522,157.029 14.193,157.029 14.193,139.784 19.404,139.784 19.404,157.029 24.255,157.029 24.255,139.784 28.926,139.784 
	28.926,157.029 33.957,157.029 33.957,139.784 "/>
<line fill="none" stroke="#000000" stroke-miterlimit="10" x1="33.957" y1="139.784" x2="4.851" y2="139.784"/>
<line fill="none" stroke="#000000" stroke-miterlimit="10" x1="33.957" y1="157.029" x2="4.851" y2="157.029"/>
<rect x="540.45" y="184.365" fill="#BCBEC0" stroke="#000000" stroke-miterlimit="10" width="38.809" height="17.245"/>
<polyline fill="#BCBEC0" stroke="#000000" stroke-miterlimit="10" points="545.301,201.61 545.301,184.365 549.973,184.365 
	549.973,201.61 554.644,201.61 554.644,184.365 559.854,184.365 559.854,201.61 564.706,201.61 564.706,184.365 569.377,184.365 
	569.377,201.61 574.408,201.61 574.408,184.365 "/>
<line fill="none" stroke="#000000" stroke-miterlimit="10" x1="545.301" y1="201.61" x2="549.973" y2="201.61"/>
<line fill="none" stroke="#000000" stroke-miterlimit="10" x1="574.408" y1="184.365" x2="569.377" y2="184.365"/>
<line fill="none" stroke="#000000" stroke-miterlimit="10" x1="579.259" y1="165.652" x2="579.259" y2="251.06"/>
<rect x="635.555" y="165.652" fill="#F284AF" stroke="#000000" stroke-miterlimit="10" width="83.847" height="85.407"/>
<line fill="none" stroke="#000000" stroke-miterlimit="10" x1="557.22" y1="165.652" x2="635.555" y2="165.652"/>
<rect x="530.729" y="206.417" fill="#A7A9AC" stroke="#000000" stroke-miterlimit="10" width="48.192" height="42.053"/>
<g>
	<path stroke="#000000" stroke-miterlimit="10" d="M548.819,210.401"/>
	<line stroke="#000000" stroke-miterlimit="10" x1="548.819" y1="210.401" x2="548.819" y2="221.897"/>
	<line stroke="#000000" stroke-miterlimit="10" x1="549.125" y1="209.99" x2="544.83" y2="215.767"/>
	<line stroke="#000000" stroke-miterlimit="10" x1="552.979" y1="215.767" x2="548.5" y2="209.99"/>
	<line stroke="#000000" stroke-miterlimit="10" x1="559.982" y1="221.69" x2="559.982" y2="210.194"/>
	<line stroke="#000000" stroke-miterlimit="10" x1="560.289" y1="222.102" x2="555.993" y2="216.325"/>
	<line stroke="#000000" stroke-miterlimit="10" x1="564.143" y1="216.325" x2="559.664" y2="222.102"/>
	<line stroke="#000000" stroke-miterlimit="10" x1="544.83" y1="225.42" x2="564.143" y2="225.42"/>
	<line stroke="#000000" stroke-miterlimit="10" x1="564.143" y1="224.717" x2="564.143" y2="244.895"/>
	<line stroke="#000000" stroke-miterlimit="10" x1="564.143" y1="244.191" x2="544.83" y2="244.191"/>
	<line stroke="#000000" stroke-miterlimit="10" x1="544.83" y1="244.895" x2="544.83" y2="224.717"/>
	<g>
		<ellipse stroke="#000000" stroke-miterlimit="10" cx="549.052" cy="229.229" rx="0.386" ry="0.379"/>
		<rect x="547.064" y="230.896" stroke="#000000" stroke-width="0.5" stroke-miterlimit="10" width="3.975" height="4.798"/>
		<rect x="547.637" y="235.694" width="1.029" height="6.149"/>
		<rect x="549.438" y="235.694" width="1.029" height="6.149"/>
	</g>
	<ellipse stroke="#000000" stroke-miterlimit="10" cx="554.442" cy="229.229" rx="0.386" ry="0.379"/>
	<rect x="552.455" y="230.896" stroke="#000000" stroke-width="0.5" stroke-miterlimit="10" width="3.975" height="4.798"/>
	<rect x="553.027" y="235.694" width="1.029" height="6.149"/>
	<rect x="554.828" y="235.694" width="1.029" height="6.149"/>
	<ellipse stroke="#000000" stroke-miterlimit="10" cx="559.922" cy="229.229" rx="0.386" ry="0.379"/>
	<rect x="557.935" y="230.896" stroke="#000000" stroke-width="0.5" stroke-miterlimit="10" width="3.975" height="4.798"/>
	<rect x="558.507" y="235.694" width="1.029" height="6.149"/>
	<rect x="560.308" y="235.694" width="1.029" height="6.149"/>
</g>
<line fill="none" stroke="#000000" stroke-miterlimit="10" x1="943.872" y1="166.06" x2="943.872" y2="251.06"/>
<rect x="905.063" y="201.368" fill="#BCBEC0" stroke="#000000" stroke-miterlimit="10" width="38.809" height="17.245"/>
<polyline fill="#BCBEC0" stroke="#000000" stroke-miterlimit="10" points="909.913,218.613 909.913,201.368 914.585,201.368 
	914.585,218.613 919.257,218.613 919.257,201.368 924.468,201.368 924.468,218.613 929.319,218.613 929.319,201.368 
	933.991,201.368 933.991,218.613 939.021,218.613 939.021,201.368 "/>
<line fill="none" stroke="#000000" stroke-miterlimit="10" x1="939.021" y1="201.368" x2="936.683" y2="201.368"/>
<line fill="none" stroke="#000000" stroke-miterlimit="10" x1="908.413" y1="218.613" x2="911.528" y2="218.613"/>
<line fill="none" stroke="#000000" stroke-miterlimit="10" x1="818.341" y1="0" x2="936.181" y2="0"/>
<path fill="#BCBEC0" stroke="#000000" stroke-miterlimit="10" d="M944.397,156.47c2.941,0,13.74,0.498,13.74,8.797h-13.74l0,0
	V156.47z"/>
<path fill="#BCBEC0" stroke="#000000" stroke-miterlimit="10" d="M958.915,165.267c0-1.902,0.799-8.876,14.16-8.876v8.876l0,0
	H958.915z"/>
<line fill="none" stroke="#000000" stroke-miterlimit="10" x1="943.872" y1="300.247" x2="973.038" y2="300.247"/>
<path fill="#BCBEC0" stroke="#000000" stroke-miterlimit="10" d="M944.577,291.45c2.941,0,13.74,0.498,13.74,8.797h-13.74l0,0
	V291.45z"/>
<path fill="#BCBEC0" stroke="#000000" stroke-miterlimit="10" d="M959.095,300.247c0-1.902,0.799-8.875,14.16-8.875v8.875l0,0
	H959.095z"/>
<ellipse fill="#A7A9AC" stroke="#000000" stroke-miterlimit="10" cx="609.444" cy="203.327" rx="12.818" ry="12.937"/>
<text transform="matrix(1 0 0 1 606.0127 209.0762)" font-family="'CenturyGothic'" font-size="17.2484">L</text>
</svg>
