<?xml version="1.0" encoding="utf-8"?>
<!-- Generator: Adobe Illustrator 16.0.0, SVG Export Plug-In . SVG Version: 6.00 Build 0)  -->
<!DOCTYPE svg PUBLIC "-//W3C//DTD SVG 1.1//EN" "http://www.w3.org/Graphics/SVG/1.1/DTD/svg11.dtd">
<svg version="1.1" id="Layer_1" xmlns="http://www.w3.org/2000/svg" xmlns:xlink="http://www.w3.org/1999/xlink" x="0px" y="0px"
	 width="1800.481px" height="718.355px" viewBox="0 0 1800.481 718.355" enable-background="new 0 0 1800.481 718.355"
	 xml:space="preserve">
<rect x="197.784" y="156.041" fill="#B6E29E" stroke="#000000" stroke-miterlimit="10" width="56.049" height="68.424"/>
<rect x="197.784" y="224.465" fill="#FF73AB" stroke="#000000" stroke-miterlimit="10" width="56.049" height="30.572"/>
<rect x="197.784" y="255.038" fill="#FF73AB" stroke="#000000" stroke-miterlimit="10" width="56.049" height="30.572"/>
<rect x="253.833" y="156.041" fill="#6DC9E0" stroke="#000000" stroke-miterlimit="10" width="37.124" height="48.042"/>
<rect x="290.958" y="261.588" fill="#6DC9E0" stroke="#000000" stroke-miterlimit="10" width="37.124" height="49.498"/>
<polyline fill="#6DC9E0" stroke="#000000" stroke-miterlimit="10" points="290.958,156.041 328.081,156.041 328.081,204.083 
	290.958,204.083 "/>
<polyline fill="#6DC9E0" stroke="#000000" stroke-miterlimit="10" points="328.081,261.588 363.749,261.588 363.749,311.086 
	328.081,311.086 "/>
<polyline fill="#6DC9E0" stroke="#000000" stroke-miterlimit="10" points="328.081,204.083 363.749,204.083 363.749,156.041 
	328.081,156.041 "/>
<polyline fill="#6DC9E0" stroke="#000000" stroke-miterlimit="10" points="363.749,156.041 400.144,156.041 400.144,204.083 
	363.749,204.083 "/>
<polyline fill="#6DC9E0" stroke="#000000" stroke-miterlimit="10" points="400.144,156.041 438.724,156.041 438.724,204.083 
	400.144,204.083 "/>
<polyline fill="#6DC9E0" stroke="#000000" stroke-miterlimit="10" points="438.724,156.041 475.119,156.041 475.119,204.083 
	438.724,204.083 "/>
<polyline fill="#6DC9E0" stroke="#000000" stroke-miterlimit="10" points="475.119,156.041 510.787,156.041 510.787,204.083 
	475.119,204.083 "/>
<polyline fill="#6DC9E0" stroke="#000000" stroke-miterlimit="10" points="510.787,156.041 547.91,156.041 547.91,204.083 
	510.787,204.083 "/>
<polyline fill="#6DC9E0" stroke="#000000" stroke-miterlimit="10" points="547.91,156.041 584.307,156.041 584.307,204.083 
	547.91,204.083 "/>
<polyline fill="#6DC9E0" stroke="#000000" stroke-miterlimit="10" points="584.307,156.041 620.701,156.041 620.701,204.083 
	584.307,204.083 "/>
<polyline fill="#6DC9E0" stroke="#000000" stroke-miterlimit="10" points="620.701,156.041 657.826,156.041 657.826,204.083 
	620.701,204.083 "/>
<polyline fill="#6DC9E0" stroke="#000000" stroke-miterlimit="10" points="657.826,156.041 694.949,156.041 694.949,204.083 
	657.826,204.083 "/>
<polyline fill="#6DC9E0" stroke="#000000" stroke-miterlimit="10" points="694.949,156.041 730.617,156.041 730.617,204.083 
	694.949,204.083 "/>
<polyline fill="#6DC9E0" stroke="#000000" stroke-miterlimit="10" points="730.617,156.041 767.74,156.041 767.74,204.083 
	730.617,204.083 "/>
<polyline fill="#6DC9E0" stroke="#000000" stroke-miterlimit="10" points="767.74,156.041 804.136,156.041 804.136,204.083 
	767.74,204.083 "/>
<polyline fill="#6DC9E0" stroke="#000000" stroke-miterlimit="10" points="363.749,261.588 400.144,261.588 400.144,311.086 
	363.749,311.086 "/>
<polyline fill="#6DC9E0" stroke="#000000" stroke-miterlimit="10" points="400.144,261.588 438.724,261.588 438.724,311.086 
	400.144,311.086 "/>
<polyline fill="#6DC9E0" stroke="#000000" stroke-miterlimit="10" points="438.724,261.588 475.119,261.588 475.119,311.086 
	438.724,311.086 "/>
<polyline fill="#6DC9E0" stroke="#000000" stroke-miterlimit="10" points="475.119,261.588 510.787,261.588 510.787,311.086 
	475.119,311.086 "/>
<polyline fill="#6DC9E0" stroke="#000000" stroke-miterlimit="10" points="510.787,261.588 547.91,261.588 547.91,311.086 
	510.787,311.086 "/>
<polyline fill="#6DC9E0" stroke="#000000" stroke-miterlimit="10" points="547.91,261.588 584.307,261.588 584.307,311.086 
	547.91,311.086 "/>
<polyline fill="#6DC9E0" stroke="#000000" stroke-miterlimit="10" points="584.307,261.588 620.701,261.588 620.701,311.086 
	584.307,311.086 "/>
<rect x="620.701" y="261.588" fill="#B6E29E" stroke="#000000" stroke-miterlimit="10" width="77.646" height="49.498"/>
<rect x="804.136" y="141.726" fill="#6DC9E0" stroke="#000000" stroke-miterlimit="10" width="113.069" height="62.357"/>
<rect x="917.205" y="141.726" fill="#6DC9E0" stroke="#000000" stroke-miterlimit="10" width="42.22" height="62.357"/>
<rect x="1062.789" y="141.726" fill="#6DC9E0" stroke="#000000" stroke-miterlimit="10" width="41.771" height="62.357"/>
<rect x="860.672" y="261.588" fill="#6DC9E0" stroke="#000000" stroke-miterlimit="10" width="33.727" height="49.498"/>
<polyline fill="#6DC9E0" stroke="#000000" stroke-miterlimit="10" points="894.398,261.588 932.251,261.588 932.251,311.086 
	894.398,311.086 "/>
<polyline fill="#6DC9E0" stroke="#000000" stroke-miterlimit="10" points="932.251,261.588 972.526,261.588 972.526,311.086 
	932.251,311.086 "/>
<polyline fill="#6DC9E0" stroke="#000000" stroke-miterlimit="10" points="972.526,261.588 1009.409,261.588 1009.409,311.086 
	972.526,311.086 "/>
<polyline fill="#6DC9E0" stroke="#000000" stroke-miterlimit="10" points="1009.409,261.588 1047.745,261.588 1047.745,311.086 
	1009.409,311.086 "/>
<polyline fill="#6DC9E0" stroke="#000000" stroke-miterlimit="10" points="1047.745,261.588 1086.568,261.588 1086.568,311.086 
	1047.745,311.086 "/>
<polygon fill="#FFD592" stroke="#000000" stroke-miterlimit="10" points="275.672,218.401 301.392,218.401 301.392,239.75 
	275.672,248.002 "/>
<polyline fill="#FFD592" stroke="#000000" stroke-miterlimit="10" points="301.392,218.401 328.081,218.401 328.081,248.002 
	301.392,239.75 "/>
<polygon fill="#FFD592" stroke="#000000" stroke-miterlimit="10" points="328.081,218.401 353.802,218.401 353.802,239.75 
	328.081,248.002 "/>
<polyline fill="#FFD592" stroke="#000000" stroke-miterlimit="10" points="353.802,218.401 379.035,218.401 379.035,248.002 
	353.802,239.75 "/>
<polygon fill="#FFD592" stroke="#000000" stroke-miterlimit="10" points="379.035,218.401 405.726,218.401 405.726,239.75 
	379.035,248.002 "/>
<polyline fill="#FFD592" stroke="#000000" stroke-miterlimit="10" points="405.726,218.401 432.416,218.401 432.416,248.002 
	405.726,239.75 "/>
<polygon fill="#FFD592" stroke="#000000" stroke-miterlimit="10" points="432.416,218.401 458.621,218.401 458.621,239.75 
	432.416,248.002 "/>
<polyline fill="#FFD592" stroke="#000000" stroke-miterlimit="10" points="458.621,218.401 485.311,218.401 485.311,248.002 
	458.621,239.75 "/>
<path fill="#FFD592" stroke="#000000" stroke-miterlimit="10" d="M505.692,218.401"/>
<polygon fill="#FFD592" stroke="#000000" stroke-miterlimit="10" points="485.311,218.401 505.692,218.401 495.502,248.002 
	485.311,248.002 "/>
<polygon fill="#FFD592" stroke="#000000" stroke-miterlimit="10" points="505.692,248.002 527.045,248.002 527.045,218.401 
	516.368,218.401 "/>
<polygon fill="#FFD592" stroke="#000000" stroke-miterlimit="10" points="550.822,218.401 573.146,218.401 573.146,248.002 
	561.984,248.002 "/>
<polygon fill="#FFD592" stroke="#000000" stroke-miterlimit="10" points="573.146,218.401 593.527,218.401 584.307,248.002 
	573.146,248.002 "/>
<polygon fill="#FFD592" stroke="#000000" stroke-miterlimit="10" points="593.527,249.459 615.365,249.459 615.365,218.401 
	604.445,218.401 "/>
<polygon fill="#FFD592" stroke="#000000" stroke-miterlimit="10" points="615.365,249.459 635.746,249.459 625.556,218.401 
	615.365,218.401 "/>
<polygon fill="#FFD592" stroke="#000000" stroke-miterlimit="10" points="635.746,218.401 656.128,218.401 656.128,249.459 
	645.938,249.459 "/>
<polygon fill="#FFD592" stroke="#000000" stroke-miterlimit="10" points="656.128,218.401 675.9,218.401 666.015,249.459 
	656.128,249.459 "/>
<polygon fill="#FFD592" stroke="#000000" stroke-miterlimit="10" points="678.45,249.459 698.348,249.459 698.348,218.401 
	688.397,218.401 "/>
<polygon fill="#FFD592" stroke="#000000" stroke-miterlimit="10" points="743.478,261.588 743.478,242.18 712.783,251.883 
	712.783,261.588 "/>
<polygon fill="#FFD592" stroke="#000000" stroke-miterlimit="10" points="712.783,218.401 712.783,239.75 743.478,229.073 
	743.478,218.401 "/>
<polygon fill="#FFD592" stroke="#000000" stroke-miterlimit="10" points="773.564,218.401 773.564,239.75 743.478,229.073 
	743.478,218.401 "/>
<polygon fill="#FFD592" stroke="#000000" stroke-miterlimit="10" points="743.478,242.18 773.564,251.883 773.564,261.588 
	743.478,261.588 "/>
<polygon fill="#FFD592" stroke="#000000" stroke-miterlimit="10" points="773.564,218.401 804.136,218.401 804.136,229.073 
	773.564,239.75 "/>
<polygon fill="#FFD592" stroke="#000000" stroke-miterlimit="10" points="773.564,251.883 804.136,242.18 804.136,261.588 
	773.564,261.588 "/>
<polygon fill="#FFD592" stroke="#000000" stroke-miterlimit="10" points="835.68,218.401 835.68,248.002 856.061,248.002 
	845.87,218.401 "/>
<polygon fill="#FFD592" stroke="#000000" stroke-miterlimit="10" points="856.061,218.401 877.536,218.401 877.536,248.002 
	866.799,248.002 "/>
<polygon fill="#FFD592" stroke="#000000" stroke-miterlimit="10" points="877.536,218.401 898.279,218.401 887.908,248.002 
	877.536,248.002 "/>
<polygon fill="#FFD592" stroke="#000000" stroke-miterlimit="10" points="898.279,248.002 917.205,248.002 917.205,218.401 
	907.743,218.401 "/>
<polygon fill="#FFD592" stroke="#000000" stroke-miterlimit="10" points="938.315,248.002 917.205,248.002 917.205,218.401 
	927.761,218.401 "/>
<polygon fill="#FFD592" stroke="#000000" stroke-miterlimit="10" points="940.015,218.401 959.425,218.401 959.425,248.002 
	949.719,248.002 "/>
<polygon fill="#FFD592" stroke="#000000" stroke-miterlimit="10" points="981.263,218.401 959.425,218.401 959.425,248.002 
	970.343,248.002 "/>
<polygon fill="#FFD592" stroke="#000000" stroke-miterlimit="10" points="981.263,248.002 1002.13,248.002 1002.13,218.401 
	990.968,218.401 "/>
<polygon fill="#FFD592" stroke="#000000" stroke-miterlimit="10" points="1022.511,248.002 1002.13,248.002 1002.13,218.401 
	1012.32,218.401 "/>
<polygon fill="#FFD592" stroke="#000000" stroke-miterlimit="10" points="1022.511,218.401 1043.862,218.401 1043.862,248.002 
	1033.188,248.002 "/>
<polygon fill="#FFD592" stroke="#000000" stroke-miterlimit="10" points="1065.216,218.401 1043.862,218.401 1043.862,248.002 
	1054.538,248.002 "/>
<polygon fill="#FFD592" stroke="#000000" stroke-miterlimit="10" points="1065.216,248.002 1086.568,248.002 1086.568,218.401 
	1075.893,218.401 "/>
<line fill="none" stroke="#000000" stroke-miterlimit="10" x1="253.833" y1="285.609" x2="253.833" y2="311.086"/>
<line fill="none" stroke="#000000" stroke-miterlimit="10" x1="253.833" y1="311.086" x2="290.958" y2="311.086"/>
<line fill="none" stroke="#000000" stroke-miterlimit="10" x1="1086.568" y1="311.086" x2="1108.162" y2="311.086"/>
<line fill="none" stroke="#000000" stroke-miterlimit="10" x1="959.425" y1="141.726" x2="1062.789" y2="141.726"/>
<line fill="none" stroke="#000000" stroke-miterlimit="10" x1="959.425" y1="141.726" x2="1062.789" y2="141.726"/>
<rect x="141.736" y="156.041" fill="#B6E29E" stroke="#000000" stroke-miterlimit="10" width="56.048" height="53.624"/>
<line fill="none" stroke="#000000" stroke-miterlimit="10" x1="181.043" y1="311.086" x2="290.958" y2="311.086"/>
<line fill="none" stroke="#000000" stroke-miterlimit="10" x1="181.043" y1="209.665" x2="181.043" y2="311.086"/>
<rect x="141.736" y="285.609" fill="#BCBEC0" stroke="#000000" stroke-miterlimit="10" width="39.307" height="17.834"/>
<polyline fill="#BCBEC0" stroke="#000000" stroke-miterlimit="10" points="146.648,303.443 146.648,285.609 151.38,285.609 
	151.38,303.443 156.111,303.443 156.111,285.609 161.39,285.609 161.39,303.443 166.302,303.443 166.302,285.609 171.033,285.609 
	171.033,303.443 176.129,303.443 176.129,285.609 "/>
<line fill="#FF73AB" stroke="#000000" stroke-miterlimit="10" x1="146.648" y1="303.443" x2="151.38" y2="303.443"/>
<line fill="#FF73AB" stroke="#000000" stroke-miterlimit="10" x1="176.129" y1="285.609" x2="171.033" y2="285.609"/>
<path fill="#BCBEC0" stroke="#000000" stroke-miterlimit="10" d="M726.405,296.576c3.503,0,16.36,0.818,16.36,14.445h-16.36l0,0
	V296.576z"/>
<path fill="#BCBEC0" stroke="#000000" stroke-miterlimit="10" d="M743.69,311.086c0-3.123,0.952-14.572,16.858-14.572v14.572l0,0
	H743.69z"/>
<line fill="none" stroke="#000000" stroke-miterlimit="10" x1="181.043" y1="311.086" x2="180.314" y2="311.086"/>
<line fill="none" stroke="#000000" stroke-miterlimit="10" x1="1104.561" y1="311.086" x2="1105.311" y2="311.086"/>
<polygon fill="#FF73AB" stroke="#000000" stroke-miterlimit="10" points="779.387,311.021 860.672,311.086 860.672,398.146 
	779.387,398.146 "/>
<line fill="none" stroke="#000000" stroke-miterlimit="10" x1="698.348" y1="311.086" x2="779.387" y2="311.021"/>
<line fill="none" stroke="#000000" stroke-miterlimit="10" x1="721.882" y1="311.086" x2="722.246" y2="389.242"/>
<rect x="682.945" y="330.922" fill="#BCBEC0" stroke="#000000" stroke-miterlimit="10" width="39.307" height="17.834"/>
<polyline fill="#BCBEC0" stroke="#000000" stroke-miterlimit="10" points="687.858,348.756 687.858,330.922 692.59,330.922 
	692.59,348.756 697.32,348.756 697.32,330.922 702.599,330.922 702.599,348.756 707.512,348.756 707.512,330.922 712.244,330.922 
	712.244,348.756 717.34,348.756 717.34,330.922 "/>
<line fill="none" stroke="#000000" stroke-miterlimit="10" x1="687.858" y1="348.756" x2="692.59" y2="348.756"/>
<line fill="none" stroke="#000000" stroke-miterlimit="10" x1="717.34" y1="330.922" x2="712.244" y2="330.922"/>
<rect x="673.555" y="352.027" fill="#A7A9AC" stroke="#000000" stroke-miterlimit="10" width="48.812" height="43.488"/>
<g>
	<path stroke="#000000" stroke-miterlimit="10" d="M692.266,354.303"/>
	<line stroke="#000000" stroke-miterlimit="10" x1="692.266" y1="354.303" x2="692.266" y2="366.191"/>
	<line stroke="#000000" stroke-miterlimit="10" x1="692.574" y1="353.877" x2="688.225" y2="359.852"/>
	<line stroke="#000000" stroke-miterlimit="10" x1="696.479" y1="359.852" x2="691.941" y2="353.877"/>
	<line stroke="#000000" stroke-miterlimit="10" x1="703.571" y1="365.975" x2="703.571" y2="354.086"/>
	<line stroke="#000000" stroke-miterlimit="10" x1="703.882" y1="366.4" x2="699.531" y2="360.428"/>
	<line stroke="#000000" stroke-miterlimit="10" x1="707.786" y1="360.428" x2="703.249" y2="366.4"/>
	<line stroke="#000000" stroke-miterlimit="10" x1="688.225" y1="369.834" x2="707.786" y2="369.834"/>
	<line stroke="#000000" stroke-miterlimit="10" x1="707.786" y1="369.105" x2="707.786" y2="389.971"/>
	<line stroke="#000000" stroke-miterlimit="10" x1="707.786" y1="389.242" x2="688.225" y2="389.242"/>
	<line stroke="#000000" stroke-miterlimit="10" x1="688.225" y1="389.971" x2="688.225" y2="369.105"/>
	<g>
		<circle stroke="#000000" stroke-miterlimit="10" cx="692.501" cy="373.771" r="0.392"/>
		<rect x="690.488" y="375.494" stroke="#000000" stroke-width="0.5" stroke-miterlimit="10" width="4.025" height="4.963"/>
		<rect x="691.068" y="380.457" width="1.041" height="6.359"/>
		<rect x="692.893" y="380.457" width="1.041" height="6.359"/>
	</g>
	<circle stroke="#000000" stroke-miterlimit="10" cx="697.96" cy="373.771" r="0.391"/>
	<rect x="695.947" y="375.494" stroke="#000000" stroke-width="0.5" stroke-miterlimit="10" width="4.025" height="4.963"/>
	<rect x="696.527" y="380.457" width="1.042" height="6.359"/>
	<rect x="698.352" y="380.457" width="1.042" height="6.359"/>
	<circle stroke="#000000" stroke-miterlimit="10" cx="703.511" cy="373.771" r="0.392"/>
	<rect x="701.497" y="375.494" stroke="#000000" stroke-width="0.5" stroke-miterlimit="10" width="4.026" height="4.963"/>
	<rect x="702.078" y="380.457" width="1.041" height="6.359"/>
	<rect x="703.902" y="380.457" width="1.041" height="6.359"/>
</g>
<line fill="none" stroke="#000000" stroke-miterlimit="10" x1="1086.568" y1="311.086" x2="1086.568" y2="397.943"/>
<rect x="1047.261" y="348.391" fill="#BCBEC0" stroke="#000000" stroke-miterlimit="10" width="39.308" height="17.834"/>
<polyline fill="#BCBEC0" stroke="#000000" stroke-miterlimit="10" points="1052.174,366.225 1052.174,348.391 1056.905,348.391 
	1056.905,366.225 1061.638,366.225 1061.638,348.391 1066.915,348.391 1066.915,366.225 1071.827,366.225 1071.827,348.391 
	1076.559,348.391 1076.559,366.225 1081.654,366.225 1081.654,348.391 "/>
<line fill="none" stroke="#000000" stroke-miterlimit="10" x1="1052.174" y1="366.225" x2="1056.905" y2="366.225"/>
<line fill="none" stroke="#000000" stroke-miterlimit="10" x1="1081.654" y1="348.391" x2="1076.559" y2="348.391"/>
<rect x="1617.496" y="233.92" fill="#B6E29E" stroke="#000000" stroke-miterlimit="10" width="41.25" height="27.66"/>
<rect x="1578.918" y="233.92" fill="#B6E29E" stroke="#000000" stroke-miterlimit="10" width="38.821" height="27.66"/>
<rect x="1324.147" y="261.58" fill="#B6E29E" stroke="#000000" stroke-miterlimit="10" width="78.616" height="49.498"/>
<rect x="1216.659" y="153.366" fill="#6DC9E0" stroke="#000000" stroke-miterlimit="10" width="55.321" height="50.953"/>
<rect x="1104.561" y="141.726" fill="#6DC9E0" stroke="#000000" stroke-miterlimit="10" width="112.099" height="62.593"/>
<rect x="1271.98" y="153.366" fill="#6DC9E0" stroke="#000000" stroke-miterlimit="10" width="35.91" height="50.953"/>
<rect x="1307.891" y="153.366" fill="#6DC9E0" stroke="#000000" stroke-miterlimit="10" width="55.322" height="50.953"/>
<polyline fill="#6DC9E0" stroke="#000000" stroke-miterlimit="10" points="1363.213,153.366 1400.579,153.366 1400.579,204.319 
	1363.213,204.319 "/>
<polyline fill="#6DC9E0" stroke="#000000" stroke-miterlimit="10" points="1400.579,153.366 1436.975,153.366 1436.975,204.319 
	1400.579,204.319 "/>
<polyline fill="#6DC9E0" stroke="#000000" stroke-miterlimit="10" points="1436.975,153.366 1473.854,153.366 1473.854,204.319 
	1436.975,204.319 "/>
<polyline fill="#6DC9E0" stroke="#000000" stroke-miterlimit="10" points="1473.854,153.366 1510.735,153.366 1510.735,204.319 
	1473.854,204.319 "/>
<polyline fill="#6DC9E0" stroke="#000000" stroke-miterlimit="10" points="1510.735,153.366 1547.132,153.366 1547.132,204.319 
	1510.735,204.319 "/>
<polyline fill="#6DC9E0" stroke="#000000" stroke-miterlimit="10" points="1547.132,153.366 1584.498,153.366 1584.498,204.319 
	1547.132,204.319 "/>
<polyline fill="#6DC9E0" stroke="#000000" stroke-miterlimit="10" points="1584.498,153.366 1621.864,153.366 1621.864,204.319 
	1584.498,204.319 "/>
<polyline fill="#6DC9E0" stroke="#000000" stroke-miterlimit="10" points="1621.864,153.366 1658.746,153.366 1658.746,204.319 
	1621.864,204.319 "/>
<rect x="1402.764" y="261.58" fill="#6DC9E0" stroke="#000000" stroke-miterlimit="10" width="34.454" height="49.498"/>
<polyline fill="#6DC9E0" stroke="#000000" stroke-miterlimit="10" points="1437.218,261.58 1474.099,261.58 1474.099,311.078 
	1437.218,311.078 "/>
<polyline fill="#6DC9E0" stroke="#000000" stroke-miterlimit="10" points="1474.099,261.58 1510.979,261.58 1510.979,311.078 
	1474.099,311.078 "/>
<polyline fill="#6DC9E0" stroke="#000000" stroke-miterlimit="10" points="1510.979,261.58 1547.375,261.58 1547.375,311.078 
	1510.979,311.078 "/>
<line fill="none" stroke="#000000" stroke-miterlimit="10" x1="1578.676" y1="261.58" x2="1547.132" y2="261.58"/>
<line fill="none" stroke="#000000" stroke-miterlimit="10" x1="1658.746" y1="204.319" x2="1658.746" y2="233.92"/>
<rect x="1108.162" y="311.086" fill="#6DC9E0" stroke="#000000" stroke-miterlimit="10" width="56.049" height="86.223"/>
<rect x="1164.211" y="311.086" fill="#FF73AB" stroke="#000000" stroke-miterlimit="10" width="79.1" height="86.223"/>
<line fill="none" stroke="#000000" stroke-miterlimit="10" x1="1242.621" y1="311.078" x2="1324.147" y2="311.078"/>
<path fill="#BCBEC0" stroke="#000000" stroke-miterlimit="10" d="M1260.491,296.57c3.505,0,16.358,0.818,16.358,14.443h-16.358l0,0
	V296.57z"/>
<path fill="#BCBEC0" stroke="#000000" stroke-miterlimit="10" d="M1277.776,311.078c0-3.121,0.953-14.572,16.86-14.572v14.572l0,0
	H1277.776z"/>
<polygon fill="#FFD592" stroke="#000000" stroke-miterlimit="10" points="1130.279,218.391 1104.561,218.391 1104.561,239.258 
	1130.279,228.825 "/>
<polygon fill="#FFD592" stroke="#000000" stroke-miterlimit="10" points="1130.279,242.17 1104.561,251.391 1104.561,260.611 
	1130.279,260.611 "/>
<polygon fill="#FFD592" stroke="#000000" stroke-miterlimit="10" points="1130.279,218.391 1130.279,228.825 1160.61,239.258 
	1160.61,218.391 "/>
<polygon fill="#FFD592" stroke="#000000" stroke-miterlimit="10" points="1189.968,218.391 1160.61,218.391 1160.61,239.258 
	1189.968,228.825 "/>
<polygon fill="#FFD592" stroke="#000000" stroke-miterlimit="10" points="1130.279,242.17 1160.61,251.391 1160.61,260.611 
	1130.279,260.611 "/>
<polygon fill="#FFD592" stroke="#000000" stroke-miterlimit="10" points="1189.968,242.17 1160.61,251.391 1160.61,260.611 
	1189.968,260.611 "/>
<polygon fill="#FFD592" stroke="#000000" stroke-miterlimit="10" points="1219.085,218.391 1248.688,218.391 1248.688,239.258 
	1219.085,228.825 "/>
<polygon fill="#FFD592" stroke="#000000" stroke-miterlimit="10" points="1219.085,242.17 1219.085,260.611 1248.688,260.611 
	1248.688,251.391 "/>
<polygon fill="#FFD592" stroke="#000000" stroke-miterlimit="10" points="1248.688,218.391 1279.746,218.391 1279.746,228.825 
	1248.688,239.258 "/>
<polygon fill="#FFD592" stroke="#000000" stroke-miterlimit="10" points="1248.688,251.391 1279.746,242.17 1279.746,260.611 
	1248.688,260.611 "/>
<polygon fill="#FFD592" stroke="#000000" stroke-miterlimit="10" points="1279.746,218.391 1309.832,218.391 1309.832,239.258 
	1279.746,228.825 "/>
<polygon fill="#FFD592" stroke="#000000" stroke-miterlimit="10" points="1279.746,260.611 1309.832,260.611 1309.832,251.391 
	1279.746,242.17 "/>
<rect x="1554.231" y="266.676" fill="#BCBEC0" stroke="#000000" stroke-miterlimit="10" width="17.833" height="39.307"/>
<polyline fill="#BCBEC0" stroke="#000000" stroke-miterlimit="10" points="1572.064,301.07 1554.231,301.07 1554.231,296.338 
	1572.064,296.338 1572.064,291.605 1554.231,291.605 1554.231,286.33 1572.064,286.33 1572.064,281.416 1554.231,281.416 
	1554.231,276.686 1572.064,276.686 1572.064,271.59 1554.231,271.59 "/>
<polygon fill="#FFD592" stroke="#000000" stroke-miterlimit="10" points="1323.904,218.391 1349.504,218.391 1349.504,239.258 
	1323.904,249.448 "/>
<polyline fill="#FFD592" stroke="#000000" stroke-miterlimit="10" points="1349.504,218.391 1375.83,218.391 1375.83,249.448 
	1349.504,239.258 "/>
<polygon fill="#FFD592" stroke="#000000" stroke-miterlimit="10" points="1375.83,218.391 1401.549,218.391 1401.549,239.258 
	1375.83,249.448 "/>
<polyline fill="#FFD592" stroke="#000000" stroke-miterlimit="10" points="1401.549,218.391 1428.24,218.391 1428.24,249.448 
	1401.549,239.258 "/>
<polygon fill="#FFD592" stroke="#000000" stroke-miterlimit="10" points="1428.24,218.391 1454.445,218.391 1454.445,239.258 
	1428.24,249.448 "/>
<polyline fill="#FFD592" stroke="#000000" stroke-miterlimit="10" points="1454.445,218.391 1480.406,218.391 1480.406,249.448 
	1454.445,239.258 "/>
<polygon fill="#FFD592" stroke="#000000" stroke-miterlimit="10" points="1480.406,218.391 1506.611,218.391 1506.611,239.092 
	1480.406,249.694 "/>
<polyline fill="#FFD592" stroke="#000000" stroke-miterlimit="10" points="1506.611,218.391 1533.061,218.391 1533.061,249.448 
	1506.611,239.092 "/>
<line fill="none" stroke="#000000" stroke-miterlimit="10" x1="1572.064" y1="301.07" x2="1572.064" y2="296.338"/>
<line fill="none" stroke="#000000" stroke-miterlimit="10" x1="1302.796" y1="311.014" x2="1302.796" y2="397.943"/>
<rect x="1302.796" y="338.678" fill="#BCBEC0" stroke="#000000" stroke-miterlimit="10" width="39.307" height="17.834"/>
<polyline fill="#BCBEC0" stroke="#000000" stroke-miterlimit="10" points="1307.708,356.512 1307.708,338.678 1312.44,338.678 
	1312.44,356.512 1317.172,356.512 1317.172,338.678 1322.449,338.678 1322.449,356.512 1327.361,356.512 1327.361,338.678 
	1332.094,338.678 1332.094,356.512 1337.188,356.512 1337.188,338.678 "/>
<line fill="none" stroke="#000000" stroke-miterlimit="10" x1="1307.708" y1="356.512" x2="1312.44" y2="356.512"/>
<line fill="none" stroke="#000000" stroke-miterlimit="10" x1="1337.188" y1="338.678" x2="1332.094" y2="338.678"/>
<polygon fill="#FFD592" stroke="#000000" stroke-miterlimit="10" points="849.389,459.92 849.389,482.123 878.506,471.021 
	878.506,459.92 "/>
<polygon fill="#FFD592" stroke="#000000" stroke-miterlimit="10" points="878.506,459.92 909.2,459.92 909.2,482.123 
	878.506,471.021 "/>
<polygon fill="#FFD592" stroke="#000000" stroke-miterlimit="10" points="909.2,459.92 909.2,482.123 940.015,471.021 
	940.015,459.92 "/>
<polygon fill="#FFD592" stroke="#000000" stroke-miterlimit="10" points="951.419,459.92 951.419,482.123 981.263,471.021 
	981.263,459.92 "/>
<polyline fill="#FFD592" stroke="#000000" stroke-miterlimit="10" points="981.263,459.92 1011.591,459.92 1011.591,482.123 
	981.263,471.021 "/>
<polygon fill="#FFD592" stroke="#000000" stroke-miterlimit="10" points="1011.591,459.92 1042.406,459.92 1042.406,471.021 
	1011.591,482.123 "/>
<polyline fill="#FFD592" stroke="#000000" stroke-miterlimit="10" points="1042.406,459.92 1072.494,459.92 1072.494,482.123 
	1042.406,471.021 "/>
<polygon fill="#FFD592" stroke="#000000" stroke-miterlimit="10" points="1114.471,484.146 1114.471,459.92 1083.898,459.92 
	1083.898,471.021 "/>
<polygon fill="#FFD592" stroke="#000000" stroke-miterlimit="10" points="1144.314,459.92 1114.471,459.92 1114.471,484.146 
	1144.314,471.021 "/>
<polygon fill="#FFD592" stroke="#000000" stroke-miterlimit="10" points="1174.645,459.92 1144.314,459.92 1144.314,471.021 
	1174.645,482.123 "/>
<polygon fill="#FFD592" stroke="#000000" stroke-miterlimit="10" points="849.389,507.723 878.506,507.723 878.506,486.613 
	849.389,497.166 "/>
<polygon fill="#FFD592" stroke="#000000" stroke-miterlimit="10" points="909.2,507.723 909.2,497.166 878.506,486.613 
	878.506,507.723 "/>
<polygon fill="#FFD592" stroke="#000000" stroke-miterlimit="10" points="940.015,507.723 940.015,486.613 909.2,497.166 
	909.2,507.723 "/>
<polygon fill="#FFD592" stroke="#000000" stroke-miterlimit="10" points="981.263,486.613 981.263,507.723 951.419,507.723 
	951.419,497.166 "/>
<polygon fill="#FFD592" stroke="#000000" stroke-miterlimit="10" points="1011.591,497.166 981.263,486.613 981.263,507.723 
	1011.591,507.723 "/>
<polygon fill="#FFD592" stroke="#000000" stroke-miterlimit="10" points="1042.406,485.777 1011.591,497.166 1011.591,507.723 
	1042.406,507.723 "/>
<polygon fill="#FFD592" stroke="#000000" stroke-miterlimit="10" points="1072.494,497.166 1042.406,485.777 1042.406,507.723 
	1072.494,507.723 "/>
<polygon fill="#FFD592" stroke="#000000" stroke-miterlimit="10" points="1083.898,507.723 1083.898,486.613 1114.471,497.166 
	1114.471,507.723 "/>
<polygon fill="#FFD592" stroke="#000000" stroke-miterlimit="10" points="1144.314,486.613 1114.471,497.166 1114.471,507.723 
	1144.314,507.723 "/>
<polygon fill="#FFD592" stroke="#000000" stroke-miterlimit="10" points="1174.645,507.723 1174.645,496.75 1144.314,486.613 
	1144.314,507.723 "/>
<rect x="860.672" y="397.32" fill="#6DC9E0" stroke="#000000" stroke-miterlimit="10" width="39.307" height="48.043"/>
<polyline fill="#6DC9E0" stroke="#000000" stroke-miterlimit="10" points="899.979,397.32 938.316,397.32 938.316,445.363 
	899.979,445.363 "/>
<polyline fill="#6DC9E0" stroke="#000000" stroke-miterlimit="10" points="938.316,397.32 974.712,397.32 974.712,445.363 
	938.316,445.363 "/>
<polyline fill="#6DC9E0" stroke="#000000" stroke-miterlimit="10" points="974.712,397.32 1012.806,397.32 1012.806,445.363 
	974.712,445.363 "/>
<polyline fill="#6DC9E0" stroke="#000000" stroke-miterlimit="10" points="1012.806,397.32 1049.929,397.32 1049.929,445.363 
	1012.806,445.363 "/>
<polyline fill="#6DC9E0" stroke="#000000" stroke-miterlimit="10" points="1049.929,397.32 1086.568,397.32 1086.568,445.363 
	1049.929,445.363 "/>
<rect x="1108.162" y="397.32" fill="#6DC9E0" stroke="#000000" stroke-miterlimit="10" width="38.337" height="48.043"/>
<rect x="1183.865" y="397.32" fill="#6DC9E0" stroke="#000000" stroke-miterlimit="10" width="59.445" height="48.043"/>
<rect x="1189.933" y="474.238" fill="#6DC9E0" stroke="#000000" stroke-miterlimit="10" width="53.378" height="33.484"/>
<polyline fill="#6DC9E0" stroke="#000000" stroke-miterlimit="10" points="1189.933,507.723 1189.933,542.176 1243.311,542.176 
	1243.311,507.723 "/>
<polyline fill="#6DC9E0" stroke="#000000" stroke-miterlimit="10" points="1146.499,397.32 1183.865,397.32 1183.865,445.363 
	1146.499,445.363 "/>
<rect x="1174.645" y="542.176" fill="#6DC9E0" stroke="#000000" stroke-miterlimit="10" width="68.666" height="34.455"/>
<rect x="1149.41" y="523.008" fill="#B6E29E" stroke="#000000" stroke-miterlimit="10" width="25.234" height="53.623"/>
<rect x="1115.44" y="523.008" fill="#6DC9E0" stroke="#000000" stroke-miterlimit="10" width="33.97" height="53.623"/>
<polyline fill="#6DC9E0" stroke="#000000" stroke-miterlimit="10" points="1115.44,523.008 1080.745,523.008 1080.745,576.631 
	1115.44,576.631 "/>
<polyline fill="#6DC9E0" stroke="#000000" stroke-miterlimit="10" points="1080.745,523.008 1046.046,523.008 1046.046,576.631 
	1080.745,576.631 "/>
<polyline fill="#6DC9E0" stroke="#000000" stroke-miterlimit="10" points="1046.046,523.008 1011.591,523.008 1011.591,576.631 
	1046.046,576.631 "/>
<polyline fill="#6DC9E0" stroke="#000000" stroke-miterlimit="10" points="1011.591,523.008 977.38,523.008 977.38,576.631 
	1011.591,576.631 "/>
<polyline fill="#6DC9E0" stroke="#000000" stroke-miterlimit="10" points="977.38,523.008 943.167,523.008 943.167,576.631 
	977.38,576.631 "/>
<polyline fill="#6DC9E0" stroke="#000000" stroke-miterlimit="10" points="943.167,523.008 909.2,523.008 909.2,576.631 
	943.167,576.631 "/>
<polyline fill="#6DC9E0" stroke="#000000" stroke-miterlimit="10" points="909.2,523.008 875.472,523.008 875.472,576.631 
	909.2,576.631 "/>
<polyline fill="#6DC9E0" stroke="#000000" stroke-miterlimit="10" points="875.472,523.008 833.254,523.008 833.254,576.631 
	875.472,576.631 "/>
<rect x="779.389" y="507.723" fill="#B6E29E" stroke="#000000" stroke-miterlimit="10" width="53.865" height="68.908"/>
<rect x="779.389" y="474.723" fill="#6DC9E0" stroke="#000000" stroke-miterlimit="10" width="53.865" height="33"/>
<rect x="820.15" y="397.32" fill="#B6E29E" stroke="#000000" stroke-miterlimit="10" width="40.521" height="15.773"/>
<rect x="779.389" y="397.32" fill="#6DC9E0" stroke="#000000" stroke-miterlimit="10" width="40.762" height="48.043"/>
<line fill="none" stroke="#000000" stroke-miterlimit="10" x1="779.389" y1="474.723" x2="779.389" y2="445.363"/>
<line fill="none" stroke="#000000" stroke-miterlimit="10" x1="1086.325" y1="397.32" x2="1108.162" y2="397.32"/>
<line fill="none" stroke="#000000" stroke-miterlimit="10" x1="1243.311" y1="445.363" x2="1243.311" y2="474.238"/>
<path fill="#BCBEC0" stroke="#000000" stroke-miterlimit="10" d="M794.367,474.723c0-3.012-0.846-14.066-14.912-14.066v14.066l0,0
	H794.367z"/>
<path fill="#BCBEC0" stroke="#000000" stroke-miterlimit="10" d="M779.389,459.861c3.222,0,15.043-0.822,15.043-14.498h-15.043l0,0
	V459.861z"/>
<path fill="#BCBEC0" stroke="#000000" stroke-miterlimit="10" d="M1228.332,474.234c0-2.934,0.844-13.703,14.91-13.703v13.703l0,0
	H1228.332z"/>
<path fill="#BCBEC0" stroke="#000000" stroke-miterlimit="10" d="M1243.311,459.736c-3.222,0-15.043-0.812-15.043-14.373h15.043l0,0
	V459.736z"/>
<path fill="#BCBEC0" stroke="#000000" stroke-miterlimit="10" d="M1086.775,302.316c2.193,0,10.247,0.496,10.247,8.73h-10.247l0,0
	V302.316z"/>
<path fill="#BCBEC0" stroke="#000000" stroke-miterlimit="10" d="M1097.601,311.086c0-1.885,0.599-8.807,10.562-8.807v8.807l0,0
	H1097.601z"/>
<path fill="#BCBEC0" stroke="#000000" stroke-miterlimit="10" d="M1086.672,388.539c2.194,0,10.247,0.496,10.247,8.732h-10.247l0,0
	V388.539z"/>
<path fill="#BCBEC0" stroke="#000000" stroke-miterlimit="10" d="M1097.498,397.309c0-1.885,0.598-8.807,10.56-8.807v8.807l0,0
	H1097.498z"/>
<path fill="#A7A9AC" stroke="#000000" stroke-miterlimit="10" d="M1288.376,347.596c0,7.236-5.812,13.104-12.983,13.104
	c-7.167,0-12.981-5.867-12.981-13.104c0-7.238,5.814-13.104,12.981-13.104C1282.563,334.492,1288.376,340.357,1288.376,347.596z"/>
<text transform="matrix(1 0 0 1 1271.918 353.4199)" font-family="'CenturyGothic'" font-size="17.4699">L</text>
<ellipse fill="#A7A9AC" stroke="#000000" stroke-miterlimit="10" cx="752.12" cy="347.596" rx="12.982" ry="13.104"/>
<text transform="matrix(1 0 0 1 748.6445 353.4199)" font-family="'CenturyGothic'" font-size="17.4699">L</text>
<text transform="matrix(1 0 0 1 1627.5986 183.0854)" font-family="'Gotham-Book'" font-size="12">R35</text>
<text transform="matrix(1 0 0 1 1591.2646 183.0854)" font-family="'Gotham-Book'" font-size="12">R36</text>
<text transform="matrix(1 0 0 1 1554.2314 183.0854)" font-family="'Gotham-Book'" font-size="12">R37</text>
<text transform="matrix(1 0 0 1 1516.8359 183.0854)" font-family="'Gotham-Book'" font-size="12">R38</text>
<text transform="matrix(1 0 0 1 1480.4062 183.0854)" font-family="'Gotham-Book'" font-size="12">R39</text>
<text transform="matrix(1 0 0 1 1443.5986 183.0854)" font-family="'Gotham-Book'" font-size="12">R40</text>
<text transform="matrix(1 0 0 1 1407.2656 183.0854)" font-family="'Gotham-Book'" font-size="12">R41</text>
<text transform="matrix(1 0 0 1 1371.2656 183.0854)" font-family="'Gotham-Book'" font-size="12">R42</text>
<text transform="matrix(1 0 0 1 1323.9043 183.0854)" font-family="'Gotham-Book'" font-size="12">R43</text>
<text transform="matrix(1 0 0 1 1232.8867 183.0854)" font-family="'Gotham-Book'" font-size="12">R44</text>
<text transform="matrix(1 0 0 1 1273.7803 172.9038)"><tspan x="0" y="0" font-family="'Gotham-Book'" font-size="8">Meeting</tspan><tspan x="2.933" y="9.6" font-family="'Gotham-Book'" font-size="8">Room </tspan><tspan x="11.977" y="19.2" font-family="'Gotham-Book'" font-size="8">16</tspan></text>
<text transform="matrix(1 0 0 1 1117.4199 178.8433)" font-family="'Gotham-Book'" font-size="12">Meeting Room</text>
<text transform="matrix(1 0 0 1 1516.8359 290.0859)" font-family="'Gotham-Book'" font-size="12">R34</text>
<text transform="matrix(1 0 0 1 1480.4062 290.0859)" font-family="'Gotham-Book'" font-size="12">R33</text>
<text transform="matrix(1 0 0 1 1443.5986 290.0859)" font-family="'Gotham-Book'" font-size="12">R32</text>
<text transform="matrix(1 0 0 1 1408.5986 290.0859)" font-family="'Gotham-Book'" font-size="12">R31</text>
<text transform="matrix(1 0 0 1 1329.5137 290.0859)" font-family="'Gotham-Book'" font-size="12">Compactor</text>
<text transform="matrix(1 0 0 1 1582.498 257.7515)" font-family="'Gotham-Book'" font-size="12">Store</text>
<text transform="matrix(1 0 0 1 1618.5986 257.7515)" font-family="'Gotham-Book'" font-size="12">Pantry</text>
<text transform="matrix(1 0 0 1 1223.5986 229.8257)" font-family="'Gotham-Book'" font-size="12">S42</text>
<text transform="matrix(1 0 0 1 1251.0137 229.8257)" font-family="'Gotham-Book'" font-size="12">S43</text>
<text transform="matrix(1 0 0 1 1284.0137 229.8257)" font-family="'Gotham-Book'" font-size="12">S44</text>
<text transform="matrix(1 0 0 1 1220.085 258.7515)" font-family="'Gotham-Book'" font-size="12">S45</text>
<text transform="matrix(1 0 0 1 1254.085 258.7515)" font-family="'Gotham-Book'" font-size="12">S46</text>
<text transform="matrix(1 0 0 1 1280.752 258.7515)" font-family="'Gotham-Book'" font-size="12">S47</text>
<text transform="matrix(1 0 0 1 1325.418 234.0425)" font-family="'Gotham-Book'" font-size="12">S48</text>
<text transform="matrix(1 0 0 1 1350.752 234.0425)" font-family="'Gotham-Book'" font-size="12">S49</text>
<text transform="matrix(1 0 0 1 1377.4189 234.0425)" font-family="'Gotham-Book'" font-size="12">S50</text>
<text transform="matrix(1 0 0 1 1404.7637 234.0425)" font-family="'Gotham-Book'" font-size="12">S51</text>
<text transform="matrix(1 0 0 1 1430.0967 233.9194)" font-family="'Gotham-Book'" font-size="12">S52</text>
<text transform="matrix(1 0 0 1 1455.6582 234.0425)" font-family="'Gotham-Book'" font-size="12">S53</text>
<text transform="matrix(1 0 0 1 1482.4297 234.0425)" font-family="'Gotham-Book'" font-size="12">S54</text>
<text transform="matrix(1 0 0 1 1508.4297 233.9194)" font-family="'Gotham-Book'" font-size="12">S55</text>
<text transform="matrix(1 0 0 1 1181.9629 351.377)"><tspan x="0" y="0" font-family="'Gotham-Book'" font-size="12">Female</tspan><tspan x="4.902" y="14.4" font-family="'Gotham-Book'" font-size="12">Toilet</tspan></text>
<text transform="matrix(1 0 0 1 1112.1924 346.377)"><tspan x="0" y="0" font-family="'Gotham-Book'" font-size="12">Meeting</tspan><tspan x="6.198" y="14.4" font-family="'Gotham-Book'" font-size="12">Room</tspan><tspan x="18.066" y="28.799" font-family="'Gotham-Book'" font-size="12">18</tspan></text>
<text transform="matrix(1 0 0 1 1105.9795 228.8257)" font-family="'Gotham-Book'" font-size="12">S36</text>
<text transform="matrix(1 0 0 1 1136.3945 228.8257)" font-family="'Gotham-Book'" font-size="12">S37</text>
<text transform="matrix(1 0 0 1 1163.3945 228.8257)" font-family="'Gotham-Book'" font-size="12">S38</text>
<text transform="matrix(1 0 0 1 1107.1865 257.7515)" font-family="'Gotham-Book'" font-size="12">S39</text>
<text transform="matrix(1 0 0 1 1130.6016 257.7515)" font-family="'Gotham-Book'" font-size="12">S40</text>
<text transform="matrix(1 0 0 1 1168.6016 257.7515)" font-family="'Gotham-Book'" font-size="12">S41</text>
<text transform="matrix(1 0 0 1 1065.1113 169.9038)"><tspan x="0" y="0" font-family="'Gotham-Book'" font-size="9">Meeting</tspan><tspan x="4.648" y="10.8" font-family="'Gotham-Book'" font-size="9">Room</tspan></text>
<text transform="matrix(1 0 0 1 921.0195 164.9038)"><tspan x="0" y="0" font-family="'Gotham-Book'" font-size="9">Meeting</tspan><tspan x="4.648" y="10.8" font-family="'Gotham-Book'" font-size="9">Room</tspan><tspan x="13.626" y="21.6" font-family="'Gotham-Book'" font-size="9">13</tspan></text>
<text transform="matrix(1 0 0 1 820.0293 178.8433)" font-family="'Gotham-Book'" font-size="12">Meeting Room</text>
<text transform="matrix(1 0 0 1 778.5908 184.061)" font-family="'Gotham-Book'" font-size="12">R1</text>
<text transform="matrix(1 0 0 1 740.5908 184.061)" font-family="'Gotham-Book'" font-size="12">R2</text>
<text transform="matrix(1 0 0 1 703.9238 184.061)" font-family="'Gotham-Book'" font-size="12">R3</text>
<text transform="matrix(1 0 0 1 666.8965 184.061)" font-family="'Gotham-Book'" font-size="12">R4</text>
<text transform="matrix(1 0 0 1 630.2578 184.061)" font-family="'Gotham-Book'" font-size="12">R5</text>
<text transform="matrix(1 0 0 1 593.6064 184.061)" font-family="'Gotham-Book'" font-size="12">R6</text>
<text transform="matrix(1 0 0 1 557.5908 184.061)" font-family="'Gotham-Book'" font-size="12">R7</text>
<text transform="matrix(1 0 0 1 521.2598 184.061)" font-family="'Gotham-Book'" font-size="12">R8</text>
<text transform="matrix(1 0 0 1 485.5049 184.061)" font-family="'Gotham-Book'" font-size="12">R9</text>
<text transform="matrix(1 0 0 1 445.8379 184.061)" font-family="'Gotham-Book'" font-size="12">R10</text>
<text transform="matrix(1 0 0 1 410.3379 184.061)" font-family="'Gotham-Book'" font-size="12">R11</text>
<text transform="matrix(1 0 0 1 371.8379 184.061)" font-family="'Gotham-Book'" font-size="12">R12</text>
<text transform="matrix(1 0 0 1 335.4297 184.061)" font-family="'Gotham-Book'" font-size="12">R13</text>
<text transform="matrix(1 0 0 1 298.0742 184.061)" font-family="'Gotham-Book'" font-size="12">R14</text>
<text transform="matrix(1 0 0 1 261.666 184.061)" font-family="'Gotham-Book'" font-size="12">R15</text>
<text transform="matrix(1 0 0 1 591.4668 290.084)" font-family="'Gotham-Book'" font-size="12">R24</text>
<text transform="matrix(1 0 0 1 554.1367 290.084)" font-family="'Gotham-Book'" font-size="12">R23</text>
<text transform="matrix(1 0 0 1 518.3809 290.084)" font-family="'Gotham-Book'" font-size="12">R22</text>
<text transform="matrix(1 0 0 1 482.7148 290.084)" font-family="'Gotham-Book'" font-size="12">R21</text>
<text transform="matrix(1 0 0 1 445.2148 290.084)" font-family="'Gotham-Book'" font-size="12">R20</text>
<text transform="matrix(1 0 0 1 408.7148 290.084)" font-family="'Gotham-Book'" font-size="12">R19</text>
<text transform="matrix(1 0 0 1 371.3066 290.084)" font-family="'Gotham-Book'" font-size="12">R18</text>
<text transform="matrix(1 0 0 1 334.9512 290.084)" font-family="'Gotham-Book'" font-size="12">R17</text>
<text transform="matrix(1 0 0 1 298.543 290.084)" font-family="'Gotham-Book'" font-size="12">R16</text>
<text transform="matrix(1 0 0 1 625.5557 290.084)" font-family="'Gotham-Book'" font-size="12">Compactor</text>
<text transform="matrix(1 0 0 1 1054.4629 290.084)" font-family="'Gotham-Book'" font-size="12">R30</text>
<text transform="matrix(1 0 0 1 1016.4355 290.084)" font-family="'Gotham-Book'" font-size="12">R29</text>
<text transform="matrix(1 0 0 1 978.7949 290.084)" font-family="'Gotham-Book'" font-size="12">R28</text>
<text transform="matrix(1 0 0 1 940.1445 290.084)" font-family="'Gotham-Book'" font-size="12">R27</text>
<text transform="matrix(1 0 0 1 902.1289 290.084)" font-family="'Gotham-Book'" font-size="12">R26</text>
<text transform="matrix(1 0 0 1 866.7988 290.084)" font-family="'Gotham-Book'" font-size="12">R25</text>
<text transform="matrix(1 0 0 1 553.9688 226.8252)" font-family="'Gotham-Book'" font-size="9"> S11  S12</text>
<text transform="matrix(1 0 0 1 597.1836 245.8252)" font-family="'Gotham-Book'" font-size="9">S13  S14</text>
<text transform="matrix(1 0 0 1 637.8506 226.8252)" font-family="'Gotham-Book'" font-size="9"> S15</text>
<text transform="matrix(1 0 0 1 682.4336 244.8252)" font-family="'Gotham-Book'" font-size="9">S17</text>
<text transform="matrix(1 0 0 1 657.1055 226.8252)" font-family="'Gotham-Book'" font-size="9">S16</text>
<text transform="matrix(1 0 0 1 858.8848 226.8252)" font-family="'Gotham-Book'" font-size="9">S25 S26</text>
<text transform="matrix(1 0 0 1 900.0996 245.8252)" font-family="'Gotham-Book'" font-size="9">S27 S28</text>
<text transform="matrix(1 0 0 1 941.7656 226.8252)" font-family="'Gotham-Book'" font-size="9">S29</text>
<text transform="matrix(1 0 0 1 985.3486 244.8252)" font-family="'Gotham-Book'" font-size="9">S31 S32</text>
<text transform="matrix(1 0 0 1 961.0215 226.8252)" font-family="'Gotham-Book'" font-size="9">S30</text>
<text transform="matrix(1 0 0 1 1024.6074 226.8252)" font-family="'Gotham-Book'" font-size="9">S33</text>
<text transform="matrix(1 0 0 1 1043.8633 226.8252)" font-family="'Gotham-Book'" font-size="9">S34</text>
<text transform="matrix(1 0 0 1 1069.1562 245.8252)" font-family="'Gotham-Book'" font-size="9">S35</text>
<text transform="matrix(1 0 0 1 836.6562 245.8252)" font-family="'Gotham-Book'" font-size="9">S24</text>
<text transform="matrix(1 0 0 1 747.2598 258.751)" font-family="'Gotham-Book'" font-size="9">S22</text>
<text transform="matrix(1 0 0 1 783.7598 258.751)" font-family="'Gotham-Book'" font-size="9">S23</text>
<text transform="matrix(1 0 0 1 722.3662 258.751)" font-family="'Gotham-Book'" font-size="9">S21</text>
<text transform="matrix(1 0 0 1 750.457 226.8252)" font-family="'Gotham-Book'" font-size="9">S19</text>
<text transform="matrix(1 0 0 1 779.957 226.8252)" font-family="'Gotham-Book'" font-size="9">S20</text>
<text transform="matrix(1 0 0 1 718.5635 226.8252)" font-family="'Gotham-Book'" font-size="9">S18</text>
<text transform="matrix(1 0 0 1 276.6719 231.8252)" font-family="'Gotham-Book'" font-size="12"> S1    S2</text>
<text transform="matrix(1 0 0 1 329.8384 231.8252)" font-family="'Gotham-Book'" font-size="12"> S3   S4</text>
<text transform="matrix(1 0 0 1 381.9463 231.8252)" font-family="'Gotham-Book'" font-size="12"> S5   S6</text>
<text transform="matrix(1 0 0 1 435.6133 231.8252)" font-family="'Gotham-Book'" font-size="12"> S7   S8</text>
<text transform="matrix(1 0 0 1 488.5049 226.8252)" font-family="'Gotham-Book'" font-size="9">S9</text>
<text transform="matrix(1 0 0 1 509.7871 244.8252)" font-family="'Gotham-Book'" font-size="9">S10</text>
<text transform="matrix(1 0 0 1 806.2178 351.377)"><tspan x="0" y="0" font-family="'Gotham-Book'" font-size="12">Male</tspan><tspan x="-3.084" y="14.4" font-family="'Gotham-Book'" font-size="12">Toilet</tspan></text>
<text transform="matrix(1 0 0 1 1054.8535 425.3418)" font-family="'Gotham-Book'" font-size="12">R45</text>
<text transform="matrix(1 0 0 1 1019.8262 425.3418)" font-family="'Gotham-Book'" font-size="12">R46</text>
<text transform="matrix(1 0 0 1 982.1855 425.3418)" font-family="'Gotham-Book'" font-size="12">R47</text>
<text transform="matrix(1 0 0 1 943.5352 425.3418)" font-family="'Gotham-Book'" font-size="12">R48</text>
<text transform="matrix(1 0 0 1 906.5195 425.3418)" font-family="'Gotham-Book'" font-size="12">R49</text>
<text transform="matrix(1 0 0 1 867.1895 425.3418)" font-family="'Gotham-Book'" font-size="12">R50</text>
<text transform="matrix(1 0 0 1 1200.4258 425.3418)" font-family="'Gotham-Book'" font-size="12">R65</text>
<text transform="matrix(1 0 0 1 1153.3613 425.3418)" font-family="'Gotham-Book'" font-size="12">R66</text>
<text transform="matrix(1 0 0 1 1116.7207 425.3418)" font-family="'Gotham-Book'" font-size="12">R67</text>
<text transform="matrix(1 0 0 1 1016.8262 553.3418)" font-family="'Gotham-Book'" font-size="12">R58</text>
<text transform="matrix(1 0 0 1 983.1855 553.3418)" font-family="'Gotham-Book'" font-size="12">R57</text>
<text transform="matrix(1 0 0 1 948.4189 553.3418)" font-family="'Gotham-Book'" font-size="12">R56</text>
<text transform="matrix(1 0 0 1 914.8545 553.3418)" font-family="'Gotham-Book'" font-size="12">R55</text>
<text transform="matrix(1 0 0 1 880.8389 553.3418)" font-family="'Gotham-Book'" font-size="12">R54</text>
<text transform="matrix(1 0 0 1 843.5078 553.3418)" font-family="'Gotham-Book'" font-size="12">R53</text>
<text transform="matrix(1 0 0 1 1051.1797 553.3418)" font-family="'Gotham-Book'" font-size="12">R59</text>
<text transform="matrix(1 0 0 1 1086.5684 553.3418)" font-family="'Gotham-Book'" font-size="12">R60</text>
<text transform="matrix(1 0 0 1 1121.4199 553.3418)" font-family="'Gotham-Book'" font-size="12">R61</text>
<text transform="matrix(1 0 0 1 1204.7598 494.8906)" font-family="'Gotham-Book'" font-size="12">R64</text>
<text transform="matrix(1 0 0 1 1204.7598 527.8906)" font-family="'Gotham-Book'" font-size="12">R63</text>
<text transform="matrix(1 0 0 1 1197.0938 564.5586)" font-family="'Gotham-Book'" font-size="12">R62</text>
<text transform="matrix(1 0 0 1 794.2715 494.8906)" font-family="'Gotham-Book'" font-size="12">R52</text>
<text transform="matrix(1 0 0 1 789.2598 426.3418)" font-family="'Gotham-Book'" font-size="12">R51</text>
<text transform="matrix(1 0 0 1 1150.5967 551.0098)" font-family="'Gotham-Book'" font-size="7">pantry</text>
<text transform="matrix(1 0 0 1 786.5039 540.1758)"><tspan x="0" y="0" font-family="'Gotham-Book'" font-size="12">Coffee</tspan><tspan x="-0.596" y="14.4" font-family="'Gotham-Book'" font-size="12">Corner</tspan></text>
<text transform="matrix(1 0 0 1 883.5811 503.7402)" font-family="'Gotham-Book'" font-size="9">S74</text>
<text transform="matrix(1 0 0 1 920.0811 503.7402)" font-family="'Gotham-Book'" font-size="9">S73</text>
<text transform="matrix(1 0 0 1 858.6875 503.7402)" font-family="'Gotham-Book'" font-size="9">S75</text>
<text transform="matrix(1 0 0 1 886.7783 469.8145)" font-family="'Gotham-Book'" font-size="9">S71</text>
<text transform="matrix(1 0 0 1 916.2783 469.8145)" font-family="'Gotham-Book'" font-size="9">S70</text>
<text transform="matrix(1 0 0 1 854.8848 469.8145)" font-family="'Gotham-Book'" font-size="9">S72</text>
<text transform="matrix(1 0 0 1 985.9561 503.5762)" font-family="'Gotham-Book'" font-size="9">S68</text>
<text transform="matrix(1 0 0 1 1022.4561 503.5762)" font-family="'Gotham-Book'" font-size="9">S67</text>
<text transform="matrix(1 0 0 1 959.0625 503.5762)" font-family="'Gotham-Book'" font-size="9">S69</text>
<text transform="matrix(1 0 0 1 989.1533 469.6504)" font-family="'Gotham-Book'" font-size="9">S64</text>
<text transform="matrix(1 0 0 1 1018.6533 469.6504)" font-family="'Gotham-Book'" font-size="9">S63</text>
<text transform="matrix(1 0 0 1 957.2598 469.6504)" font-family="'Gotham-Book'" font-size="9">S65</text>
<text transform="matrix(1 0 0 1 1049.9287 469.8145)" font-family="'Gotham-Book'" font-size="9">S62</text>
<text transform="matrix(1 0 0 1 1047.9287 503.5762)" font-family="'Gotham-Book'" font-size="9">S66</text>
<text transform="matrix(1 0 0 1 1122.1797 503.7402)" font-family="'Gotham-Book'" font-size="9">S60</text>
<text transform="matrix(1 0 0 1 1150.2158 503.5762)" font-family="'Gotham-Book'" font-size="9">S59</text>
<text transform="matrix(1 0 0 1 1088.8223 503.5762)" font-family="'Gotham-Book'" font-size="9">S61</text>
<text transform="matrix(1 0 0 1 1120.7158 469.6504)" font-family="'Gotham-Book'" font-size="9">S59</text>
<text transform="matrix(1 0 0 1 1150.2158 469.6504)" font-family="'Gotham-Book'" font-size="9">S60</text>
<text transform="matrix(1 0 0 1 1088.8223 469.6504)" font-family="'Gotham-Book'" font-size="9">S58</text>
</svg>
