<?xml version="1.0" encoding="utf-8"?>
<!-- Generator: Adobe Illustrator 16.0.0, SVG Export Plug-In . SVG Version: 6.00 Build 0)  -->
<!DOCTYPE svg PUBLIC "-//W3C//DTD SVG 1.1//EN" "http://www.w3.org/Graphics/SVG/1.1/DTD/svg11.dtd">
<svg version="1.1" id="Layer_1" xmlns="http://www.w3.org/2000/svg" xmlns:xlink="http://www.w3.org/1999/xlink" x="0px" y="0px"
	 width="1620.811px" height="371.08px" viewBox="0 0 1620.811 371.08" enable-background="new 0 0 1620.811 371.08"
	 xml:space="preserve">
<rect x="931.312" y="50.578" fill="#C1DC9F" stroke="#000000" stroke-miterlimit="10" width="66" height="66.667"/>
<polygon fill="#83C8DE" stroke="#000000" stroke-miterlimit="10" points="997.312,50.578 1077.312,50.578 1077.312,65.578 
	1077.312,117.245 997.312,117.245 "/>
<rect x="1077.312" y="65.578" fill="#83C8DE" stroke="#000000" stroke-miterlimit="10" width="40.668" height="51.667"/>
<rect x="1117.979" y="65.578" fill="#83C8DE" stroke="#000000" stroke-miterlimit="10" width="40.332" height="51.667"/>
<rect x="1158.312" y="65.578" fill="#83C8DE" stroke="#000000" stroke-miterlimit="10" width="39" height="51.667"/>
<rect x="1197.312" y="65.578" fill="#83C8DE" stroke="#000000" stroke-miterlimit="10" width="51" height="64"/>
<rect x="1248.312" y="65.578" fill="#83C8DE" stroke="#000000" stroke-miterlimit="10" width="51.5" height="64"/>
<rect x="1299.812" y="65.578" fill="#83C8DE" stroke="#000000" stroke-miterlimit="10" width="46.75" height="64"/>
<rect x="1346.562" y="65.578" fill="#83C8DE" stroke="#000000" stroke-miterlimit="10" width="47.5" height="64"/>
<rect x="1394.062" y="65.578" fill="#83C8DE" stroke="#000000" stroke-miterlimit="10" width="46.5" height="64"/>
<rect x="1440.562" y="65.578" fill="#83C8DE" stroke="#000000" stroke-miterlimit="10" width="43.75" height="64"/>
<rect x="1484.312" y="65.578" fill="#83C8DE" stroke="#000000" stroke-miterlimit="10" width="42.75" height="64"/>
<rect x="1527.062" y="65.578" fill="#83C8DE" stroke="#000000" stroke-miterlimit="10" width="43.75" height="64"/>
<rect x="960.312" y="229.829" fill="#83C8DE" stroke="#000000" stroke-miterlimit="10" width="60.75" height="91.25"/>
<rect x="1021.062" y="229.829" fill="#F284AF" stroke="#000000" stroke-miterlimit="10" width="90.25" height="45.875"/>
<rect x="1021.062" y="275.704" fill="#F284AF" stroke="#000000" stroke-miterlimit="10" width="90.25" height="45.375"/>
<rect x="1523.312" y="152.828" fill="#C1DC9F" stroke="#000000" stroke-miterlimit="10" width="47.5" height="31.25"/>
<polyline fill="#C1DC9F" stroke="#000000" stroke-miterlimit="10" points="1523.312,152.828 1479.812,152.828 1479.812,184.078 
	1523.312,184.078 "/>
<rect x="1403.312" y="177.828" fill="#83C8DE" stroke="#000000" stroke-miterlimit="10" width="44.75" height="52"/>
<rect x="1363.562" y="177.828" fill="#83C8DE" stroke="#000000" stroke-miterlimit="10" width="39.75" height="52"/>
<rect x="1323.187" y="177.828" fill="#83C8DE" stroke="#000000" stroke-miterlimit="10" width="40.375" height="52"/>
<polygon fill="#FED497" stroke="#000000" stroke-miterlimit="10" points="1154.478,133.328 1154.478,155.578 1120.478,155.578 
	1120.478,144.453 "/>
<polygon fill="#FED497" stroke="#000000" stroke-miterlimit="10" points="1187.979,155.578 1154.478,155.578 1154.478,133.328 
	1187.979,144.453 "/>
<polygon fill="#FED497" stroke="#000000" stroke-miterlimit="10" points="1187.979,167.245 1154.478,177.912 1154.478,155.578 
	1187.979,155.578 "/>
<polygon fill="#FED497" stroke="#000000" stroke-miterlimit="10" points="1120.478,165.078 1120.478,155.578 1154.478,155.578 
	1154.478,177.912 "/>
<polygon fill="#FED497" stroke="#000000" stroke-miterlimit="10" points="1187.979,183.245 1187.979,205.219 1154.478,205.219 
	1154.478,194.231 "/>
<polygon fill="#FED497" stroke="#000000" stroke-miterlimit="10" points="1120.478,183.245 1154.478,194.231 1154.478,205.219 
	1120.478,205.219 "/>
<polygon fill="#FED497" stroke="#000000" stroke-miterlimit="10" points="1206.979,144.453 1240.146,144.453 1240.146,156.578 
	1206.979,167.745 "/>
<polygon fill="#FED497" stroke="#000000" stroke-miterlimit="10" points="1273.979,144.453 1240.146,144.453 1240.146,156.578 
	1273.979,167.745 "/>
<polygon fill="#FED497" stroke="#000000" stroke-miterlimit="10" points="1206.979,194.231 1240.146,194.231 1240.146,172.412 
	1206.979,184.078 "/>
<polygon fill="#FED497" stroke="#000000" stroke-miterlimit="10" points="1273.979,194.231 1240.146,194.231 1240.146,172.412 
	1273.979,183.321 "/>
<polygon fill="#FED497" stroke="#000000" stroke-miterlimit="10" points="1307.146,172.412 1307.146,194.231 1273.979,194.231 
	1273.979,183.321 "/>
<polygon fill="#FED497" stroke="#000000" stroke-miterlimit="10" points="1273.979,167.745 1307.146,156.099 1307.146,144.453 
	1273.979,144.453 "/>
<polygon fill="#FED497" stroke="#000000" stroke-miterlimit="10" points="1206.979,229.829 1234.812,229.829 1234.812,207.079 
	1206.979,218.454 "/>
<polygon fill="#FED497" stroke="#000000" stroke-miterlimit="10" points="1261.979,218.454 1234.812,207.079 1234.812,229.829 
	1261.979,229.829 "/>
<polygon fill="#FED497" stroke="#000000" stroke-miterlimit="10" points="1290.562,207.079 1261.979,218.454 1261.979,229.829 
	1290.562,229.829 "/>
<polygon fill="#FED497" stroke="#000000" stroke-miterlimit="10" points="1317.146,218.454 1290.562,207.079 1290.562,229.829 
	1317.146,229.829 "/>
<polygon fill="#FED497" stroke="#000000" stroke-miterlimit="10" points="1348.646,142.912 1382.146,142.912 1382.146,154.246 
	1348.646,164.579 "/>
<polygon fill="#FED497" stroke="#000000" stroke-miterlimit="10" points="1415.146,142.912 1415.146,153.745 1382.146,164.579 
	1382.146,142.912 "/>
<polygon fill="#FED497" stroke="#000000" stroke-miterlimit="10" points="1448.062,142.912 1448.062,164.579 1415.146,153.745 
	1415.146,142.912 "/>
<line fill="none" stroke="#000000" stroke-miterlimit="10" x1="1570.812" y1="129.578" x2="1570.812" y2="152.828"/>
<line fill="none" stroke="#000000" stroke-miterlimit="10" x1="1479.812" y1="184.078" x2="1448.062" y2="184.078"/>
<line fill="none" stroke="#000000" stroke-miterlimit="10" x1="1323.187" y1="229.829" x2="1317.146" y2="229.829"/>
<line fill="none" stroke="#000000" stroke-miterlimit="10" x1="931.312" y1="321.079" x2="960.312" y2="321.079"/>
<rect x="1452.771" y="184.078" fill="#BCBEC0" stroke="#000000" stroke-miterlimit="10" width="12.25" height="27"/>
<polyline fill="#BCBEC0" stroke="#000000" stroke-miterlimit="10" points="1465.021,207.704 1452.771,207.704 1452.771,204.454 
	1465.021,204.454 1465.021,201.204 1452.771,201.204 1452.771,197.579 1465.021,197.579 1465.021,194.204 1452.771,194.204 
	1452.771,190.954 1465.021,190.954 1465.021,187.454 1452.771,187.454 "/>
<rect x="904.312" y="281.704" fill="#BCBEC0" stroke="#000000" stroke-miterlimit="10" width="27" height="12.25"/>
<polyline fill="#BCBEC0" stroke="#000000" stroke-miterlimit="10" points="927.937,281.704 927.937,293.954 924.687,293.954 
	924.687,281.704 921.437,281.704 921.437,293.954 917.812,293.954 917.812,281.704 914.437,281.704 914.437,293.954 
	911.187,293.954 911.187,281.704 907.687,281.704 907.687,293.954 "/>
<polygon fill="#FED497" stroke="#000000" stroke-miterlimit="10" points="1097.651,133.328 1091.979,157.078 1091.979,166.078 
	1120.478,166.078 1120.478,133.328 "/>
<polygon fill="#FED497" stroke="#000000" stroke-miterlimit="10" points="1120.478,197.579 1120.478,166.078 1091.979,166.078 
	1091.979,174.578 1097.651,197.579 "/>
<polygon fill="#FED497" stroke="#000000" stroke-miterlimit="10" points="1086.306,133.328 1091.978,157.078 1091.978,166.078 
	1063.479,166.078 1063.479,133.328 "/>
<polygon fill="#FED497" stroke="#000000" stroke-miterlimit="10" points="1063.479,197.579 1063.479,166.078 1091.978,166.078 
	1091.978,174.578 1086.306,197.579 "/>
<polygon fill="#FED497" stroke="#000000" stroke-miterlimit="10" points="1040.651,133.328 1034.979,157.078 1034.979,166.078 
	1063.479,166.078 1063.479,133.328 "/>
<polygon fill="#FED497" stroke="#000000" stroke-miterlimit="10" points="1063.479,197.579 1063.479,166.078 1034.979,166.078 
	1034.979,174.578 1040.651,197.579 "/>
<polygon fill="#FED497" stroke="#000000" stroke-miterlimit="10" points="1029.306,133.328 1034.979,157.078 1034.979,166.078 
	1006.479,166.078 1006.479,133.328 "/>
<polygon fill="#FED497" stroke="#000000" stroke-miterlimit="10" points="1006.479,197.579 1006.479,166.078 1034.979,166.078 
	1034.979,174.578 1029.306,197.579 "/>
<polygon fill="#FED497" stroke="#000000" stroke-miterlimit="10" points="965.485,133.953 959.812,157.703 959.812,166.703 
	988.312,166.703 988.312,133.953 "/>
<polygon fill="#FED497" stroke="#000000" stroke-miterlimit="10" points="988.312,198.204 988.312,166.703 959.812,166.703 
	959.812,175.203 965.485,198.204 "/>
<polygon fill="#FED497" stroke="#000000" stroke-miterlimit="10" points="954.138,133.953 959.812,157.703 959.812,166.703 
	931.312,166.703 931.312,133.953 "/>
<polygon fill="#FED497" stroke="#000000" stroke-miterlimit="10" points="931.312,198.204 931.312,166.703 959.812,166.703 
	959.812,175.203 954.138,198.204 "/>
<line fill="none" stroke="#000000" stroke-miterlimit="10" x1="931.312" y1="273.307" x2="931.312" y2="302.538"/>
<path fill="#BCBEC0" stroke="#000000" stroke-miterlimit="10" d="M1147.056,229.829c0.002-2.213-0.553-10.334-9.947-10.344
	l-0.01,10.334l0,0L1147.056,229.829z"/>
<path fill="#BCBEC0" stroke="#000000" stroke-miterlimit="10" d="M1147.056,229.829c-0.002-2.213,0.553-10.334,9.947-10.344
	l0.012,10.334l0,0L1147.056,229.829z"/>
<line fill="none" stroke="#000000" stroke-miterlimit="10" x1="1206.979" y1="229.829" x2="1111.312" y2="229.829"/>
<line fill="none" stroke="#000000" stroke-miterlimit="10" x1="1452.771" y1="187.454" x2="1452.771" y2="190.954"/>
<line fill="none" stroke="#000000" stroke-miterlimit="10" x1="1465.021" y1="207.704" x2="1465.021" y2="204.454"/>
<line fill="none" stroke="#000000" stroke-miterlimit="10" x1="927.937" y1="281.704" x2="924.687" y2="281.704"/>
<line fill="none" stroke="#000000" stroke-miterlimit="10" x1="911.187" y1="293.954" x2="907.687" y2="293.954"/>
<line fill="none" stroke="#000000" stroke-miterlimit="10" x1="1178.257" y1="229.829" x2="1178.257" y2="321.079"/>
<rect x="1178.257" y="261.641" fill="#BCBEC0" stroke="#000000" stroke-miterlimit="10" width="27" height="12.25"/>
<polyline fill="#BCBEC0" stroke="#000000" stroke-miterlimit="10" points="1201.882,261.641 1201.882,273.891 1198.632,273.891 
	1198.632,261.641 1195.382,261.641 1195.382,273.891 1191.757,273.891 1191.757,261.641 1188.382,261.641 1188.382,273.891 
	1185.132,273.891 1185.132,261.641 1181.632,261.641 1181.632,273.891 "/>
<line fill="none" stroke="#000000" stroke-miterlimit="10" x1="1201.882" y1="261.641" x2="1198.632" y2="261.641"/>
<line fill="none" stroke="#000000" stroke-miterlimit="10" x1="1185.132" y1="273.891" x2="1181.632" y2="273.891"/>
<rect x="608.428" y="273.307" fill="#A7A9AC" stroke="#000000" stroke-miterlimit="10" width="33.884" height="30.267"/>
<rect x="49.896" y="63.627" fill="#C1DC9F" stroke="#000000" stroke-miterlimit="10" width="38.403" height="55.729"/>
<rect x="88.299" y="63.627" fill="#C1DC9F" stroke="#000000" stroke-miterlimit="10" width="45.646" height="40.362"/>
<rect x="133.944" y="63.627" fill="#C1DC9F" stroke="#000000" stroke-miterlimit="10" width="65.69" height="40.362"/>
<rect x="199.634" y="63.627" fill="#83C8DE" stroke="#000000" stroke-miterlimit="10" width="37.393" height="53.027"/>
<rect x="237.027" y="63.627" fill="#83C8DE" stroke="#000000" stroke-miterlimit="10" width="37.729" height="53.027"/>
<rect x="274.756" y="63.627" fill="#83C8DE" stroke="#000000" stroke-miterlimit="10" width="37.393" height="53.027"/>
<rect x="312.149" y="63.627" fill="#83C8DE" stroke="#000000" stroke-miterlimit="10" width="37.73" height="53.027"/>
<rect x="349.879" y="63.627" fill="#83C8DE" stroke="#000000" stroke-miterlimit="10" width="37.561" height="53.027"/>
<rect x="387.44" y="63.627" fill="#83C8DE" stroke="#000000" stroke-miterlimit="10" width="37.561" height="53.027"/>
<polygon fill="#83C8DE" stroke="#000000" stroke-miterlimit="10" points="462.899,63.627 462.899,64.135 462.899,116.655 
	425.001,116.655 425.001,63.627 "/>
<rect x="462.899" y="63.627" fill="#83C8DE" stroke="#000000" stroke-miterlimit="10" width="37.224" height="53.027"/>
<rect x="500.123" y="63.627" fill="#83C8DE" stroke="#000000" stroke-miterlimit="10" width="37.562" height="53.027"/>
<rect x="537.685" y="63.627" fill="#83C8DE" stroke="#000000" stroke-miterlimit="10" width="37.56" height="53.027"/>
<rect x="575.245" y="63.627" fill="#83C8DE" stroke="#000000" stroke-miterlimit="10" width="37.562" height="53.027"/>
<rect x="612.806" y="63.627" fill="#83C8DE" stroke="#000000" stroke-miterlimit="10" width="38.572" height="53.027"/>
<rect x="651.378" y="63.627" fill="#83C8DE" stroke="#000000" stroke-miterlimit="10" width="38.572" height="53.027"/>
<rect x="689.95" y="63.627" fill="#83C8DE" stroke="#000000" stroke-miterlimit="10" width="38.908" height="53.027"/>
<polygon fill="#C1DC9F" stroke="#000000" stroke-miterlimit="10" points="728.857,49.612 803.812,49.612 803.812,117.162 
	728.857,116.655 "/>
<rect x="803.812" y="49.612" fill="#C1DC9F" stroke="#000000" stroke-miterlimit="10" width="62.826" height="67.55"/>
<polygon fill="#FED497" stroke="#000000" stroke-miterlimit="10" points="814.508,133.247 836.11,133.247 841.163,156.804 
	841.163,166.43 814.508,166.43 "/>
<polygon fill="#FED497" stroke="#000000" stroke-miterlimit="10" points="846.468,133.247 841.163,157.311 841.163,166.43 
	867.817,166.43 867.817,133.247 "/>
<polygon fill="#FED497" stroke="#000000" stroke-miterlimit="10" points="867.817,198.348 867.817,166.43 841.163,166.43 
	841.163,175.042 846.468,198.348 "/>
<polygon fill="#FED497" stroke="#000000" stroke-miterlimit="10" points="814.508,166.43 814.508,198.348 835.729,198.348 
	841.163,175.042 841.163,166.43 "/>
<polygon fill="#FED497" stroke="#000000" stroke-miterlimit="10" points="187.003,163.854 208.562,163.854 208.562,132.106 
	197.783,132.106 "/>
<polygon fill="#FED497" stroke="#000000" stroke-miterlimit="10" points="230.123,163.854 219.679,132.106 208.562,132.106 
	208.562,163.854 "/>
<polygon fill="#FED497" stroke="#000000" stroke-miterlimit="10" points="251.345,163.854 251.345,132.106 240.733,132.106 
	230.123,163.854 "/>
<polygon fill="#FED497" stroke="#000000" stroke-miterlimit="10" points="272.904,163.854 251.345,163.854 251.345,132.106 
	262.125,132.106 "/>
<polygon fill="#FED497" stroke="#000000" stroke-miterlimit="10" points="294.295,163.854 294.295,132.106 272.904,132.106 
	283.6,163.854 "/>
<polygon fill="#FED497" stroke="#000000" stroke-miterlimit="10" points="305.076,163.854 294.295,163.854 294.295,132.106 
	315.688,132.106 "/>
<polygon fill="#FED497" stroke="#000000" stroke-miterlimit="10" points="315.688,163.854 336.91,163.854 336.91,132.106 
	326.298,132.106 "/>
<polygon fill="#FED497" stroke="#000000" stroke-miterlimit="10" points="358.638,163.854 336.91,163.854 336.91,132.106 
	347.774,132.106 "/>
<polygon fill="#FED497" stroke="#000000" stroke-miterlimit="10" points="379.861,132.106 379.861,163.854 369.25,163.854 
	358.638,132.106 "/>
<polygon fill="#FED497" stroke="#000000" stroke-miterlimit="10" points="401.084,132.106 391.146,163.854 379.861,163.854 
	379.861,132.106 "/>
<polygon fill="#FED497" stroke="#000000" stroke-miterlimit="10" points="422.644,132.106 422.644,163.854 401.084,163.854 
	411.864,132.106 "/>
<polygon fill="#FED497" stroke="#000000" stroke-miterlimit="10" points="447.572,132.106 458.015,132.106 468.963,163.854 
	447.572,163.854 "/>
<polygon fill="#FED497" stroke="#000000" stroke-miterlimit="10" points="468.963,132.106 490.017,132.106 490.017,163.854 
	479.49,163.854 "/>
<polygon fill="#FED497" stroke="#000000" stroke-miterlimit="10" points="511.409,132.106 490.017,132.106 490.017,163.854 
	500.712,163.854 "/>
<polygon fill="#FED497" stroke="#000000" stroke-miterlimit="10" points="533.137,132.106 533.137,163.854 511.409,163.854 
	522.272,132.106 "/>
<polygon fill="#FED497" stroke="#000000" stroke-miterlimit="10" points="554.865,163.854 544.085,132.106 533.137,132.106 
	533.137,163.854 "/>
<polygon fill="#FED497" stroke="#000000" stroke-miterlimit="10" points="554.865,132.106 576.088,132.106 576.088,163.854 
	565.477,163.854 "/>
<polygon fill="#FED497" stroke="#000000" stroke-miterlimit="10" points="597.311,132.106 587.205,163.854 576.088,163.854 
	576.088,132.106 "/>
<polygon fill="#FED497" stroke="#000000" stroke-miterlimit="10" points="619.039,132.106 619.039,163.854 597.311,163.854 
	608.175,132.106 "/>
<rect x="89.479" y="126.027" fill="#F284AF" stroke="#000000" stroke-miterlimit="10" width="39.583" height="76.669"/>
<rect x="129.061" y="126.027" fill="#F284AF" stroke="#000000" stroke-miterlimit="10" width="41.435" height="76.669"/>
<line fill="none" stroke="#000000" stroke-miterlimit="10" x1="89.479" y1="120.454" x2="89.479" y2="126.027"/>
<line fill="none" stroke="#000000" stroke-miterlimit="10" x1="89.479" y1="202.696" x2="89.479" y2="230.392"/>
<polygon fill="#FED497" stroke="#000000" stroke-miterlimit="10" points="666.791,132.613 666.791,154.651 635.714,154.651 
	635.714,143.632 "/>
<polygon fill="#FED497" stroke="#000000" stroke-miterlimit="10" points="697.867,154.651 697.867,143.632 666.791,132.613 
	666.791,154.651 "/>
<polygon fill="#FED497" stroke="#000000" stroke-miterlimit="10" points="728.185,154.651 728.185,132.613 697.867,143.632 
	697.867,154.651 "/>
<polygon fill="#FED497" stroke="#000000" stroke-miterlimit="10" points="759.261,154.651 759.261,143.632 728.185,132.613 
	728.185,154.651 "/>
<polygon fill="#FED497" stroke="#000000" stroke-miterlimit="10" points="790.085,154.651 790.085,132.613 759.261,143.632 
	759.261,154.651 "/>
<polygon fill="#FED497" stroke="#000000" stroke-miterlimit="10" points="790.085,154.651 790.085,177.533 759.261,166.093 
	759.261,154.651 "/>
<polygon fill="#FED497" stroke="#000000" stroke-miterlimit="10" points="728.185,154.651 728.185,177.533 759.261,166.093 
	759.261,154.651 "/>
<polygon fill="#FED497" stroke="#000000" stroke-miterlimit="10" points="697.867,154.651 697.867,166.093 728.185,177.533 
	728.185,154.651 "/>
<polygon fill="#FED497" stroke="#000000" stroke-miterlimit="10" points="666.791,154.651 666.791,177.533 697.867,166.093 
	697.867,154.651 "/>
<polygon fill="#FED497" stroke="#000000" stroke-miterlimit="10" points="635.714,154.651 635.714,166.093 666.791,177.533 
	666.791,154.651 "/>
<polygon fill="#FED497" stroke="#000000" stroke-miterlimit="10" points="635.714,182.262 666.791,194.083 666.791,204.722 
	635.714,204.722 "/>
<polygon fill="#FED497" stroke="#000000" stroke-miterlimit="10" points="697.867,182.262 697.867,204.722 666.791,204.722 
	666.791,194.083 "/>
<polygon fill="#FED497" stroke="#000000" stroke-miterlimit="10" points="728.185,193.492 728.185,204.722 697.867,204.722 
	697.867,182.262 "/>
<polygon fill="#FED497" stroke="#000000" stroke-miterlimit="10" points="759.851,182.262 759.851,204.722 728.185,204.722 
	728.185,193.492 "/>
<polygon fill="#FED497" stroke="#000000" stroke-miterlimit="10" points="790.085,204.722 790.085,193.492 759.851,182.262 
	759.851,204.722 "/>
<rect x="202.499" y="177.196" fill="#83C8DE" stroke="#000000" stroke-miterlimit="10" width="37.224" height="52.688"/>
<rect x="239.723" y="177.196" fill="#83C8DE" stroke="#000000" stroke-miterlimit="10" width="37.561" height="52.688"/>
<rect x="277.284" y="177.196" fill="#83C8DE" stroke="#000000" stroke-miterlimit="10" width="37.562" height="52.688"/>
<rect x="314.845" y="177.196" fill="#83C8DE" stroke="#000000" stroke-miterlimit="10" width="37.729" height="52.688"/>
<rect x="352.574" y="177.196" fill="#83C8DE" stroke="#000000" stroke-miterlimit="10" width="37.898" height="52.688"/>
<rect x="390.473" y="177.196" fill="#83C8DE" stroke="#000000" stroke-miterlimit="10" width="36.887" height="52.688"/>
<rect x="427.359" y="177.196" fill="#83C8DE" stroke="#000000" stroke-miterlimit="10" width="37.898" height="52.688"/>
<polygon fill="#83C8DE" stroke="#000000" stroke-miterlimit="10" points="502.314,177.533 465.257,177.196 465.257,229.884 
	502.314,229.884 "/>
<rect x="502.314" y="177.533" fill="#83C8DE" stroke="#000000" stroke-miterlimit="10" width="37.561" height="52.351"/>
<rect x="539.875" y="177.533" fill="#83C8DE" stroke="#000000" stroke-miterlimit="10" width="78.153" height="52.351"/>
<path fill="none" stroke="#000000" stroke-miterlimit="10" d="M618.028,229.884"/>
<line fill="none" stroke="#000000" stroke-miterlimit="10" x1="202.499" y1="229.884" x2="89.479" y2="230.392"/>
<line fill="none" stroke="#000000" stroke-miterlimit="10" x1="89.479" y1="230.392" x2="89.479" y2="202.696"/>
<line fill="none" stroke="#000000" stroke-miterlimit="10" x1="89.479" y1="120.454" x2="89.479" y2="126.027"/>
<path fill="#BCBEC0" stroke="#000000" stroke-miterlimit="10" d="M654.74,219.787c2.432,0,11.355,0.57,11.355,10.054H654.74l0,0
	V219.787z"/>
<path fill="#BCBEC0" stroke="#000000" stroke-miterlimit="10" d="M666.739,229.884c0-2.172,0.661-10.142,11.703-10.142v10.142l0,0
	H666.739z"/>
<rect x="62.192" y="211.52" fill="#BCBEC0" stroke="#000000" stroke-miterlimit="10" width="27.287" height="12.411"/>
<polyline fill="#BCBEC0" stroke="#000000" stroke-miterlimit="10" points="86.067,211.52 86.067,223.931 82.783,223.931 
	82.783,211.52 79.499,211.52 79.499,223.931 75.835,223.931 75.835,211.52 72.424,211.52 72.424,223.931 69.14,223.931 
	69.14,211.52 65.603,211.52 65.603,223.931 "/>
<line fill="none" stroke="#000000" stroke-miterlimit="10" x1="89.479" y1="230.392" x2="88.973" y2="230.392"/>
<line fill="none" stroke="#000000" stroke-miterlimit="10" x1="86.067" y1="211.52" x2="82.783" y2="211.52"/>
<line fill="none" stroke="#000000" stroke-miterlimit="10" x1="69.14" y1="223.931" x2="65.603" y2="223.931"/>
<line fill="none" stroke="#000000" stroke-miterlimit="10" x1="65.603" y1="223.931" x2="62.079" y2="223.931"/>
<path fill="none" stroke="#000000" stroke-miterlimit="10" d="M867.817,321.078"/>
<line fill="none" stroke="#000000" stroke-miterlimit="10" x1="867.817" y1="321.078" x2="868.327" y2="321.078"/>
<rect x="614.744" y="253.506" fill="#BCBEC0" stroke="#000000" stroke-miterlimit="10" width="27.286" height="12.412"/>
<polyline fill="#BCBEC0" stroke="#000000" stroke-miterlimit="10" points="638.62,253.506 638.62,265.918 635.335,265.918 
	635.335,253.506 632.051,253.506 632.051,265.918 628.387,265.918 628.387,253.506 624.976,253.506 624.976,265.918 
	621.692,265.918 621.692,253.506 618.154,253.506 618.154,265.918 "/>
<line fill="none" stroke="#000000" stroke-miterlimit="10" x1="638.62" y1="253.506" x2="635.335" y2="253.506"/>
<line fill="none" stroke="#000000" stroke-miterlimit="10" x1="621.692" y1="265.918" x2="618.154" y2="265.918"/>
<line fill="none" stroke="#000000" stroke-miterlimit="10" x1="642.114" y1="229.84" x2="642.114" y2="321.078"/>
<g>
	<path stroke="#000000" stroke-miterlimit="10" d="M621.147,276.176"/>
	<line stroke="#000000" stroke-miterlimit="10" x1="621.147" y1="276.176" x2="621.147" y2="284.451"/>
	<line stroke="#000000" stroke-miterlimit="10" x1="621.362" y1="275.878" x2="618.342" y2="280.038"/>
	<line stroke="#000000" stroke-miterlimit="10" x1="624.072" y1="280.038" x2="620.923" y2="275.878"/>
	<line stroke="#000000" stroke-miterlimit="10" x1="628.996" y1="284.299" x2="628.996" y2="276.027"/>
	<line stroke="#000000" stroke-miterlimit="10" x1="629.211" y1="284.596" x2="626.191" y2="280.438"/>
	<line stroke="#000000" stroke-miterlimit="10" x1="631.921" y1="280.438" x2="628.772" y2="284.596"/>
	<line stroke="#000000" stroke-miterlimit="10" x1="618.342" y1="286.986" x2="631.921" y2="286.986"/>
	<line stroke="#000000" stroke-miterlimit="10" x1="631.921" y1="286.479" x2="631.921" y2="301"/>
	<line stroke="#000000" stroke-miterlimit="10" x1="631.921" y1="300.494" x2="618.342" y2="300.494"/>
	<line stroke="#000000" stroke-miterlimit="10" x1="618.342" y1="301" x2="618.342" y2="286.479"/>
	<g>
		<circle stroke="#000000" stroke-miterlimit="10" cx="621.311" cy="289.727" r="0.271"/>
		<rect x="619.914" y="290.925" stroke="#000000" stroke-width="0.5" stroke-miterlimit="10" width="2.795" height="3.453"/>
		<rect x="620.316" y="294.378" width="0.724" height="4.428"/>
		<rect x="621.583" y="294.378" width="0.724" height="4.428"/>
	</g>
	<circle stroke="#000000" stroke-miterlimit="10" cx="625.101" cy="289.727" r="0.271"/>
	<rect x="623.703" y="290.925" stroke="#000000" stroke-width="0.5" stroke-miterlimit="10" width="2.795" height="3.453"/>
	<rect x="624.106" y="294.378" width="0.723" height="4.428"/>
	<rect x="625.372" y="294.378" width="0.723" height="4.428"/>
	<circle stroke="#000000" stroke-miterlimit="10" cx="628.954" cy="289.727" r="0.271"/>
	<rect x="627.556" y="290.925" stroke="#000000" stroke-width="0.5" stroke-miterlimit="10" width="2.795" height="3.453"/>
	<rect x="627.958" y="294.378" width="0.724" height="4.428"/>
	<rect x="629.225" y="294.378" width="0.723" height="4.428"/>
</g>
<path fill="#BCBEC0" stroke="#000000" stroke-miterlimit="10" d="M729.987,308.23c0-2.438,0.568-11.386,10.027-11.386v11.386l0,0
	H729.987z"/>
<path fill="#BCBEC0" stroke="#000000" stroke-miterlimit="10" d="M740.06,296.2c-2.167,0-10.116-0.663-10.116-11.733h10.116l0,0
	V296.2z"/>
<polygon fill="#C1DC9F" stroke="#000000" stroke-miterlimit="10" points="700.393,229.862 700.393,274.179 740.06,274.179 
	740.06,321.078 784.021,321.078 784.021,229.907 "/>
<line fill="none" stroke="#000000" stroke-miterlimit="10" x1="784.021" y1="321.078" x2="931.312" y2="321.078"/>
<line fill="none" stroke="#000000" stroke-miterlimit="10" x1="618.028" y1="229.884" x2="700.393" y2="229.862"/>
<path fill="#BCBEC0" stroke="#000000" stroke-miterlimit="10" d="M836.659,310.943c2.432,0,11.355,0.57,11.355,10.053h-11.355l0,0
	V310.943z"/>
<path fill="#BCBEC0" stroke="#000000" stroke-miterlimit="10" d="M848.659,321.042c0-2.173,0.66-10.143,11.703-10.143v10.143l0,0
	H848.659z"/>
<line fill="none" stroke="#000000" stroke-miterlimit="10" x1="866.638" y1="117.162" x2="931.312" y2="117.245"/>
<ellipse fill="#A7A9AC" stroke="#000000" stroke-miterlimit="10" cx="1146.057" cy="267.766" rx="8.917" ry="9"/>
<text transform="matrix(1 0 0 1 1143.6699 271.7661)" font-family="'CenturyGothic'" font-size="12">L</text>
<ellipse fill="#A7A9AC" stroke="#000000" stroke-miterlimit="10" cx="670.664" cy="267.766" rx="8.917" ry="9"/>
<text transform="matrix(1 0 0 1 668.2764 271.7661)" font-family="'CenturyGothic'" font-size="12">L</text>
</svg>
