<?xml version="1.0" encoding="utf-8"?>
<!-- Generator: Adobe Illustrator 16.0.0, SVG Export Plug-In . SVG Version: 6.00 Build 0)  -->
<!DOCTYPE svg PUBLIC "-//W3C//DTD SVG 1.1//EN" "http://www.w3.org/Graphics/SVG/1.1/DTD/svg11.dtd">
<svg version="1.1" id="Layer_1" xmlns="http://www.w3.org/2000/svg" xmlns:xlink="http://www.w3.org/1999/xlink" x="0px" y="0px"
	 width="1523.441px" height="436.75px" viewBox="0 0 1523.441 436.75" enable-background="new 0 0 1523.441 436.75"
	 xml:space="preserve">
<rect x="56.286" y="14.376" fill="#C1DC9F" stroke="#000000" stroke-miterlimit="10" width="56.287" height="68.714"/>
<rect x="56.286" y="83.09" fill="#F284AF" stroke="#000000" stroke-miterlimit="10" width="56.287" height="30.702"/>
<rect x="56.286" y="113.792" fill="#F284AF" stroke="#000000" stroke-miterlimit="10" width="56.287" height="30.702"/>
<rect x="112.573" y="14.376" fill="#83C8DE" stroke="#000000" stroke-miterlimit="10" width="37.281" height="48.246"/>
<rect x="149.854" y="120.372" fill="#83C8DE" stroke="#000000" stroke-miterlimit="10" width="37.281" height="49.708"/>
<polyline fill="#83C8DE" stroke="#000000" stroke-miterlimit="10" points="149.854,14.376 187.135,14.376 187.135,62.623 
	149.854,62.623 "/>
<polyline fill="#83C8DE" stroke="#000000" stroke-miterlimit="10" points="187.135,120.372 222.954,120.372 222.954,170.08 
	187.135,170.08 "/>
<polyline fill="#83C8DE" stroke="#000000" stroke-miterlimit="10" points="187.135,62.623 222.954,62.623 222.954,14.376 
	187.135,14.376 "/>
<polyline fill="#83C8DE" stroke="#000000" stroke-miterlimit="10" points="222.954,14.376 259.504,14.376 259.504,62.623 
	222.954,62.623 "/>
<polyline fill="#83C8DE" stroke="#000000" stroke-miterlimit="10" points="259.504,14.376 298.247,14.376 298.247,62.623 
	259.504,62.623 "/>
<polyline fill="#83C8DE" stroke="#000000" stroke-miterlimit="10" points="298.247,14.376 334.797,14.376 334.797,62.623 
	298.247,62.623 "/>
<polyline fill="#83C8DE" stroke="#000000" stroke-miterlimit="10" points="334.797,14.376 370.616,14.376 370.616,62.623 
	334.797,62.623 "/>
<polyline fill="#83C8DE" stroke="#000000" stroke-miterlimit="10" points="370.616,14.376 407.896,14.376 407.896,62.623 
	370.616,62.623 "/>
<polyline fill="#83C8DE" stroke="#000000" stroke-miterlimit="10" points="407.896,14.376 444.447,14.376 444.447,62.623 
	407.896,62.623 "/>
<polyline fill="#83C8DE" stroke="#000000" stroke-miterlimit="10" points="444.447,14.376 480.997,14.376 480.997,62.623 
	444.447,62.623 "/>
<polyline fill="#83C8DE" stroke="#000000" stroke-miterlimit="10" points="480.997,14.376 518.277,14.376 518.277,62.623 
	480.997,62.623 "/>
<polyline fill="#83C8DE" stroke="#000000" stroke-miterlimit="10" points="518.277,14.376 555.559,14.376 555.559,62.623 
	518.277,62.623 "/>
<polyline fill="#83C8DE" stroke="#000000" stroke-miterlimit="10" points="555.559,14.376 591.377,14.376 591.377,62.623 
	555.559,62.623 "/>
<polyline fill="#83C8DE" stroke="#000000" stroke-miterlimit="10" points="591.377,14.376 628.658,14.376 628.658,62.623 
	591.377,62.623 "/>
<polyline fill="#83C8DE" stroke="#000000" stroke-miterlimit="10" points="628.658,14.376 665.208,14.376 665.208,62.623 
	628.658,62.623 "/>
<polyline fill="#83C8DE" stroke="#000000" stroke-miterlimit="10" points="222.954,120.372 259.504,120.372 259.504,170.08 
	222.954,170.08 "/>
<polyline fill="#83C8DE" stroke="#000000" stroke-miterlimit="10" points="259.504,120.372 298.247,120.372 298.247,170.08 
	259.504,170.08 "/>
<polyline fill="#83C8DE" stroke="#000000" stroke-miterlimit="10" points="298.247,120.372 334.797,120.372 334.797,170.08 
	298.247,170.08 "/>
<polyline fill="#83C8DE" stroke="#000000" stroke-miterlimit="10" points="334.797,120.372 370.616,120.372 370.616,170.08 
	334.797,170.08 "/>
<polyline fill="#83C8DE" stroke="#000000" stroke-miterlimit="10" points="370.616,120.372 407.896,120.372 407.896,170.08 
	370.616,170.08 "/>
<polyline fill="#83C8DE" stroke="#000000" stroke-miterlimit="10" points="407.896,120.372 444.447,120.372 444.447,170.08 
	407.896,170.08 "/>
<polyline fill="#83C8DE" stroke="#000000" stroke-miterlimit="10" points="444.447,120.372 480.997,120.372 480.997,170.08 
	444.447,170.08 "/>
<rect x="480.997" y="120.372" fill="#C1DC9F" stroke="#000000" stroke-miterlimit="10" width="77.974" height="49.708"/>
<rect x="665.208" fill="#83C8DE" stroke="#000000" stroke-miterlimit="10" width="113.549" height="62.623"/>
<rect x="778.758" fill="#83C8DE" stroke="#000000" stroke-miterlimit="10" width="42.398" height="62.623"/>
<rect x="924.957" fill="#83C8DE" stroke="#000000" stroke-miterlimit="10" width="41.949" height="62.623"/>
<rect x="721.983" y="120.372" fill="#83C8DE" stroke="#000000" stroke-miterlimit="10" width="33.87" height="49.708"/>
<polyline fill="#83C8DE" stroke="#000000" stroke-miterlimit="10" points="755.854,120.372 793.865,120.372 793.865,170.08 
	755.854,170.08 "/>
<polyline fill="#83C8DE" stroke="#000000" stroke-miterlimit="10" points="793.865,120.372 834.312,120.372 834.312,170.08 
	793.865,170.08 "/>
<polyline fill="#83C8DE" stroke="#000000" stroke-miterlimit="10" points="834.312,120.372 871.352,120.372 871.352,170.08 
	834.312,170.08 "/>
<polyline fill="#83C8DE" stroke="#000000" stroke-miterlimit="10" points="871.352,120.372 909.85,120.372 909.85,170.08 
	871.352,170.08 "/>
<polyline fill="#83C8DE" stroke="#000000" stroke-miterlimit="10" points="909.85,120.372 948.838,120.372 948.838,170.08 
	909.85,170.08 "/>
<polygon fill="#FED497" stroke="#000000" stroke-miterlimit="10" points="134.504,76.999 160.333,76.999 160.333,98.441 
	134.504,106.727 "/>
<polyline fill="#FED497" stroke="#000000" stroke-miterlimit="10" points="160.333,76.999 187.135,76.999 187.135,106.727 
	160.333,98.441 "/>
<polygon fill="#FED497" stroke="#000000" stroke-miterlimit="10" points="187.135,76.999 212.965,76.999 212.965,98.441 
	187.135,106.727 "/>
<polyline fill="#FED497" stroke="#000000" stroke-miterlimit="10" points="212.965,76.999 238.306,76.999 238.306,106.727 
	212.965,98.441 "/>
<polygon fill="#FED497" stroke="#000000" stroke-miterlimit="10" points="238.306,76.999 265.109,76.999 265.109,98.441 
	238.306,106.727 "/>
<polyline fill="#FED497" stroke="#000000" stroke-miterlimit="10" points="265.109,76.999 291.913,76.999 291.913,106.727 
	265.109,98.441 "/>
<polygon fill="#FED497" stroke="#000000" stroke-miterlimit="10" points="291.913,76.999 318.229,76.999 318.229,98.441 
	291.913,106.727 "/>
<polyline fill="#FED497" stroke="#000000" stroke-miterlimit="10" points="318.229,76.999 345.032,76.999 345.032,106.727 
	318.229,98.441 "/>
<path fill="#FED497" stroke="#000000" stroke-miterlimit="10" d="M365.5,76.999"/>
<polygon fill="#FED497" stroke="#000000" stroke-miterlimit="10" points="345.032,76.999 365.5,76.999 355.266,106.727 
	345.032,106.727 "/>
<polygon fill="#FED497" stroke="#000000" stroke-miterlimit="10" points="365.5,106.727 386.942,106.727 386.942,76.999 
	376.221,76.999 "/>
<polygon fill="#FED497" stroke="#000000" stroke-miterlimit="10" points="410.821,76.999 433.239,76.999 433.239,106.727 
	422.03,106.727 "/>
<polygon fill="#FED497" stroke="#000000" stroke-miterlimit="10" points="433.239,76.999 453.707,76.999 444.447,106.727 
	433.239,106.727 "/>
<polyline fill="#FED497" stroke="#000000" stroke-miterlimit="10" points="453.707,108.188 475.637,108.188 475.637,76.999 
	464.672,76.999 453.707,106.727 "/>
<polygon fill="#FED497" stroke="#000000" stroke-miterlimit="10" points="475.637,108.188 496.105,108.188 485.871,76.999 
	475.637,76.999 "/>
<polygon fill="#FED497" stroke="#000000" stroke-miterlimit="10" points="496.105,76.999 516.573,76.999 516.573,108.188 
	506.339,108.188 "/>
<polygon fill="#FED497" stroke="#000000" stroke-miterlimit="10" points="516.573,76.999 536.43,76.999 526.501,108.188 
	516.573,108.188 "/>
<polygon fill="#FED497" stroke="#000000" stroke-miterlimit="10" points="538.99,108.188 558.971,108.188 558.971,76.999 
	548.979,76.999 "/>
<polygon fill="#FED497" stroke="#000000" stroke-miterlimit="10" points="604.292,120.372 604.292,100.878 573.468,110.625 
	573.468,120.372 "/>
<polygon fill="#FED497" stroke="#000000" stroke-miterlimit="10" points="573.468,76.999 573.468,98.441 604.292,87.719 
	604.292,76.999 "/>
<polygon fill="#FED497" stroke="#000000" stroke-miterlimit="10" points="634.508,76.999 634.508,98.441 604.292,87.719 
	604.292,76.999 "/>
<polygon fill="#FED497" stroke="#000000" stroke-miterlimit="10" points="604.292,100.878 634.508,110.625 634.508,120.372 
	604.292,120.372 "/>
<polygon fill="#FED497" stroke="#000000" stroke-miterlimit="10" points="634.508,76.999 665.208,76.999 665.208,87.719 
	634.508,98.441 "/>
<polygon fill="#FED497" stroke="#000000" stroke-miterlimit="10" points="634.508,110.625 665.208,100.878 665.208,120.372 
	634.508,120.372 "/>
<polygon fill="#FED497" stroke="#000000" stroke-miterlimit="10" points="696.885,76.999 696.885,106.727 717.354,106.727 
	707.12,76.999 "/>
<polygon fill="#FED497" stroke="#000000" stroke-miterlimit="10" points="717.354,76.999 738.919,76.999 738.919,106.727 
	728.137,106.727 "/>
<polygon fill="#FED497" stroke="#000000" stroke-miterlimit="10" points="738.919,76.999 759.751,76.999 749.336,106.727 
	738.919,106.727 "/>
<polygon fill="#FED497" stroke="#000000" stroke-miterlimit="10" points="759.751,106.727 778.758,106.727 778.758,76.999 
	769.254,76.999 "/>
<polygon fill="#FED497" stroke="#000000" stroke-miterlimit="10" points="799.957,106.727 778.758,106.727 778.758,76.999 
	789.357,76.999 "/>
<polygon fill="#FED497" stroke="#000000" stroke-miterlimit="10" points="801.662,76.999 821.156,76.999 821.156,106.727 
	811.408,106.727 "/>
<polygon fill="#FED497" stroke="#000000" stroke-miterlimit="10" points="843.086,76.999 821.156,76.999 821.156,106.727 
	832.121,106.727 "/>
<polygon fill="#FED497" stroke="#000000" stroke-miterlimit="10" points="843.086,106.727 864.041,106.727 864.041,76.999 
	852.832,76.999 "/>
<polygon fill="#FED497" stroke="#000000" stroke-miterlimit="10" points="884.51,106.727 864.041,106.727 864.041,76.999 
	874.275,76.999 "/>
<polygon fill="#FED497" stroke="#000000" stroke-miterlimit="10" points="884.51,76.999 905.951,76.999 905.951,106.727 
	895.23,106.727 "/>
<polygon fill="#FED497" stroke="#000000" stroke-miterlimit="10" points="927.395,76.999 905.951,76.999 905.951,106.727 
	916.672,106.727 "/>
<polygon fill="#FED497" stroke="#000000" stroke-miterlimit="10" points="927.395,106.727 948.838,106.727 948.838,76.999 
	938.117,76.999 "/>
<line fill="none" stroke="#000000" stroke-miterlimit="10" x1="112.573" y1="144.495" x2="112.573" y2="170.08"/>
<line fill="none" stroke="#000000" stroke-miterlimit="10" x1="112.573" y1="170.08" x2="149.854" y2="170.08"/>
<line fill="none" stroke="#000000" stroke-miterlimit="10" x1="948.838" y1="170.08" x2="970.523" y2="170.08"/>
<line fill="none" stroke="#000000" stroke-miterlimit="10" x1="821.156" y1="0" x2="924.957" y2="0"/>
<line fill="none" stroke="#000000" stroke-miterlimit="10" x1="821.156" y1="0" x2="924.957" y2="0"/>
<rect y="14.376" fill="#C1DC9F" stroke="#000000" stroke-miterlimit="10" width="56.286" height="53.851"/>
<line fill="none" stroke="#000000" stroke-miterlimit="10" x1="39.474" y1="170.08" x2="149.854" y2="170.08"/>
<line fill="none" stroke="#000000" stroke-miterlimit="10" x1="39.474" y1="68.227" x2="39.474" y2="170.08"/>
<rect y="144.495" fill="#F284AF" stroke="#000000" stroke-miterlimit="10" width="39.474" height="17.909"/>
<polyline fill="#F284AF" stroke="#000000" stroke-miterlimit="10" points="4.934,162.404 4.934,144.495 9.685,144.495 
	9.685,162.404 14.437,162.404 14.437,144.495 19.737,144.495 19.737,162.404 24.67,162.404 24.67,144.495 29.422,144.495 
	29.422,162.404 34.539,162.404 34.539,144.495 "/>
<line fill="#F284AF" stroke="#000000" stroke-miterlimit="10" x1="4.934" y1="162.404" x2="9.685" y2="162.404"/>
<line fill="#F284AF" stroke="#000000" stroke-miterlimit="10" x1="34.539" y1="144.495" x2="29.422" y2="144.495"/>
<path fill="#BCBEC0" stroke="#000000" stroke-miterlimit="10" d="M587.148,155.508c3.518,0,16.429,0.822,16.429,14.506h-16.429l0,0
	V155.508z"/>
<path fill="#BCBEC0" stroke="#000000" stroke-miterlimit="10" d="M604.507,170.08c0-3.136,0.957-14.635,16.93-14.635v14.635l0,0
	H604.507z"/>
<line fill="none" stroke="#000000" stroke-miterlimit="10" x1="39.474" y1="170.08" x2="38.742" y2="170.08"/>
<line fill="none" stroke="#000000" stroke-miterlimit="10" x1="966.906" y1="170.08" x2="967.66" y2="170.08"/>
<polygon fill="#F284AF" stroke="#000000" stroke-miterlimit="10" points="640.354,170.014 721.983,170.08 721.983,257.506 
	640.354,257.506 "/>
<line fill="none" stroke="#000000" stroke-miterlimit="10" x1="558.971" y1="170.08" x2="640.354" y2="170.014"/>
<line fill="none" stroke="#000000" stroke-miterlimit="10" x1="582.605" y1="170.08" x2="582.971" y2="248.566"/>
<rect x="543.503" y="189.999" fill="#BCBEC0" stroke="#000000" stroke-miterlimit="10" width="39.474" height="17.91"/>
<polyline fill="#BCBEC0" stroke="#000000" stroke-miterlimit="10" points="548.438,207.909 548.438,189.999 553.189,189.999 
	553.189,207.909 557.94,207.909 557.94,189.999 563.24,189.999 563.24,207.909 568.175,207.909 568.175,189.999 572.926,189.999 
	572.926,207.909 578.043,207.909 578.043,189.999 "/>
<line fill="none" stroke="#000000" stroke-miterlimit="10" x1="548.438" y1="207.909" x2="553.189" y2="207.909"/>
<line fill="none" stroke="#000000" stroke-miterlimit="10" x1="578.043" y1="189.999" x2="572.926" y2="189.999"/>
<rect x="534.074" y="211.195" fill="#A7A9AC" stroke="#000000" stroke-miterlimit="10" width="49.019" height="43.671"/>
<g>
	<path stroke="#000000" stroke-miterlimit="10" d="M552.863,213.478"/>
	<line stroke="#000000" stroke-miterlimit="10" x1="552.863" y1="213.478" x2="552.863" y2="225.417"/>
	<line stroke="#000000" stroke-miterlimit="10" x1="553.174" y1="213.051" x2="548.805" y2="219.049"/>
	<line stroke="#000000" stroke-miterlimit="10" x1="557.095" y1="219.049" x2="552.539" y2="213.051"/>
	<line stroke="#000000" stroke-miterlimit="10" x1="564.218" y1="225.202" x2="564.218" y2="213.262"/>
	<line stroke="#000000" stroke-miterlimit="10" x1="564.529" y1="225.628" x2="560.16" y2="219.63"/>
	<line stroke="#000000" stroke-miterlimit="10" x1="568.45" y1="219.63" x2="563.894" y2="225.628"/>
	<line stroke="#000000" stroke-miterlimit="10" x1="548.805" y1="229.075" x2="568.45" y2="229.075"/>
	<line stroke="#000000" stroke-miterlimit="10" x1="568.45" y1="228.343" x2="568.45" y2="249.297"/>
	<line stroke="#000000" stroke-miterlimit="10" x1="568.45" y1="248.566" x2="548.805" y2="248.566"/>
	<line stroke="#000000" stroke-miterlimit="10" x1="548.805" y1="249.297" x2="548.805" y2="228.343"/>
	<g>
		<circle stroke="#000000" stroke-miterlimit="10" cx="553.1" cy="233.03" r="0.393"/>
		<rect x="551.078" y="234.76" stroke="#000000" stroke-width="0.5" stroke-miterlimit="10" width="4.043" height="4.982"/>
		<rect x="551.661" y="239.743" width="1.047" height="6.388"/>
		<rect x="553.493" y="239.743" width="1.046" height="6.388"/>
	</g>
	<circle stroke="#000000" stroke-miterlimit="10" cx="558.583" cy="233.03" r="0.393"/>
	<rect x="556.561" y="234.76" stroke="#000000" stroke-width="0.5" stroke-miterlimit="10" width="4.043" height="4.982"/>
	<rect x="557.143" y="239.743" width="1.047" height="6.388"/>
	<rect x="558.975" y="239.743" width="1.046" height="6.388"/>
	<circle stroke="#000000" stroke-miterlimit="10" cx="564.156" cy="233.03" r="0.393"/>
	<rect x="562.135" y="234.76" stroke="#000000" stroke-width="0.5" stroke-miterlimit="10" width="4.043" height="4.982"/>
	<rect x="562.717" y="239.743" width="1.046" height="6.388"/>
	<rect x="564.549" y="239.743" width="1.046" height="6.388"/>
</g>
<line fill="none" stroke="#000000" stroke-miterlimit="10" x1="948.838" y1="170.08" x2="948.838" y2="257.304"/>
<rect x="909.363" y="207.543" fill="#BCBEC0" stroke="#000000" stroke-miterlimit="10" width="39.475" height="17.909"/>
<polyline fill="#BCBEC0" stroke="#000000" stroke-miterlimit="10" points="914.297,225.453 914.297,207.543 919.049,207.543 
	919.049,225.453 923.801,225.453 923.801,207.543 929.1,207.543 929.1,225.453 934.035,225.453 934.035,207.543 938.787,207.543 
	938.787,225.453 943.902,225.453 943.902,207.543 "/>
<line fill="none" stroke="#000000" stroke-miterlimit="10" x1="914.297" y1="225.453" x2="919.049" y2="225.453"/>
<line fill="none" stroke="#000000" stroke-miterlimit="10" x1="943.902" y1="207.543" x2="938.787" y2="207.543"/>
<rect x="1482.018" y="97.947" fill="#C1DC9F" stroke="#000000" stroke-miterlimit="10" width="41.424" height="27.778"/>
<rect x="1443.277" y="97.947" fill="#C1DC9F" stroke="#000000" stroke-miterlimit="10" width="38.984" height="27.778"/>
<rect x="1187.424" y="120.364" fill="#C1DC9F" stroke="#000000" stroke-miterlimit="10" width="78.951" height="49.708"/>
<rect x="1079.48" y="11.688" fill="#83C8DE" stroke="#000000" stroke-miterlimit="10" width="55.557" height="51.17"/>
<rect x="966.906" fill="#83C8DE" stroke="#000000" stroke-miterlimit="10" width="112.574" height="62.858"/>
<rect x="1135.037" y="11.688" fill="#83C8DE" stroke="#000000" stroke-miterlimit="10" width="36.062" height="51.17"/>
<rect x="1171.1" y="11.688" fill="#83C8DE" stroke="#000000" stroke-miterlimit="10" width="55.557" height="51.17"/>
<polyline fill="#83C8DE" stroke="#000000" stroke-miterlimit="10" points="1226.656,11.688 1264.18,11.688 1264.18,62.858 
	1226.656,62.858 "/>
<polyline fill="#83C8DE" stroke="#000000" stroke-miterlimit="10" points="1264.18,11.688 1300.729,11.688 1300.729,62.858 
	1264.18,62.858 "/>
<polyline fill="#83C8DE" stroke="#000000" stroke-miterlimit="10" points="1300.729,11.688 1337.768,11.688 1337.768,62.858 
	1300.729,62.858 "/>
<polyline fill="#83C8DE" stroke="#000000" stroke-miterlimit="10" points="1337.768,11.688 1374.805,11.688 1374.805,62.858 
	1337.768,62.858 "/>
<polyline fill="#83C8DE" stroke="#000000" stroke-miterlimit="10" points="1374.805,11.688 1411.355,11.688 1411.355,62.858 
	1374.805,62.858 "/>
<polyline fill="#83C8DE" stroke="#000000" stroke-miterlimit="10" points="1411.355,11.688 1448.879,11.688 1448.879,62.858 
	1411.355,62.858 "/>
<polyline fill="#83C8DE" stroke="#000000" stroke-miterlimit="10" points="1448.879,11.688 1486.402,11.688 1486.402,62.858 
	1448.879,62.858 "/>
<polyline fill="#83C8DE" stroke="#000000" stroke-miterlimit="10" points="1486.402,11.688 1523.441,11.688 1523.441,62.858 
	1486.402,62.858 "/>
<rect x="1266.375" y="120.364" fill="#83C8DE" stroke="#000000" stroke-miterlimit="10" width="34.6" height="49.708"/>
<polyline fill="#83C8DE" stroke="#000000" stroke-miterlimit="10" points="1300.975,120.364 1338.014,120.364 1338.014,170.072 
	1300.975,170.072 "/>
<polyline fill="#83C8DE" stroke="#000000" stroke-miterlimit="10" points="1338.014,120.364 1375.049,120.364 1375.049,170.072 
	1338.014,170.072 "/>
<polyline fill="#83C8DE" stroke="#000000" stroke-miterlimit="10" points="1375.049,120.364 1411.598,120.364 1411.598,170.072 
	1375.049,170.072 "/>
<line fill="none" stroke="#000000" stroke-miterlimit="10" x1="1443.031" y1="125.725" x2="1411.355" y2="125.725"/>
<line fill="none" stroke="#000000" stroke-miterlimit="10" x1="1523.441" y1="62.858" x2="1523.441" y2="96.972"/>
<rect x="970.523" y="170.08" fill="#83C8DE" stroke="#000000" stroke-miterlimit="10" width="56.287" height="86.587"/>
<rect x="1026.811" y="170.08" fill="#F284AF" stroke="#000000" stroke-miterlimit="10" width="79.436" height="86.587"/>
<line fill="none" stroke="#000000" stroke-miterlimit="10" x1="1105.551" y1="170.072" x2="1187.424" y2="170.072"/>
<path fill="#BCBEC0" stroke="#000000" stroke-miterlimit="10" d="M1123.498,155.5c3.518,0,16.428,0.822,16.428,14.506h-16.428l0,0
	V155.5z"/>
<path fill="#BCBEC0" stroke="#000000" stroke-miterlimit="10" d="M1140.857,170.072c0-3.136,0.955-14.635,16.93-14.635v14.635l0,0
	H1140.857z"/>
<polygon fill="#FED497" stroke="#000000" stroke-miterlimit="10" points="992.734,76.991 966.906,76.991 966.906,97.947 
	992.734,87.469 "/>
<polygon fill="#FED497" stroke="#000000" stroke-miterlimit="10" points="992.734,100.871 966.906,110.129 966.906,119.388 
	992.734,119.388 "/>
<polygon fill="#FED497" stroke="#000000" stroke-miterlimit="10" points="992.734,76.991 992.734,87.469 1023.193,97.947 
	1023.193,76.991 "/>
<polygon fill="#FED497" stroke="#000000" stroke-miterlimit="10" points="1052.678,76.991 1023.193,76.991 1023.193,97.947 
	1052.678,87.469 "/>
<polygon fill="#FED497" stroke="#000000" stroke-miterlimit="10" points="992.734,100.871 1023.193,110.129 1023.193,119.388 
	992.734,119.388 "/>
<polygon fill="#FED497" stroke="#000000" stroke-miterlimit="10" points="1052.678,100.871 1023.193,110.129 1023.193,119.388 
	1052.678,119.388 "/>
<polygon fill="#FED497" stroke="#000000" stroke-miterlimit="10" points="1081.918,76.991 1111.645,76.991 1111.645,97.947 
	1081.918,87.469 "/>
<polygon fill="#FED497" stroke="#000000" stroke-miterlimit="10" points="1081.918,100.871 1081.918,119.388 1111.645,119.388 
	1111.645,110.129 "/>
<polygon fill="#FED497" stroke="#000000" stroke-miterlimit="10" points="1111.645,76.991 1142.836,76.991 1142.836,87.469 
	1111.645,97.947 "/>
<polygon fill="#FED497" stroke="#000000" stroke-miterlimit="10" points="1111.645,110.129 1142.836,100.871 1142.836,119.388 
	1111.645,119.388 "/>
<polygon fill="#FED497" stroke="#000000" stroke-miterlimit="10" points="1142.836,76.991 1173.051,76.991 1173.051,97.947 
	1142.836,87.469 "/>
<polygon fill="#FED497" stroke="#000000" stroke-miterlimit="10" points="1142.836,119.388 1173.051,119.388 1173.051,110.129 
	1142.836,100.871 "/>
<rect x="1418.482" y="125.481" fill="#BCBEC0" stroke="#000000" stroke-miterlimit="10" width="17.91" height="39.474"/>
<polyline fill="#BCBEC0" stroke="#000000" stroke-miterlimit="10" points="1436.393,160.02 1418.482,160.02 1418.482,155.269 
	1436.393,155.269 1436.393,150.517 1418.482,150.517 1418.482,145.217 1436.393,145.217 1436.393,140.284 1418.482,140.284 
	1418.482,135.532 1436.393,135.532 1436.393,130.415 1418.482,130.415 "/>
<polygon fill="#FED497" stroke="#000000" stroke-miterlimit="10" points="1187.182,76.991 1212.889,76.991 1212.889,97.947 
	1187.182,108.179 "/>
<polyline fill="#FED497" stroke="#000000" stroke-miterlimit="10" points="1212.889,76.991 1239.328,76.991 1239.328,108.179 
	1212.889,97.947 "/>
<polygon fill="#FED497" stroke="#000000" stroke-miterlimit="10" points="1239.328,76.991 1265.156,76.991 1265.156,97.947 
	1239.328,108.179 "/>
<polyline fill="#FED497" stroke="#000000" stroke-miterlimit="10" points="1265.156,76.991 1291.961,76.991 1291.961,108.179 
	1265.156,97.947 "/>
<polygon fill="#FED497" stroke="#000000" stroke-miterlimit="10" points="1291.961,76.991 1318.275,76.991 1318.275,97.947 
	1291.961,108.179 "/>
<polyline fill="#FED497" stroke="#000000" stroke-miterlimit="10" points="1318.275,76.991 1344.346,76.991 1344.346,108.179 
	1318.275,97.947 "/>
<polygon fill="#FED497" stroke="#000000" stroke-miterlimit="10" points="1344.346,76.991 1370.662,76.991 1370.662,97.78 
	1344.346,108.426 "/>
<polyline fill="#FED497" stroke="#000000" stroke-miterlimit="10" points="1370.662,76.991 1397.225,76.991 1397.225,108.179 
	1370.662,97.78 "/>
<line fill="none" stroke="#000000" stroke-miterlimit="10" x1="1436.393" y1="160.02" x2="1436.393" y2="155.269"/>
<line fill="none" stroke="#000000" stroke-miterlimit="10" x1="1165.982" y1="170.006" x2="1165.982" y2="257.304"/>
<rect x="1165.982" y="197.788" fill="#BCBEC0" stroke="#000000" stroke-miterlimit="10" width="39.475" height="17.909"/>
<polyline fill="#BCBEC0" stroke="#000000" stroke-miterlimit="10" points="1170.916,215.697 1170.916,197.788 1175.668,197.788 
	1175.668,215.697 1180.42,215.697 1180.42,197.788 1185.719,197.788 1185.719,215.697 1190.654,215.697 1190.654,197.788 
	1195.406,197.788 1195.406,215.697 1200.521,215.697 1200.521,197.788 "/>
<line fill="none" stroke="#000000" stroke-miterlimit="10" x1="1170.916" y1="215.697" x2="1175.668" y2="215.697"/>
<line fill="none" stroke="#000000" stroke-miterlimit="10" x1="1200.521" y1="197.788" x2="1195.406" y2="197.788"/>
<polygon fill="#FED497" stroke="#000000" stroke-miterlimit="10" points="710.653,319.544 710.653,341.839 739.893,330.692 
	739.893,319.544 "/>
<polygon fill="#FED497" stroke="#000000" stroke-miterlimit="10" points="739.893,319.544 770.718,319.544 770.718,341.839 
	739.893,330.692 "/>
<polygon fill="#FED497" stroke="#000000" stroke-miterlimit="10" points="770.718,319.544 770.718,341.839 801.662,330.692 
	801.662,319.544 "/>
<polygon fill="#FED497" stroke="#000000" stroke-miterlimit="10" points="813.115,319.544 813.115,341.839 843.086,330.692 
	843.086,319.544 "/>
<polyline fill="#FED497" stroke="#000000" stroke-miterlimit="10" points="843.086,319.544 873.543,319.544 873.543,341.839 
	843.086,330.692 "/>
<polygon fill="#FED497" stroke="#000000" stroke-miterlimit="10" points="873.543,319.544 904.488,319.544 904.488,330.692 
	873.543,341.839 "/>
<polyline fill="#FED497" stroke="#000000" stroke-miterlimit="10" points="904.488,319.544 934.705,319.544 934.705,341.839 
	904.488,330.692 "/>
<polygon fill="#FED497" stroke="#000000" stroke-miterlimit="10" points="976.857,343.873 976.857,319.544 946.156,319.544 
	946.156,330.692 "/>
<polygon fill="#FED497" stroke="#000000" stroke-miterlimit="10" points="1006.828,319.544 976.857,319.544 976.857,343.873 
	1006.828,330.692 "/>
<polygon fill="#FED497" stroke="#000000" stroke-miterlimit="10" points="1037.289,319.544 1006.828,319.544 1006.828,330.692 
	1037.289,341.839 "/>
<polygon fill="#FED497" stroke="#000000" stroke-miterlimit="10" points="710.653,367.547 739.893,367.547 739.893,346.348 
	710.653,356.948 "/>
<polygon fill="#FED497" stroke="#000000" stroke-miterlimit="10" points="770.718,367.547 770.718,356.948 739.893,346.348 
	739.893,367.547 "/>
<polygon fill="#FED497" stroke="#000000" stroke-miterlimit="10" points="801.662,367.547 801.662,346.348 770.718,356.948 
	770.718,367.547 "/>
<polygon fill="#FED497" stroke="#000000" stroke-miterlimit="10" points="843.086,346.348 843.086,367.547 813.115,367.547 
	813.115,356.948 "/>
<polygon fill="#FED497" stroke="#000000" stroke-miterlimit="10" points="873.543,356.948 843.086,346.348 843.086,367.547 
	873.543,367.547 "/>
<polygon fill="#FED497" stroke="#000000" stroke-miterlimit="10" points="904.488,345.509 873.543,356.948 873.543,367.547 
	904.488,367.547 "/>
<polygon fill="#FED497" stroke="#000000" stroke-miterlimit="10" points="934.705,356.948 904.488,345.509 904.488,367.547 
	934.705,367.547 "/>
<polygon fill="#FED497" stroke="#000000" stroke-miterlimit="10" points="946.156,367.547 946.156,346.348 976.857,356.948 
	976.857,367.547 "/>
<polygon fill="#FED497" stroke="#000000" stroke-miterlimit="10" points="1006.828,346.348 976.857,356.948 976.857,367.547 
	1006.828,367.547 "/>
<polygon fill="#FED497" stroke="#000000" stroke-miterlimit="10" points="1037.289,367.547 1037.289,356.528 1006.828,346.348 
	1006.828,367.547 "/>
<rect x="721.983" y="256.678" fill="#83C8DE" stroke="#000000" stroke-miterlimit="10" width="39.474" height="48.246"/>
<polyline fill="#83C8DE" stroke="#000000" stroke-miterlimit="10" points="761.458,256.678 799.957,256.678 799.957,304.924 
	761.458,304.924 "/>
<polyline fill="#83C8DE" stroke="#000000" stroke-miterlimit="10" points="799.957,256.678 836.508,256.678 836.508,304.924 
	799.957,304.924 "/>
<polyline fill="#83C8DE" stroke="#000000" stroke-miterlimit="10" points="836.508,256.678 874.762,256.678 874.762,304.924 
	836.508,304.924 "/>
<polyline fill="#83C8DE" stroke="#000000" stroke-miterlimit="10" points="874.762,256.678 912.043,256.678 912.043,304.924 
	874.762,304.924 "/>
<polyline fill="#83C8DE" stroke="#000000" stroke-miterlimit="10" points="912.043,256.678 948.838,256.678 948.838,304.924 
	912.043,304.924 "/>
<rect x="970.523" y="256.678" fill="#83C8DE" stroke="#000000" stroke-miterlimit="10" width="38.498" height="48.246"/>
<rect x="1046.547" y="256.678" fill="#83C8DE" stroke="#000000" stroke-miterlimit="10" width="59.699" height="48.246"/>
<rect x="1052.641" y="333.921" fill="#83C8DE" stroke="#000000" stroke-miterlimit="10" width="53.605" height="33.626"/>
<polyline fill="#83C8DE" stroke="#000000" stroke-miterlimit="10" points="1052.641,367.547 1052.641,402.147 1106.246,402.147 
	1106.246,367.547 "/>
<polyline fill="#83C8DE" stroke="#000000" stroke-miterlimit="10" points="1009.021,256.678 1046.547,256.678 1046.547,304.924 
	1009.021,304.924 "/>
<rect x="1037.289" y="402.147" fill="#83C8DE" stroke="#000000" stroke-miterlimit="10" width="68.957" height="34.603"/>
<rect x="1011.945" y="382.899" fill="#C1DC9F" stroke="#000000" stroke-miterlimit="10" width="25.344" height="53.851"/>
<rect x="977.834" y="382.899" fill="#83C8DE" stroke="#000000" stroke-miterlimit="10" width="34.111" height="53.851"/>
<polyline fill="#83C8DE" stroke="#000000" stroke-miterlimit="10" points="977.834,382.899 942.99,382.899 942.99,436.75 
	977.834,436.75 "/>
<polyline fill="#83C8DE" stroke="#000000" stroke-miterlimit="10" points="942.99,382.899 908.145,382.899 908.145,436.75 
	942.99,436.75 "/>
<polyline fill="#83C8DE" stroke="#000000" stroke-miterlimit="10" points="908.145,382.899 873.543,382.899 873.543,436.75 
	908.145,436.75 "/>
<polyline fill="#83C8DE" stroke="#000000" stroke-miterlimit="10" points="873.543,382.899 839.186,382.899 839.186,436.75 
	873.543,436.75 "/>
<polyline fill="#83C8DE" stroke="#000000" stroke-miterlimit="10" points="839.186,382.899 804.83,382.899 804.83,436.75 
	839.186,436.75 "/>
<polyline fill="#83C8DE" stroke="#000000" stroke-miterlimit="10" points="804.83,382.899 770.718,382.899 770.718,436.75 
	804.83,436.75 "/>
<polyline fill="#83C8DE" stroke="#000000" stroke-miterlimit="10" points="770.718,382.899 736.846,382.899 736.846,436.75 
	770.718,436.75 "/>
<polyline fill="#83C8DE" stroke="#000000" stroke-miterlimit="10" points="736.846,382.899 694.449,382.899 694.449,436.75 
	736.846,436.75 "/>
<rect x="640.355" y="367.547" fill="#C1DC9F" stroke="#000000" stroke-miterlimit="10" width="54.094" height="69.202"/>
<rect x="640.355" y="334.41" fill="#83C8DE" stroke="#000000" stroke-miterlimit="10" width="54.094" height="33.138"/>
<rect x="681.291" y="256.678" fill="#C1DC9F" stroke="#000000" stroke-miterlimit="10" width="40.692" height="15.84"/>
<rect x="640.355" y="256.678" fill="#83C8DE" stroke="#000000" stroke-miterlimit="10" width="40.936" height="48.246"/>
<line fill="none" stroke="#000000" stroke-miterlimit="10" x1="640.355" y1="334.41" x2="640.355" y2="304.924"/>
<line fill="none" stroke="#000000" stroke-miterlimit="10" x1="948.594" y1="256.678" x2="970.523" y2="256.678"/>
<line fill="none" stroke="#000000" stroke-miterlimit="10" x1="1106.246" y1="304.924" x2="1106.246" y2="333.921"/>
<path fill="#BCBEC0" stroke="#000000" stroke-miterlimit="10" d="M655.397,334.41c0-3.023-0.849-14.126-14.975-14.126v14.126l0,0
	H655.397z"/>
<path fill="#BCBEC0" stroke="#000000" stroke-miterlimit="10" d="M640.355,319.485c3.236,0,15.107-0.826,15.107-14.561h-15.107l0,0
	V319.485z"/>
<path fill="#BCBEC0" stroke="#000000" stroke-miterlimit="10" d="M1091.203,333.918c0-2.946,0.848-13.76,14.975-13.76v13.76l0,0
	H1091.203z"/>
<path fill="#BCBEC0" stroke="#000000" stroke-miterlimit="10" d="M1106.246,319.359c-3.238,0-15.109-0.816-15.109-14.435h15.109l0,0
	V319.359z"/>
<path fill="#BCBEC0" stroke="#000000" stroke-miterlimit="10" d="M949.045,161.272c2.203,0,10.293,0.497,10.293,8.769h-10.293l0,0
	V161.272z"/>
<path fill="#BCBEC0" stroke="#000000" stroke-miterlimit="10" d="M959.918,170.08c0-1.895,0.602-8.846,10.605-8.846v8.846l0,0
	H959.918z"/>
<path fill="#BCBEC0" stroke="#000000" stroke-miterlimit="10" d="M948.941,247.861c2.203,0,10.291,0.497,10.291,8.769h-10.291l0,0
	V247.861z"/>
<path fill="#BCBEC0" stroke="#000000" stroke-miterlimit="10" d="M959.814,256.667c0-1.893,0.6-8.843,10.605-8.843v8.843l0,0
	H959.814z"/>
<path fill="#A7A9AC" stroke="#000000" stroke-miterlimit="10" d="M1151.502,206.742c0,7.268-5.836,13.158-13.039,13.158
	c-7.197,0-13.037-5.891-13.037-13.158c0-7.267,5.84-13.157,13.037-13.157C1145.666,193.584,1151.502,199.475,1151.502,206.742z"/>
<text transform="matrix(1 0 0 1 1134.9736 212.5913)" font-family="'CenturyGothic'" font-size="17.544">L</text>
<ellipse fill="#A7A9AC" stroke="#000000" stroke-miterlimit="10" cx="612.972" cy="206.742" rx="13.037" ry="13.158"/>
<text transform="matrix(1 0 0 1 609.4819 212.5913)" font-family="'CenturyGothic'" font-size="17.544">L</text>
</svg>
