<?xml version="1.0" encoding="utf-8"?>
<!-- Generator: Adobe Illustrator 16.0.0, SVG Export Plug-In . SVG Version: 6.00 Build 0)  -->
<!DOCTYPE svg PUBLIC "-//W3C//DTD SVG 1.1//EN" "http://www.w3.org/Graphics/SVG/1.1/DTD/svg11.dtd">
<svg version="1.1" id="Layer_1" xmlns="http://www.w3.org/2000/svg" xmlns:xlink="http://www.w3.org/1999/xlink" x="0px" y="0px"
	 width="1520.814px" height="271.077px" viewBox="0 0 1520.814 271.077" enable-background="new 0 0 1520.814 271.077"
	 xml:space="preserve">
<rect x="881.313" y="0.577" fill="#C1DC9F" stroke="#000000" stroke-miterlimit="10" width="66" height="66.667"/>
<polygon fill="#83C8DE" stroke="#000000" stroke-miterlimit="10" points="947.313,0.577 1027.313,0.577 1027.313,15.577 
	1027.313,67.244 947.313,67.244 "/>
<rect x="1027.313" y="15.577" fill="#83C8DE" stroke="#000000" stroke-miterlimit="10" width="40.668" height="51.667"/>
<rect x="1067.981" y="15.577" fill="#83C8DE" stroke="#000000" stroke-miterlimit="10" width="40.332" height="51.667"/>
<rect x="1108.313" y="15.577" fill="#83C8DE" stroke="#000000" stroke-miterlimit="10" width="39" height="51.667"/>
<rect x="1147.313" y="15.577" fill="#83C8DE" stroke="#000000" stroke-miterlimit="10" width="51" height="64"/>
<rect x="1198.313" y="15.577" fill="#83C8DE" stroke="#000000" stroke-miterlimit="10" width="51.5" height="64"/>
<rect x="1249.813" y="15.577" fill="#83C8DE" stroke="#000000" stroke-miterlimit="10" width="46.75" height="64"/>
<rect x="1296.563" y="15.577" fill="#83C8DE" stroke="#000000" stroke-miterlimit="10" width="47.5" height="64"/>
<rect x="1344.063" y="15.577" fill="#83C8DE" stroke="#000000" stroke-miterlimit="10" width="46.5" height="64"/>
<rect x="1390.563" y="15.577" fill="#83C8DE" stroke="#000000" stroke-miterlimit="10" width="43.75" height="64"/>
<rect x="1434.313" y="15.577" fill="#83C8DE" stroke="#000000" stroke-miterlimit="10" width="42.75" height="64"/>
<rect x="1477.063" y="15.577" fill="#83C8DE" stroke="#000000" stroke-miterlimit="10" width="43.75" height="64"/>
<rect x="910.313" y="179.827" fill="#83C8DE" stroke="#000000" stroke-miterlimit="10" width="60.75" height="91.25"/>
<rect x="971.063" y="179.827" fill="#F284AF" stroke="#000000" stroke-miterlimit="10" width="90.25" height="45.875"/>
<rect x="971.063" y="225.702" fill="#F284AF" stroke="#000000" stroke-miterlimit="10" width="90.25" height="45.375"/>
<rect x="1473.313" y="102.827" fill="#C1DC9F" stroke="#000000" stroke-miterlimit="10" width="47.5" height="31.25"/>
<polyline fill="#C1DC9F" stroke="#000000" stroke-miterlimit="10" points="1473.313,102.827 1429.813,102.827 1429.813,134.077 
	1473.313,134.077 "/>
<rect x="1353.313" y="127.827" fill="#83C8DE" stroke="#000000" stroke-miterlimit="10" width="44.75" height="52"/>
<rect x="1313.563" y="127.827" fill="#83C8DE" stroke="#000000" stroke-miterlimit="10" width="39.75" height="52"/>
<rect x="1273.188" y="127.827" fill="#83C8DE" stroke="#000000" stroke-miterlimit="10" width="40.375" height="52"/>
<polygon fill="#FED497" stroke="#000000" stroke-miterlimit="10" points="1104.479,83.327 1104.479,105.577 1070.479,105.577 
	1070.479,94.452 "/>
<polygon fill="#FED497" stroke="#000000" stroke-miterlimit="10" points="1137.981,105.577 1104.479,105.577 1104.479,83.327 
	1137.981,94.452 "/>
<polygon fill="#FED497" stroke="#000000" stroke-miterlimit="10" points="1137.981,117.244 1104.479,127.91 1104.479,105.577 
	1137.981,105.577 "/>
<polygon fill="#FED497" stroke="#000000" stroke-miterlimit="10" points="1070.479,115.077 1070.479,105.577 1104.479,105.577 
	1104.479,127.91 "/>
<polygon fill="#FED497" stroke="#000000" stroke-miterlimit="10" points="1137.981,133.244 1137.981,155.218 1104.479,155.218 
	1104.479,144.229 "/>
<polygon fill="#FED497" stroke="#000000" stroke-miterlimit="10" points="1070.479,133.244 1104.479,144.229 1104.479,155.218 
	1070.479,155.218 "/>
<polygon fill="#FED497" stroke="#000000" stroke-miterlimit="10" points="1156.981,94.452 1190.147,94.452 1190.147,106.577 
	1156.981,117.744 "/>
<polygon fill="#FED497" stroke="#000000" stroke-miterlimit="10" points="1223.981,94.452 1190.147,94.452 1190.147,106.577 
	1223.981,117.744 "/>
<polygon fill="#FED497" stroke="#000000" stroke-miterlimit="10" points="1156.981,144.229 1190.147,144.229 1190.147,122.41 
	1156.981,134.077 "/>
<polygon fill="#FED497" stroke="#000000" stroke-miterlimit="10" points="1223.981,144.229 1190.147,144.229 1190.147,122.41 
	1223.981,133.32 "/>
<polygon fill="#FED497" stroke="#000000" stroke-miterlimit="10" points="1257.147,122.41 1257.147,144.229 1223.981,144.229 
	1223.981,133.32 "/>
<polygon fill="#FED497" stroke="#000000" stroke-miterlimit="10" points="1223.981,117.744 1257.147,106.098 1257.147,94.452 
	1223.981,94.452 "/>
<polygon fill="#FED497" stroke="#000000" stroke-miterlimit="10" points="1156.981,179.827 1184.813,179.827 1184.813,157.077 
	1156.981,168.452 "/>
<polygon fill="#FED497" stroke="#000000" stroke-miterlimit="10" points="1211.981,168.452 1184.813,157.077 1184.813,179.827 
	1211.981,179.827 "/>
<polygon fill="#FED497" stroke="#000000" stroke-miterlimit="10" points="1240.563,157.077 1211.981,168.452 1211.981,179.827 
	1240.563,179.827 "/>
<polygon fill="#FED497" stroke="#000000" stroke-miterlimit="10" points="1267.147,168.452 1240.563,157.077 1240.563,179.827 
	1267.147,179.827 "/>
<polygon fill="#FED497" stroke="#000000" stroke-miterlimit="10" points="1298.647,92.911 1332.147,92.911 1332.147,104.244 
	1298.647,114.577 "/>
<polygon fill="#FED497" stroke="#000000" stroke-miterlimit="10" points="1365.147,92.911 1365.147,103.744 1332.147,114.577 
	1332.147,92.911 "/>
<polygon fill="#FED497" stroke="#000000" stroke-miterlimit="10" points="1398.063,92.911 1398.063,114.577 1365.147,103.744 
	1365.147,92.911 "/>
<line fill="none" stroke="#000000" stroke-miterlimit="10" x1="1520.813" y1="79.577" x2="1520.813" y2="102.827"/>
<line fill="none" stroke="#000000" stroke-miterlimit="10" x1="1429.813" y1="134.077" x2="1398.063" y2="134.077"/>
<line fill="none" stroke="#000000" stroke-miterlimit="10" x1="1273.188" y1="179.827" x2="1267.147" y2="179.827"/>
<line fill="none" stroke="#000000" stroke-miterlimit="10" x1="881.313" y1="271.077" x2="910.313" y2="271.077"/>
<rect x="1402.772" y="134.077" fill="#BCBEC0" stroke="#000000" stroke-miterlimit="10" width="12.25" height="27"/>
<polyline fill="#BCBEC0" stroke="#000000" stroke-miterlimit="10" points="1415.022,157.702 1402.772,157.702 1402.772,154.452 
	1415.022,154.452 1415.022,151.202 1402.772,151.202 1402.772,147.577 1415.022,147.577 1415.022,144.202 1402.772,144.202 
	1402.772,140.952 1415.022,140.952 1415.022,137.452 1402.772,137.452 "/>
<rect x="854.313" y="231.702" fill="#BCBEC0" stroke="#000000" stroke-miterlimit="10" width="27" height="12.25"/>
<polyline fill="#BCBEC0" stroke="#000000" stroke-miterlimit="10" points="877.938,231.702 877.938,243.952 874.688,243.952 
	874.688,231.702 871.438,231.702 871.438,243.952 867.813,243.952 867.813,231.702 864.438,231.702 864.438,243.952 
	861.188,243.952 861.188,231.702 857.688,231.702 857.688,243.952 "/>
<polygon fill="#FED497" stroke="#000000" stroke-miterlimit="10" points="1047.653,83.327 1041.981,107.077 1041.981,116.077 
	1070.479,116.077 1070.479,83.327 "/>
<polygon fill="#FED497" stroke="#000000" stroke-miterlimit="10" points="1070.479,147.577 1070.479,116.077 1041.981,116.077 
	1041.981,124.577 1047.653,147.577 "/>
<polygon fill="#FED497" stroke="#000000" stroke-miterlimit="10" points="1036.308,83.327 1041.979,107.077 1041.979,116.077 
	1013.481,116.077 1013.481,83.327 "/>
<polygon fill="#FED497" stroke="#000000" stroke-miterlimit="10" points="1013.481,147.577 1013.481,116.077 1041.979,116.077 
	1041.979,124.577 1036.308,147.577 "/>
<polygon fill="#FED497" stroke="#000000" stroke-miterlimit="10" points="990.653,83.327 984.981,107.077 984.981,116.077 
	1013.481,116.077 1013.481,83.327 "/>
<polygon fill="#FED497" stroke="#000000" stroke-miterlimit="10" points="1013.481,147.577 1013.481,116.077 984.981,116.077 
	984.981,124.577 990.653,147.577 "/>
<polygon fill="#FED497" stroke="#000000" stroke-miterlimit="10" points="979.308,83.327 984.981,107.077 984.981,116.077 
	956.481,116.077 956.481,83.327 "/>
<polygon fill="#FED497" stroke="#000000" stroke-miterlimit="10" points="956.481,147.577 956.481,116.077 984.981,116.077 
	984.981,124.577 979.308,147.577 "/>
<polygon fill="#FED497" stroke="#000000" stroke-miterlimit="10" points="915.487,83.952 909.813,107.702 909.813,116.702 
	938.313,116.702 938.313,83.952 "/>
<polygon fill="#FED497" stroke="#000000" stroke-miterlimit="10" points="938.313,148.202 938.313,116.702 909.813,116.702 
	909.813,125.202 915.487,148.202 "/>
<polygon fill="#FED497" stroke="#000000" stroke-miterlimit="10" points="904.14,83.952 909.813,107.702 909.813,116.702 
	881.313,116.702 881.313,83.952 "/>
<polygon fill="#FED497" stroke="#000000" stroke-miterlimit="10" points="881.313,148.202 881.313,116.702 909.813,116.702 
	909.813,125.202 904.14,148.202 "/>
<line fill="none" stroke="#000000" stroke-miterlimit="10" x1="881.313" y1="223.306" x2="881.313" y2="252.536"/>
<path fill="#BCBEC0" stroke="#000000" stroke-miterlimit="10" d="M1097.058,179.827c0.002-2.213-0.553-10.334-9.947-10.344
	l-0.01,10.334l0,0L1097.058,179.827z"/>
<path fill="#BCBEC0" stroke="#000000" stroke-miterlimit="10" d="M1097.058,179.827c-0.002-2.213,0.553-10.334,9.947-10.344
	l0.012,10.334l0,0L1097.058,179.827z"/>
<line fill="none" stroke="#000000" stroke-miterlimit="10" x1="1156.981" y1="179.827" x2="1061.313" y2="179.827"/>
<line fill="none" stroke="#000000" stroke-miterlimit="10" x1="1402.772" y1="137.452" x2="1402.772" y2="140.952"/>
<line fill="none" stroke="#000000" stroke-miterlimit="10" x1="1415.022" y1="157.702" x2="1415.022" y2="154.452"/>
<line fill="none" stroke="#000000" stroke-miterlimit="10" x1="877.938" y1="231.702" x2="874.688" y2="231.702"/>
<line fill="none" stroke="#000000" stroke-miterlimit="10" x1="861.188" y1="243.952" x2="857.688" y2="243.952"/>
<line fill="none" stroke="#000000" stroke-miterlimit="10" x1="1128.259" y1="179.827" x2="1128.259" y2="271.077"/>
<rect x="1128.259" y="211.64" fill="#BCBEC0" stroke="#000000" stroke-miterlimit="10" width="27" height="12.25"/>
<polyline fill="#BCBEC0" stroke="#000000" stroke-miterlimit="10" points="1151.884,211.64 1151.884,223.89 1148.634,223.89 
	1148.634,211.64 1145.384,211.64 1145.384,223.89 1141.759,223.89 1141.759,211.64 1138.384,211.64 1138.384,223.89 
	1135.134,223.89 1135.134,211.64 1131.634,211.64 1131.634,223.89 "/>
<line fill="none" stroke="#000000" stroke-miterlimit="10" x1="1151.884" y1="211.64" x2="1148.634" y2="211.64"/>
<line fill="none" stroke="#000000" stroke-miterlimit="10" x1="1135.134" y1="223.89" x2="1131.634" y2="223.89"/>
<rect x="558.43" y="223.306" fill="#A7A9AC" stroke="#000000" stroke-miterlimit="10" width="33.884" height="30.267"/>
<rect x="-0.103" y="13.626" fill="#C1DC9F" stroke="#000000" stroke-miterlimit="10" width="38.403" height="55.729"/>
<rect x="38.301" y="13.626" fill="#C1DC9F" stroke="#000000" stroke-miterlimit="10" width="45.646" height="40.362"/>
<rect x="83.946" y="13.626" fill="#C1DC9F" stroke="#000000" stroke-miterlimit="10" width="65.69" height="40.362"/>
<rect x="149.636" y="13.626" fill="#83C8DE" stroke="#000000" stroke-miterlimit="10" width="37.393" height="53.027"/>
<rect x="187.029" y="13.626" fill="#83C8DE" stroke="#000000" stroke-miterlimit="10" width="37.729" height="53.027"/>
<rect x="224.758" y="13.626" fill="#83C8DE" stroke="#000000" stroke-miterlimit="10" width="37.393" height="53.027"/>
<rect x="262.151" y="13.626" fill="#83C8DE" stroke="#000000" stroke-miterlimit="10" width="37.73" height="53.027"/>
<rect x="299.881" y="13.626" fill="#83C8DE" stroke="#000000" stroke-miterlimit="10" width="37.561" height="53.027"/>
<rect x="337.442" y="13.626" fill="#83C8DE" stroke="#000000" stroke-miterlimit="10" width="37.561" height="53.027"/>
<polygon fill="#83C8DE" stroke="#000000" stroke-miterlimit="10" points="412.901,13.626 412.901,14.134 412.901,66.653 
	375.003,66.653 375.003,13.626 "/>
<rect x="412.901" y="13.626" fill="#83C8DE" stroke="#000000" stroke-miterlimit="10" width="37.224" height="53.027"/>
<rect x="450.125" y="13.626" fill="#83C8DE" stroke="#000000" stroke-miterlimit="10" width="37.562" height="53.027"/>
<rect x="487.687" y="13.626" fill="#83C8DE" stroke="#000000" stroke-miterlimit="10" width="37.56" height="53.027"/>
<rect x="525.247" y="13.626" fill="#83C8DE" stroke="#000000" stroke-miterlimit="10" width="37.562" height="53.027"/>
<rect x="562.808" y="13.626" fill="#83C8DE" stroke="#000000" stroke-miterlimit="10" width="38.572" height="53.027"/>
<rect x="601.38" y="13.626" fill="#83C8DE" stroke="#000000" stroke-miterlimit="10" width="38.572" height="53.027"/>
<rect x="639.952" y="13.626" fill="#83C8DE" stroke="#000000" stroke-miterlimit="10" width="38.908" height="53.027"/>
<polygon fill="#C1DC9F" stroke="#000000" stroke-miterlimit="10" points="678.859,-0.39 753.813,-0.39 753.813,67.161 
	678.859,66.653 "/>
<rect x="753.813" y="-0.39" fill="#C1DC9F" stroke="#000000" stroke-miterlimit="10" width="62.826" height="67.55"/>
<polygon fill="#FED497" stroke="#000000" stroke-miterlimit="10" points="764.51,83.245 786.112,83.245 791.165,106.803 
	791.165,116.429 764.51,116.429 "/>
<polygon fill="#FED497" stroke="#000000" stroke-miterlimit="10" points="796.47,83.245 791.165,107.31 791.165,116.429 
	817.819,116.429 817.819,83.245 "/>
<polygon fill="#FED497" stroke="#000000" stroke-miterlimit="10" points="817.819,148.347 817.819,116.429 791.165,116.429 
	791.165,125.041 796.47,148.347 "/>
<polygon fill="#FED497" stroke="#000000" stroke-miterlimit="10" points="764.51,116.429 764.51,148.347 785.731,148.347 
	791.165,125.041 791.165,116.429 "/>
<polygon fill="#FED497" stroke="#000000" stroke-miterlimit="10" points="137.005,113.853 158.564,113.853 158.564,82.105 
	147.785,82.105 "/>
<polygon fill="#FED497" stroke="#000000" stroke-miterlimit="10" points="180.125,113.853 169.681,82.105 158.564,82.105 
	158.564,113.853 "/>
<polygon fill="#FED497" stroke="#000000" stroke-miterlimit="10" points="201.347,113.853 201.347,82.105 190.735,82.105 
	180.125,113.853 "/>
<polygon fill="#FED497" stroke="#000000" stroke-miterlimit="10" points="222.906,113.853 201.347,113.853 201.347,82.105 
	212.126,82.105 "/>
<polygon fill="#FED497" stroke="#000000" stroke-miterlimit="10" points="244.297,113.853 244.297,82.105 222.906,82.105 
	233.602,113.853 "/>
<polygon fill="#FED497" stroke="#000000" stroke-miterlimit="10" points="255.078,113.853 244.297,113.853 244.297,82.105 
	265.689,82.105 "/>
<polygon fill="#FED497" stroke="#000000" stroke-miterlimit="10" points="265.689,113.853 286.912,113.853 286.912,82.105 
	276.3,82.105 "/>
<polygon fill="#FED497" stroke="#000000" stroke-miterlimit="10" points="308.64,113.853 286.912,113.853 286.912,82.105 
	297.776,82.105 "/>
<polygon fill="#FED497" stroke="#000000" stroke-miterlimit="10" points="329.863,82.105 329.863,113.853 319.251,113.853 
	308.64,82.105 "/>
<polygon fill="#FED497" stroke="#000000" stroke-miterlimit="10" points="351.086,82.105 341.148,113.853 329.863,113.853 
	329.863,82.105 "/>
<polygon fill="#FED497" stroke="#000000" stroke-miterlimit="10" points="372.646,82.105 372.646,113.853 351.086,113.853 
	361.866,82.105 "/>
<polygon fill="#FED497" stroke="#000000" stroke-miterlimit="10" points="397.574,82.105 408.017,82.105 418.965,113.853 
	397.574,113.853 "/>
<polygon fill="#FED497" stroke="#000000" stroke-miterlimit="10" points="418.965,82.105 440.019,82.105 440.019,113.853 
	429.492,113.853 "/>
<polygon fill="#FED497" stroke="#000000" stroke-miterlimit="10" points="461.411,82.105 440.019,82.105 440.019,113.853 
	450.714,113.853 "/>
<polygon fill="#FED497" stroke="#000000" stroke-miterlimit="10" points="483.139,82.105 483.139,113.853 461.411,113.853 
	472.274,82.105 "/>
<polygon fill="#FED497" stroke="#000000" stroke-miterlimit="10" points="504.867,113.853 494.087,82.105 483.139,82.105 
	483.139,113.853 "/>
<polygon fill="#FED497" stroke="#000000" stroke-miterlimit="10" points="504.867,82.105 526.09,82.105 526.09,113.853 
	515.479,113.853 "/>
<polygon fill="#FED497" stroke="#000000" stroke-miterlimit="10" points="547.313,82.105 537.207,113.853 526.09,113.853 
	526.09,82.105 "/>
<polygon fill="#FED497" stroke="#000000" stroke-miterlimit="10" points="569.041,82.105 569.041,113.853 547.313,113.853 
	558.177,82.105 "/>
<rect x="39.48" y="76.025" fill="#F284AF" stroke="#000000" stroke-miterlimit="10" width="39.583" height="76.669"/>
<rect x="79.063" y="76.025" fill="#F284AF" stroke="#000000" stroke-miterlimit="10" width="41.435" height="76.669"/>
<line fill="none" stroke="#000000" stroke-miterlimit="10" x1="39.48" y1="70.452" x2="39.48" y2="76.025"/>
<line fill="none" stroke="#000000" stroke-miterlimit="10" x1="39.48" y1="152.694" x2="39.48" y2="180.391"/>
<polygon fill="#FED497" stroke="#000000" stroke-miterlimit="10" points="616.792,82.612 616.792,104.649 585.716,104.649 
	585.716,93.63 "/>
<polygon fill="#FED497" stroke="#000000" stroke-miterlimit="10" points="647.869,104.649 647.869,93.63 616.792,82.612 
	616.792,104.649 "/>
<polygon fill="#FED497" stroke="#000000" stroke-miterlimit="10" points="678.187,104.649 678.187,82.612 647.869,93.63 
	647.869,104.649 "/>
<polygon fill="#FED497" stroke="#000000" stroke-miterlimit="10" points="709.263,104.649 709.263,93.63 678.187,82.612 
	678.187,104.649 "/>
<polygon fill="#FED497" stroke="#000000" stroke-miterlimit="10" points="740.087,104.649 740.087,82.612 709.263,93.63 
	709.263,104.649 "/>
<polygon fill="#FED497" stroke="#000000" stroke-miterlimit="10" points="740.087,104.649 740.087,127.532 709.263,116.091 
	709.263,104.649 "/>
<polygon fill="#FED497" stroke="#000000" stroke-miterlimit="10" points="678.187,104.649 678.187,127.532 709.263,116.091 
	709.263,104.649 "/>
<polygon fill="#FED497" stroke="#000000" stroke-miterlimit="10" points="647.869,104.649 647.869,116.091 678.187,127.532 
	678.187,104.649 "/>
<polygon fill="#FED497" stroke="#000000" stroke-miterlimit="10" points="616.792,104.649 616.792,127.532 647.869,116.091 
	647.869,104.649 "/>
<polygon fill="#FED497" stroke="#000000" stroke-miterlimit="10" points="585.716,104.649 585.716,116.091 616.792,127.532 
	616.792,104.649 "/>
<polygon fill="#FED497" stroke="#000000" stroke-miterlimit="10" points="585.716,132.261 616.792,144.082 616.792,154.721 
	585.716,154.721 "/>
<polygon fill="#FED497" stroke="#000000" stroke-miterlimit="10" points="647.869,132.261 647.869,154.721 616.792,154.721 
	616.792,144.082 "/>
<polygon fill="#FED497" stroke="#000000" stroke-miterlimit="10" points="678.187,143.49 678.187,154.721 647.869,154.721 
	647.869,132.261 "/>
<polygon fill="#FED497" stroke="#000000" stroke-miterlimit="10" points="709.853,132.261 709.853,154.721 678.187,154.721 
	678.187,143.49 "/>
<polygon fill="#FED497" stroke="#000000" stroke-miterlimit="10" points="740.087,154.721 740.087,143.49 709.853,132.261 
	709.853,154.721 "/>
<rect x="152.5" y="127.194" fill="#83C8DE" stroke="#000000" stroke-miterlimit="10" width="37.224" height="52.688"/>
<rect x="189.725" y="127.194" fill="#83C8DE" stroke="#000000" stroke-miterlimit="10" width="37.561" height="52.688"/>
<rect x="227.286" y="127.194" fill="#83C8DE" stroke="#000000" stroke-miterlimit="10" width="37.562" height="52.688"/>
<rect x="264.847" y="127.194" fill="#83C8DE" stroke="#000000" stroke-miterlimit="10" width="37.729" height="52.688"/>
<rect x="302.576" y="127.194" fill="#83C8DE" stroke="#000000" stroke-miterlimit="10" width="37.898" height="52.688"/>
<rect x="340.475" y="127.194" fill="#83C8DE" stroke="#000000" stroke-miterlimit="10" width="36.887" height="52.688"/>
<rect x="377.361" y="127.194" fill="#83C8DE" stroke="#000000" stroke-miterlimit="10" width="37.898" height="52.688"/>
<polygon fill="#83C8DE" stroke="#000000" stroke-miterlimit="10" points="452.316,127.532 415.259,127.194 415.259,179.883 
	452.316,179.883 "/>
<rect x="452.316" y="127.532" fill="#83C8DE" stroke="#000000" stroke-miterlimit="10" width="37.561" height="52.351"/>
<rect x="489.877" y="127.532" fill="#83C8DE" stroke="#000000" stroke-miterlimit="10" width="78.153" height="52.351"/>
<path fill="none" stroke="#000000" stroke-miterlimit="10" d="M568.03,179.883"/>
<line fill="none" stroke="#000000" stroke-miterlimit="10" x1="152.5" y1="179.883" x2="39.48" y2="180.391"/>
<line fill="none" stroke="#000000" stroke-miterlimit="10" x1="39.48" y1="180.391" x2="39.48" y2="152.694"/>
<line fill="none" stroke="#000000" stroke-miterlimit="10" x1="39.48" y1="70.452" x2="39.48" y2="76.025"/>
<path fill="#BCBEC0" stroke="#000000" stroke-miterlimit="10" d="M604.742,169.785c2.432,0,11.355,0.57,11.355,10.054h-11.355l0,0
	V169.785z"/>
<path fill="#BCBEC0" stroke="#000000" stroke-miterlimit="10" d="M616.741,179.883c0-2.172,0.661-10.142,11.703-10.142v10.142l0,0
	H616.741z"/>
<rect x="12.194" y="161.519" fill="#BCBEC0" stroke="#000000" stroke-miterlimit="10" width="27.287" height="12.411"/>
<polyline fill="#BCBEC0" stroke="#000000" stroke-miterlimit="10" points="36.069,161.519 36.069,173.93 32.785,173.93 
	32.785,161.519 29.5,161.519 29.5,173.93 25.837,173.93 25.837,161.519 22.426,161.519 22.426,173.93 19.142,173.93 19.142,161.519 
	15.604,161.519 15.604,173.93 "/>
<line fill="none" stroke="#000000" stroke-miterlimit="10" x1="39.48" y1="180.391" x2="38.975" y2="180.391"/>
<line fill="none" stroke="#000000" stroke-miterlimit="10" x1="36.069" y1="161.519" x2="32.785" y2="161.519"/>
<line fill="none" stroke="#000000" stroke-miterlimit="10" x1="19.142" y1="173.93" x2="15.604" y2="173.93"/>
<line fill="none" stroke="#000000" stroke-miterlimit="10" x1="15.604" y1="173.93" x2="12.081" y2="173.93"/>
<path fill="none" stroke="#000000" stroke-miterlimit="10" d="M817.819,271.076"/>
<line fill="none" stroke="#000000" stroke-miterlimit="10" x1="817.819" y1="271.076" x2="818.329" y2="271.076"/>
<rect x="564.746" y="203.505" fill="#BCBEC0" stroke="#000000" stroke-miterlimit="10" width="27.286" height="12.412"/>
<polyline fill="#BCBEC0" stroke="#000000" stroke-miterlimit="10" points="588.622,203.505 588.622,215.917 585.337,215.917 
	585.337,203.505 582.053,203.505 582.053,215.917 578.389,215.917 578.389,203.505 574.978,203.505 574.978,215.917 
	571.694,215.917 571.694,203.505 568.156,203.505 568.156,215.917 "/>
<line fill="none" stroke="#000000" stroke-miterlimit="10" x1="588.622" y1="203.505" x2="585.337" y2="203.505"/>
<line fill="none" stroke="#000000" stroke-miterlimit="10" x1="571.694" y1="215.917" x2="568.156" y2="215.917"/>
<line fill="none" stroke="#000000" stroke-miterlimit="10" x1="592.116" y1="179.839" x2="592.116" y2="271.076"/>
<g>
	<path stroke="#000000" stroke-miterlimit="10" d="M571.149,226.175"/>
	<line stroke="#000000" stroke-miterlimit="10" x1="571.149" y1="226.175" x2="571.149" y2="234.449"/>
	<line stroke="#000000" stroke-miterlimit="10" x1="571.364" y1="225.877" x2="568.344" y2="230.036"/>
	<line stroke="#000000" stroke-miterlimit="10" x1="574.074" y1="230.036" x2="570.925" y2="225.877"/>
	<line stroke="#000000" stroke-miterlimit="10" x1="578.998" y1="234.298" x2="578.998" y2="226.025"/>
	<line stroke="#000000" stroke-miterlimit="10" x1="579.213" y1="234.595" x2="576.193" y2="230.437"/>
	<line stroke="#000000" stroke-miterlimit="10" x1="581.923" y1="230.437" x2="578.774" y2="234.595"/>
	<line stroke="#000000" stroke-miterlimit="10" x1="568.344" y1="236.984" x2="581.923" y2="236.984"/>
	<line stroke="#000000" stroke-miterlimit="10" x1="581.923" y1="236.478" x2="581.923" y2="250.998"/>
	<line stroke="#000000" stroke-miterlimit="10" x1="581.923" y1="250.492" x2="568.344" y2="250.492"/>
	<line stroke="#000000" stroke-miterlimit="10" x1="568.344" y1="250.998" x2="568.344" y2="236.478"/>
	<g>
		<circle stroke="#000000" stroke-miterlimit="10" cx="571.313" cy="239.726" r="0.271"/>
		<rect x="569.916" y="240.924" stroke="#000000" stroke-width="0.5" stroke-miterlimit="10" width="2.795" height="3.453"/>
		<rect x="570.318" y="244.377" width="0.724" height="4.428"/>
		<rect x="571.584" y="244.377" width="0.724" height="4.428"/>
	</g>
	<circle stroke="#000000" stroke-miterlimit="10" cx="575.103" cy="239.726" r="0.271"/>
	<rect x="573.705" y="240.924" stroke="#000000" stroke-width="0.5" stroke-miterlimit="10" width="2.795" height="3.453"/>
	<rect x="574.108" y="244.377" width="0.723" height="4.428"/>
	<rect x="575.374" y="244.377" width="0.723" height="4.428"/>
	<circle stroke="#000000" stroke-miterlimit="10" cx="578.956" cy="239.726" r="0.271"/>
	<rect x="577.558" y="240.924" stroke="#000000" stroke-width="0.5" stroke-miterlimit="10" width="2.795" height="3.453"/>
	<rect x="577.96" y="244.377" width="0.724" height="4.428"/>
	<rect x="579.227" y="244.377" width="0.723" height="4.428"/>
</g>
<path fill="#BCBEC0" stroke="#000000" stroke-miterlimit="10" d="M679.989,258.229c0-2.438,0.568-11.386,10.027-11.386v11.386l0,0
	H679.989z"/>
<path fill="#BCBEC0" stroke="#000000" stroke-miterlimit="10" d="M690.062,246.198c-2.167,0-10.116-0.663-10.116-11.733h10.116l0,0
	V246.198z"/>
<polygon fill="#C1DC9F" stroke="#000000" stroke-miterlimit="10" points="650.395,179.86 650.395,224.178 690.062,224.178 
	690.062,271.076 734.023,271.076 734.023,179.905 "/>
<line fill="none" stroke="#000000" stroke-miterlimit="10" x1="734.023" y1="271.076" x2="881.313" y2="271.076"/>
<line fill="none" stroke="#000000" stroke-miterlimit="10" x1="568.03" y1="179.883" x2="650.395" y2="179.86"/>
<path fill="#BCBEC0" stroke="#000000" stroke-miterlimit="10" d="M786.661,260.941c2.432,0,11.355,0.57,11.355,10.053h-11.355l0,0
	V260.941z"/>
<path fill="#BCBEC0" stroke="#000000" stroke-miterlimit="10" d="M798.661,271.041c0-2.173,0.66-10.143,11.703-10.143v10.143l0,0
	H798.661z"/>
<line fill="none" stroke="#000000" stroke-miterlimit="10" x1="816.64" y1="67.161" x2="881.313" y2="67.244"/>
<ellipse fill="#A7A9AC" stroke="#000000" stroke-miterlimit="10" cx="1096.059" cy="217.765" rx="8.917" ry="9"/>
<text transform="matrix(1 0 0 1 1093.6719 221.7646)" font-family="'CenturyGothic'" font-size="12">L</text>
<ellipse fill="#A7A9AC" stroke="#000000" stroke-miterlimit="10" cx="620.666" cy="217.765" rx="8.917" ry="9"/>
<text transform="matrix(1 0 0 1 618.2783 221.7646)" font-family="'CenturyGothic'" font-size="12">L</text>
</svg>
